<svg width="3828" height="2689" viewBox="0 0 3828 2689" fill="none" xmlns="http://www.w3.org/2000/svg">
<g id="gamecube_aqua">
<g id="Button_L">
<g id="Shape_13_copy_1_">
<g id="Shape_13_copy">
<g id="Group">
<path id="Vector" d="M705.062 892.388C922.839 892.388 1099.38 705.888 1099.38 475.829C1099.38 245.769 922.839 59.2695 705.062 59.2695C487.285 59.2695 310.742 245.769 310.742 475.829C310.742 705.888 487.285 892.388 705.062 892.388Z" fill="#C1C1C1"/>
</g>
</g>
</g>
<g id="Shape_13_1_">
<g id="Shape_13">
<g id="Group_2">
<path id="Vector_2" d="M705.061 890.103C915.788 890.103 1086.62 706.417 1086.62 479.829C1086.62 253.241 915.788 69.5547 705.061 69.5547C494.334 69.5547 323.506 253.241 323.506 479.829C323.506 706.417 494.334 890.103 705.061 890.103Z" fill="#EEEEEE"/>
</g>
</g>
</g>
<g id="L">
<path id="L_2" d="M629.855 218.562V115.305H648.56V202.882H694.038V218.562H629.855Z" fill="black"/>
</g>
</g>
<g id="Button_R">
<g id="Shape_13_copy_2_1_">
<g id="Shape_13_copy_2">
<g id="Group_3">
<path id="Vector_3" d="M3133.06 893.388C3350.84 893.388 3527.38 706.888 3527.38 476.829C3527.38 246.769 3350.84 60.2695 3133.06 60.2695C2915.28 60.2695 2738.74 246.769 2738.74 476.829C2738.74 706.888 2915.28 893.388 3133.06 893.388Z" fill="#C1C1C1"/>
</g>
</g>
</g>
<g id="Shape_13_copy_3_1_">
<g id="Shape_13_copy_3">
<g id="Group_4">
<path id="Vector_4" d="M3133.06 891.103C3343.79 891.103 3514.62 707.417 3514.62 480.829C3514.62 254.241 3343.79 70.5547 3133.06 70.5547C2922.33 70.5547 2751.51 254.241 2751.51 480.829C2751.51 707.417 2922.33 891.103 3133.06 891.103Z" fill="#EEEEEE"/>
</g>
</g>
</g>
<g id="R">
<path id="R_2" d="M3170.08 219.562V116.305H3208.8C3216.73 116.305 3223.39 117.683 3228.77 120.439C3234.18 123.195 3238.26 127.061 3241.02 132.035C3243.81 136.976 3245.2 142.741 3245.2 149.329C3245.2 155.951 3243.79 161.698 3240.97 166.572C3238.18 171.413 3234.06 175.16 3228.62 177.816C3223.17 180.437 3216.48 181.748 3208.55 181.748H3180.97V166.219H3206.03C3210.67 166.219 3214.47 165.581 3217.42 164.303C3220.38 162.993 3222.57 161.093 3223.98 158.606C3225.42 156.085 3226.15 152.993 3226.15 149.329C3226.15 145.665 3225.42 142.539 3223.98 139.951C3222.53 137.329 3220.33 135.346 3217.37 134.002C3214.42 132.624 3210.6 131.935 3205.93 131.935H3188.79V219.562H3170.08ZM3223.42 172.774L3248.99 219.562H3228.11L3203 172.774H3223.42Z" fill="black"/>
</g>
</g>
<g id="Button_Z">
<g id="Shape_14_copy_1_">
<g id="Shape_14_copy">
<g id="Group_5">
<path id="Vector_5" d="M3564.87 412.982C3555.72 392.687 3423.57 303.219 3251.91 256.839C3080.25 210.458 2805.86 180.929 2781.44 190.26C2757.01 199.591 2760.76 286.327 2760.76 286.327L3515.81 522.689C3515.81 522.689 3574.02 433.277 3564.87 412.982Z" fill="#21359E"/>
</g>
</g>
</g>
<g id="Shape_14">
<g id="Group_6">
<path id="Vector_6" d="M3551.83 423.119C3542.98 403.483 3415.12 316.919 3249.03 272.044C3082.94 227.169 2817.46 198.598 2793.83 207.626C2770.19 216.654 2773.82 300.576 2773.82 300.576L3504.37 529.265C3504.37 529.265 3560.69 442.755 3551.83 423.119Z" fill="#3348AD"/>
</g>
</g>
</g>
<g id="Shape_15_copy_2_1_">
<g id="Shape_15_copy_2">
<g id="Group_7">
<path id="Vector_7" d="M1916.96 0C1133.53 0 412.58 382.763 412.58 382.763L859.847 1846.36C859.847 1846.36 1059.86 1352.3 1904.81 1352.3C2712.17 1352.3 2965.98 1826.11 2965.98 1826.11L3389.54 374.763C3389.54 374.763 2700.62 0 1916.96 0Z" fill="#246176"/>
</g>
</g>
</g>
<g id="Shape_15_copy_3_1_">
<g id="Shape_15_copy_3">
<g id="Group_8">
<path id="Vector_8" d="M1917.06 15.8281C1149.07 15.8281 413.062 403.828 413.062 403.828L873.062 1793.83C873.062 1793.83 1068.05 1336.46 1917.06 1336.46C2696.93 1336.46 2953.06 1773.83 2953.06 1773.83L3389.06 395.828C3389.06 395.828 2669.08 15.8281 1917.06 15.8281Z" fill="#209DB9"/>
</g>
</g>
</g>
<g id="Shape_12_1_">
<g id="Shape_12">
<g id="Group_9">
<path id="Vector_9" d="M65.2454 821.639C34.7454 945.436 -14.8176 1608.63 4.24437 1957.91C23.3074 2307.19 57.6205 2660.9 286.371 2683.01C515.122 2705.11 530.373 2417.73 557.06 2311.62C583.748 2205.51 720.998 1599.79 720.998 1599.79C720.998 1599.79 95.7454 697.844 65.2454 821.639Z" fill="#246176"/>
</g>
</g>
</g>
<g id="Shape_12_copy_5_1_">
<g id="Shape_12_copy_5">
<g id="Group_10">
<path id="Vector_10" d="M76.9286 846.559C47.9886 967.6 0.959623 1616.04 19.0476 1957.54C37.1356 2299.05 69.6937 2644.89 286.748 2666.5C503.803 2688.12 518.273 2407.13 543.597 2303.38C568.919 2199.63 699.153 1607.39 699.153 1607.39C699.153 1607.39 105.87 725.517 76.9286 846.559Z" fill="#209DB9"/>
</g>
</g>
</g>
<g id="Shape_12_copy_6_1_">
<g id="Shape_12_copy_6">
<g id="Group_11">
<path id="Vector_11" d="M3760.28 825.639C3729.04 701.843 3088.48 1603.79 3088.48 1603.79C3088.48 1603.79 3229.09 2209.51 3256.43 2315.62C3283.77 2421.73 3299.4 2709.11 3533.74 2687.01C3768.09 2664.9 3803.25 2311.19 3822.77 1961.91C3842.3 1612.63 3791.53 949.436 3760.28 825.639Z" fill="#246176"/>
</g>
</g>
</g>
<g id="Shape_12_copy_7_1_">
<g id="Shape_12_copy_7">
<g id="Group_12">
<path id="Vector_12" d="M3748.31 850.559C3718.66 729.517 3110.86 1611.39 3110.86 1611.39C3110.86 1611.39 3244.28 2203.63 3270.23 2307.38C3296.17 2411.13 3310.99 2692.12 3533.36 2670.5C3755.72 2648.89 3789.08 2303.05 3807.61 1961.54C3826.14 1620.04 3777.96 971.6 3748.31 850.559Z" fill="#209DB9"/>
</g>
</g>
</g>
<g id="Shape_12_copy_3_1_">
<g id="Shape_12_copy_3">
<g id="Group_13">
<path id="Vector_13" d="M1738.27 1633.23C1615.51 1444.92 1561.39 1450.7 1485.55 1327.47C1387.76 1168.55 1500.02 851.462 1285.96 561.248C1111.37 324.55 694.349 176.595 344.747 422.629C-28.3316 685.187 -11.0826 1122.4 169.529 1396.51C359.172 1684.34 614.615 1660.57 752.381 1803.92C838.38 1893.41 854.238 2069.01 956.273 2174.28C1100.06 2322.64 1336.52 2399.62 1595.42 2235.78C1811.14 2099.28 1851.03 1806.21 1738.27 1633.23Z" fill="#246176"/>
</g>
</g>
</g>
<g id="Shape_12_copy_1_">
<g id="Shape_12_copy">
<g id="Group_14">
<path id="Vector_14" d="M1733.06 1651.83C1621.98 1464.66 1547.5 1456.8 1473.06 1335.83C1377.06 1179.83 1471.56 833.224 1281.06 575.827C1109.3 343.752 710.008 202.719 361.061 435.827C-1.2395 677.857 -2.93851 1103.83 189.061 1391.83C377.384 1674.31 623.696 1649.33 757.061 1791.83C865.481 1907.67 868.907 2055.97 953.061 2147.83C1107.86 2316.8 1353.31 2389.93 1597.06 2215.83C1821.06 2055.83 1805.57 1774.01 1733.06 1651.83Z" fill="#209DB9"/>
</g>
</g>
</g>
<g id="Shape_12_copy_4_1_">
<g id="Shape_12_copy_4">
<g id="Group_15">
<path id="Vector_15" d="M3478.37 422.629C3128.77 176.595 2711.75 324.55 2537.16 561.248C2323.1 851.462 2435.37 1168.55 2337.57 1327.47C2261.73 1450.7 2207.61 1444.92 2084.85 1633.23C1972.09 1806.21 2011.98 2099.28 2227.7 2235.78C2486.6 2399.62 2723.06 2322.64 2866.85 2174.29C2968.88 2069.01 2984.74 1893.41 3070.74 1803.92C3208.51 1660.57 3463.95 1684.34 3653.59 1396.52C3834.21 1122.4 3851.45 685.186 3478.37 422.629Z" fill="#246176"/>
</g>
</g>
</g>
<g id="Shape_12_copy_2_1_">
<g id="Shape_12_copy_2">
<g id="Group_16">
<path id="Vector_16" d="M3462.06 435.827C3113.12 202.719 2713.82 343.752 2542.06 575.827C2351.56 833.224 2446.06 1179.83 2350.06 1335.83C2275.62 1456.8 2201.14 1464.66 2090.06 1651.83C2017.55 1774.01 2002.06 2055.83 2226.06 2215.83C2469.81 2389.93 2715.26 2316.8 2870.06 2147.83C2954.22 2055.97 2957.64 1907.67 3066.06 1791.83C3199.43 1649.33 3445.74 1674.31 3634.06 1391.83C3826.06 1103.83 3824.36 677.857 3462.06 435.827Z" fill="#209DB9"/>
</g>
</g>
</g>
<g id="Control_Stick_2_">
<g id="Shape_2">
<g id="Group_17">
<path id="Vector_17" d="M753.022 1462.22C1015.51 1462.22 1228.29 1251.61 1228.29 991.81C1228.29 732.006 1015.51 521.395 753.022 521.395C490.54 521.395 277.755 732.006 277.755 991.81C277.755 1251.61 490.54 1462.22 753.022 1462.22Z" fill="#246176"/>
</g>
</g>
<g id="Shape_2_copy">
<g id="Group_18">
<path id="Vector_18" d="M753.022 1450.25C1008.82 1450.25 1216.19 1245 1216.19 991.808C1216.19 738.62 1008.82 533.371 753.022 533.371C497.224 533.371 289.858 738.62 289.858 991.808C289.858 1245 497.224 1450.25 753.022 1450.25Z" fill="#209DB9"/>
</g>
</g>
<g id="Shape_3">
<g id="Group_19">
<path id="Vector_19" d="M966.538 791.373C950.02 774.856 794.553 703.109 755.756 703.109C716.958 703.109 565.885 770.815 545.517 791.183C524.157 812.544 458.128 971.401 457.122 1002.43C456.14 1032.73 520.359 1189.15 544.167 1212.96C570.344 1239.14 715.881 1298.46 754.679 1299.43C793.476 1300.4 939.578 1235.29 964.445 1213.33C989.675 1191.04 1053.76 1032.18 1053.76 1002.05C1053.76 971.982 984.93 809.767 966.538 791.373Z" fill="black"/>
</g>
</g>
<g id="Shape_3_copy_4">
<g id="Group_20">
<path id="Vector_20" d="M960.094 797.777C944.08 781.763 793.359 712.207 755.745 712.207C718.131 712.207 571.671 777.847 551.924 797.593C531.215 818.302 467.201 972.311 466.227 1002.39C465.275 1031.77 527.535 1183.42 550.617 1206.5C575.994 1231.88 717.088 1289.38 754.701 1290.33C792.314 1291.26 933.957 1228.15 958.064 1206.85C982.524 1185.25 1044.66 1031.23 1044.66 1002.02C1044.66 972.873 977.926 815.608 960.094 797.777Z" fill="#D1D1D1"/>
</g>
</g>
<g id="Analog_Stick">
<g id="Shape_1">
<g id="Group_21">
<path id="Vector_21" d="M754.709 1243.49C891.917 1243.49 1003.15 1136.59 1003.15 1004.72C1003.15 872.847 891.917 765.945 754.709 765.945C617.502 765.945 506.273 872.847 506.273 1004.72C506.273 1136.59 617.502 1243.49 754.709 1243.49Z" fill="black"/>
</g>
</g>
<g id="Shape_1_copy">
<g id="Group_22">
<path id="Vector_22" d="M754.709 1229.89C884.102 1229.89 988.996 1129.08 988.996 1004.72C988.996 880.357 884.102 779.543 754.709 779.543C625.316 779.543 520.422 880.357 520.422 1004.72C520.422 1129.08 625.316 1229.89 754.709 1229.89Z" fill="#EEEEEE"/>
</g>
</g>
<g id="Shape_1_copy_2">
<g id="Group_23">
<path id="Vector_23" d="M753.127 1205.37C869.92 1205.37 964.599 1115.96 964.599 1005.68C964.599 895.395 869.92 805.992 753.127 805.992C636.334 805.992 541.655 895.395 541.655 1005.68C541.655 1115.96 636.334 1205.37 753.127 1205.37Z" fill="#ACACAC"/>
</g>
</g>
<g id="Shape_1_copy_3">
<g id="Group_24">
<path id="Vector_24" d="M753.127 1194C863.269 1194 952.556 1109.69 952.556 1005.68C952.556 901.679 863.269 817.367 753.127 817.367C642.986 817.367 553.698 901.679 553.698 1005.68C553.698 1109.69 642.986 1194 753.127 1194Z" fill="#EEEEEE"/>
</g>
</g>
<g id="Shape_1_copy_4">
<g id="Group_25">
<path id="Vector_25" d="M752.956 1139.04C827.88 1139.04 888.618 1081.69 888.618 1010.94C888.618 940.19 827.88 882.836 752.956 882.836C678.031 882.836 617.292 940.19 617.292 1010.94C617.292 1081.69 678.031 1139.04 752.956 1139.04Z" fill="#ACACAC"/>
</g>
</g>
<g id="Shape_1_copy_5">
<g id="Group_26">
<path id="Vector_26" d="M752.954 1127.98C821.41 1127.98 876.903 1075.58 876.903 1010.94C876.903 946.3 821.41 893.898 752.954 893.898C684.499 893.898 629.005 946.3 629.005 1010.94C629.005 1075.58 684.499 1127.98 752.954 1127.98Z" fill="#EEEEEE"/>
</g>
</g>
<g id="Shape_1_copy_6">
<g id="Group_27">
<path id="Vector_27" d="M755.107 1061.82C784.917 1061.82 809.082 1039 809.082 1010.85C809.082 982.705 784.917 959.887 755.107 959.887C725.298 959.887 701.132 982.705 701.132 1010.85C701.132 1039 725.298 1061.82 755.107 1061.82Z" fill="#ACACAC"/>
</g>
</g>
<g id="Shape_1_copy_7">
<g id="Group_28">
<path id="Vector_28" d="M755.104 1050.63C778.365 1050.63 797.222 1032.82 797.222 1010.86C797.222 988.892 778.365 971.086 755.104 971.086C731.843 971.086 712.986 988.892 712.986 1010.86C712.986 1032.82 731.843 1050.63 755.104 1050.63Z" fill="#EEEEEE"/>
</g>
</g>
</g>
</g>
<g id="C-Stick_1_">
<g id="Shape_3_copy_5">
<g id="Group_29">
<path id="Vector_29" d="M2724.54 1640.37C2708.02 1623.85 2552.55 1552.11 2513.76 1552.11C2474.96 1552.11 2323.89 1619.81 2303.52 1640.18C2282.16 1661.54 2216.13 1820.4 2215.12 1851.42C2214.14 1881.72 2278.36 2038.15 2302.17 2061.96C2328.34 2088.13 2473.88 2147.45 2512.68 2148.42C2551.48 2149.39 2697.58 2084.29 2722.45 2062.32C2747.67 2040.04 2811.76 1881.18 2811.76 1851.05C2811.76 1820.98 2742.93 1658.76 2724.54 1640.37Z" fill="black"/>
</g>
</g>
<g id="Shape_3_copy_6">
<g id="Group_30">
<path id="Vector_30" d="M2718.09 1646.78C2702.08 1630.76 2551.36 1561.21 2513.74 1561.21C2476.13 1561.21 2329.67 1626.85 2309.92 1646.59C2289.21 1667.3 2225.2 1821.31 2224.23 1851.39C2223.28 1880.77 2285.53 2032.42 2308.62 2055.5C2333.99 2080.87 2475.09 2138.38 2512.7 2139.33C2550.31 2140.26 2691.96 2077.15 2716.06 2055.85C2740.52 2034.25 2802.66 1880.23 2802.66 1851.02C2802.66 1821.87 2735.93 1664.61 2718.09 1646.78Z" fill="#FFE400"/>
</g>
</g>
<g id="Analog_C_Stick">
<g id="Shape_9">
<g id="Group_31">
<path id="Vector_31" d="M2513.06 1999.83C2592.59 1999.83 2657.06 1935.36 2657.06 1855.83C2657.06 1776.3 2592.59 1711.83 2513.06 1711.83C2433.53 1711.83 2369.06 1776.3 2369.06 1855.83C2369.06 1935.36 2433.53 1999.83 2513.06 1999.83Z" fill="#5F5500"/>
</g>
</g>
<g id="C_Stick">
<g id="Shape_9_copy">
<g id="Group_32">
<path id="Vector_32" d="M2513 1984C2583.69 1984 2641 1926.69 2641 1856C2641 1785.31 2583.69 1728 2513 1728C2442.31 1728 2385 1785.31 2385 1856C2385 1926.69 2442.31 1984 2513 1984Z" fill="#FFE400"/>
</g>
</g>
<g id="C">
<path id="C_2" d="M2559.54 1839.29H2540.88C2540.35 1836.23 2539.37 1833.52 2537.94 1831.16C2536.51 1828.77 2534.73 1826.74 2532.6 1825.07C2530.47 1823.41 2528.04 1822.16 2525.32 1821.33C2522.62 1820.47 2519.71 1820.03 2516.58 1820.03C2511.03 1820.03 2506.11 1821.43 2501.82 1824.23C2497.52 1826.99 2494.16 1831.04 2491.74 1836.4C2489.31 1841.72 2488.09 1848.22 2488.09 1855.91C2488.09 1863.73 2489.31 1870.31 2491.74 1875.67C2494.2 1880.99 2497.56 1885.01 2501.82 1887.74C2506.11 1890.44 2511.01 1891.78 2516.53 1891.78C2519.59 1891.78 2522.45 1891.38 2525.12 1890.58C2527.81 1889.75 2530.22 1888.54 2532.35 1886.94C2534.51 1885.35 2536.33 1883.38 2537.79 1881.06C2539.29 1878.73 2540.32 1876.07 2540.88 1873.07L2559.54 1873.17C2558.84 1878.03 2557.33 1882.59 2555 1886.84C2552.71 1891.1 2549.7 1894.86 2545.97 1898.12C2542.25 1901.35 2537.89 1903.87 2532.9 1905.7C2527.91 1907.5 2522.37 1908.4 2516.28 1908.4C2507.3 1908.4 2499.29 1906.32 2492.24 1902.16C2485.18 1898 2479.63 1892 2475.57 1884.15C2471.51 1876.3 2469.48 1866.89 2469.48 1855.91C2469.48 1844.9 2471.53 1835.49 2475.62 1827.67C2479.71 1819.82 2485.28 1813.81 2492.34 1809.66C2499.39 1805.5 2507.37 1803.42 2516.28 1803.42C2521.97 1803.42 2527.26 1804.22 2532.15 1805.82C2537.04 1807.41 2541.4 1809.76 2545.22 1812.85C2549.05 1815.91 2552.19 1819.67 2554.65 1824.13C2557.15 1828.55 2558.78 1833.61 2559.54 1839.29Z" fill="black"/>
</g>
</g>
</g>
</g>
<g id="D-Pad_2_">
<g id="Shape_2_copy_4">
<g id="Group_33">
<path id="Vector_33" d="M1315.52 2173.84C1492.47 2173.84 1635.93 2031.86 1635.93 1856.71C1635.93 1681.56 1492.47 1539.57 1315.52 1539.57C1138.56 1539.57 995.114 1681.56 995.114 1856.71C995.114 2031.86 1138.56 2173.84 1315.52 2173.84Z" fill="#246176"/>
</g>
</g>
<g id="Shape_2_copy_5">
<g id="Group_34">
<path id="Vector_34" d="M1315.52 2165.77C1487.97 2165.77 1627.77 2027.4 1627.77 1856.71C1627.77 1686.02 1487.97 1547.64 1315.52 1547.64C1143.07 1547.64 1003.27 1686.02 1003.27 1856.71C1003.27 2027.4 1143.07 2165.77 1315.52 2165.77Z" fill="#209DB9"/>
</g>
</g>
<g id="Shape_4">
<g id="Group_35">
<path id="Vector_35" d="M1398.61 1781.77V1616.92H1234.86L1234.95 1779.34H1076.33V1935.71L1233.82 1936.92L1233.91 2101.77H1396.33L1397.55 1934.49L1559.67 1933.28V1781.77H1398.61Z" fill="black"/>
</g>
</g>
<g id="Dpad">
<g id="Group_36">
<path id="Vector_36" d="M1389.88 1790.82V1627.42H1243.26L1243.42 1788.54H1085.12V1927.35L1243.18 1928.49L1243.34 2091.27H1387.24L1388.71 1926.22L1549.21 1925.08V1790.82H1389.88Z" fill="#EAEAEA"/>
</g>
</g>
<rect id="Dpad_Right" x="1390.06" y="1790.83" width="159" height="134" fill="#EAEAEA"/>
<rect id="Dpad_Left" x="1085.06" y="1786.83" width="159" height="143" fill="#EAEAEA"/>
<rect id="Dpad_Up" x="1244.06" y="1627.83" width="146" height="159" fill="#EAEAEA"/>
<rect id="Dpad_Down" x="1244.06" y="1931.83" width="146" height="159" fill="#EAEAEA"/>
<g id="Shape_5">
<g id="Group_37">
<path id="Vector_37" d="M1316.36 1659.9L1267.71 1741.83H1363.3L1316.36 1659.9Z" fill="#C7C7C7"/>
</g>
</g>
<g id="Shape_5_copy">
<g id="Group_38">
<path id="Vector_38" d="M1267.71 1982.83L1316.36 2064.76L1363.3 1982.83H1267.71Z" fill="#C7C7C7"/>
</g>
</g>
<g id="Shape_5_copy_2">
<g id="Group_39">
<path id="Vector_39" d="M1113.09 1861.48L1195.01 1910.13V1814.55L1113.09 1861.48Z" fill="#C7C7C7"/>
</g>
</g>
<g id="Shape_5_copy_3">
<g id="Group_40">
<path id="Vector_40" d="M1436.01 1814.55V1910.13L1517.94 1861.48L1436.01 1814.55Z" fill="#C7C7C7"/>
</g>
</g>
<g id="Shape_17">
<g id="Group_41">
<path id="Vector_41" d="M1315.96 1907.89C1342.83 1907.89 1364.61 1886.11 1364.61 1859.24C1364.61 1832.38 1342.83 1810.6 1315.96 1810.6C1289.1 1810.6 1267.32 1832.38 1267.32 1859.24C1267.32 1886.11 1289.1 1907.89 1315.96 1907.89Z" fill="#C7C7C7"/>
</g>
</g>
</g>
<g id="Shape_6_copy_1_">
<g id="Shape_6_copy">
<g id="Group_42">
<path id="Vector_42" d="M1915.06 1252.83C1966.42 1252.83 2008.06 1211.19 2008.06 1159.83C2008.06 1108.47 1966.42 1066.83 1915.06 1066.83C1863.7 1066.83 1822.06 1108.47 1822.06 1159.83C1822.06 1211.19 1863.7 1252.83 1915.06 1252.83Z" fill="black"/>
</g>
</g>
</g>
<g id="Button_Start">
<g id="Shape_6">
<g id="Group_43">
<path id="Vector_43" d="M1915.06 1241.83C1960.35 1241.83 1997.06 1205.12 1997.06 1159.83C1997.06 1114.54 1960.35 1077.83 1915.06 1077.83C1869.77 1077.83 1833.06 1114.54 1833.06 1159.83C1833.06 1205.12 1869.77 1241.83 1915.06 1241.83Z" fill="#EAEAEA"/>
</g>
</g>
</g>
<g id="START_x2F_PAUSE">
<path id="START/PAUSE" d="M1708.55 979.505C1708.25 976.499 1706.92 974.109 1704.57 972.334C1702.21 970.558 1699.25 969.671 1695.68 969.671C1693.17 969.671 1690.96 970.101 1689.04 970.963C1687.14 971.824 1685.65 973.019 1684.56 974.548C1683.49 976.06 1682.95 977.782 1682.95 979.716C1682.95 981.139 1683.26 982.387 1683.87 983.459C1684.49 984.531 1685.31 985.454 1686.35 986.228C1687.41 986.983 1688.57 987.634 1689.83 988.178C1691.11 988.723 1692.41 989.18 1693.71 989.549L1699.4 991.184C1701.12 991.659 1702.85 992.265 1704.57 993.003C1706.29 993.741 1707.86 994.673 1709.29 995.798C1710.73 996.905 1711.88 998.267 1712.74 999.884C1713.62 1001.48 1714.06 1003.41 1714.06 1005.66C1714.06 1008.54 1713.31 1011.13 1711.82 1013.44C1710.32 1015.74 1708.18 1017.57 1705.39 1018.92C1702.59 1020.25 1699.24 1020.92 1695.34 1020.92C1691.67 1020.92 1688.48 1020.32 1685.77 1019.1C1683.06 1017.87 1680.94 1016.18 1679.39 1014.02C1677.84 1011.85 1676.97 1009.35 1676.78 1006.5H1681.84C1682.02 1008.63 1682.72 1010.43 1683.95 1011.91C1685.18 1013.38 1686.78 1014.51 1688.75 1015.28C1690.72 1016.04 1692.92 1016.41 1695.34 1016.41C1698.03 1016.41 1700.42 1015.97 1702.51 1015.07C1704.62 1014.16 1706.27 1012.89 1707.47 1011.27C1708.68 1009.64 1709.29 1007.74 1709.29 1005.58C1709.29 1003.75 1708.81 1002.22 1707.86 1000.99C1706.91 999.744 1705.59 998.698 1703.88 997.854C1702.2 997.01 1700.24 996.263 1698 995.613L1691.54 993.715C1687.31 992.449 1684.02 990.701 1681.68 988.468C1679.35 986.236 1678.18 983.389 1678.18 979.926C1678.18 977.026 1678.95 974.478 1680.5 972.281C1682.06 970.066 1684.17 968.344 1686.83 967.114C1689.5 965.866 1692.49 965.242 1695.82 965.242C1699.17 965.242 1702.14 965.857 1704.73 967.087C1707.31 968.317 1709.36 970.014 1710.87 972.175C1712.4 974.32 1713.22 976.763 1713.32 979.505H1708.55ZM1722.65 970.435V966.006H1761.81V970.435H1744.69V1020H1739.76V970.435H1722.65ZM1766.68 1020H1761.51L1781.15 966.006H1786.42L1806.06 1020H1800.9L1783.97 972.413H1783.6L1766.68 1020ZM1770.39 999.304H1797.18V1003.73H1770.39V999.304ZM1815.32 1020V966.006H1832.74C1836.58 966.006 1839.77 966.7 1842.34 968.089C1844.92 969.46 1846.87 971.367 1848.17 973.81C1849.49 976.235 1850.14 979.021 1850.14 982.167C1850.14 985.314 1849.49 988.091 1848.17 990.499C1846.87 992.906 1844.93 994.787 1842.37 996.14C1839.8 997.494 1836.62 998.17 1832.82 998.17H1817.98V993.662H1832.69C1835.5 993.662 1837.84 993.196 1839.7 992.265C1841.59 991.333 1842.98 990.006 1843.9 988.284C1844.83 986.561 1845.29 984.523 1845.29 982.167C1845.29 979.812 1844.83 977.756 1843.9 975.998C1842.96 974.223 1841.56 972.852 1839.68 971.885C1837.82 970.919 1835.46 970.435 1832.61 970.435H1820.25V1020H1815.32ZM1839.12 995.64L1852.41 1020H1846.72L1833.56 995.64H1839.12ZM1858.88 970.435V966.006H1898.04V970.435H1880.92V1020H1875.99V970.435H1858.88ZM1919.82 963.475L1902.42 1028.12H1898.02L1915.42 963.475H1919.82ZM1928.93 1020V966.006H1946.35C1950.19 966.006 1953.38 966.744 1955.95 968.221C1958.53 969.68 1960.48 971.666 1961.78 974.179C1963.1 976.692 1963.75 979.522 1963.75 982.668C1963.75 985.814 1963.1 988.653 1961.8 991.184C1960.5 993.697 1958.57 995.692 1956 997.169C1953.44 998.627 1950.25 999.357 1946.43 999.357H1932.72V994.928H1946.3C1949.13 994.928 1951.48 994.4 1953.34 993.346C1955.2 992.274 1956.59 990.815 1957.51 988.969C1958.44 987.124 1958.9 985.024 1958.9 982.668C1958.9 980.313 1958.44 978.213 1957.51 976.367C1956.59 974.522 1955.19 973.072 1953.31 972.017C1951.45 970.963 1949.09 970.435 1946.22 970.435H1933.86V1020H1928.93ZM1969.9 1020H1964.73L1984.37 966.006H1989.64L2009.29 1020H2004.12L1987.19 972.413H1986.82L1969.9 1020ZM1973.61 999.304H2000.4V1003.73H1973.61V999.304ZM2054.53 966.006H2059.46V1001.76C2059.46 1005.43 2058.6 1008.72 2056.87 1011.62C2055.15 1014.5 2052.75 1016.77 2049.68 1018.44C2046.62 1020.1 2043.06 1020.92 2039 1020.92C2034.96 1020.92 2031.4 1020.09 2028.32 1018.42C2025.24 1016.75 2022.85 1014.47 2021.12 1011.59C2019.4 1008.71 2018.54 1005.43 2018.54 1001.76V966.006H2023.47V1001.41C2023.47 1004.28 2024.11 1006.84 2025.39 1009.09C2026.68 1011.32 2028.48 1013.08 2030.8 1014.36C2033.14 1015.64 2035.87 1016.28 2039 1016.28C2042.13 1016.28 2044.86 1015.64 2047.2 1014.36C2049.53 1013.08 2051.34 1011.32 2052.6 1009.09C2053.88 1006.84 2054.53 1004.28 2054.53 1001.41V966.006ZM2103.1 979.505C2102.8 976.499 2101.48 974.109 2099.12 972.334C2096.77 970.558 2093.8 969.671 2090.24 969.671C2087.72 969.671 2085.51 970.101 2083.59 970.963C2081.69 971.824 2080.2 973.019 2079.11 974.548C2078.04 976.06 2077.5 977.782 2077.5 979.716C2077.5 981.139 2077.81 982.387 2078.43 983.459C2079.04 984.531 2079.87 985.454 2080.9 986.228C2081.96 986.983 2083.12 987.634 2084.38 988.178C2085.67 988.723 2086.96 989.18 2088.26 989.549L2093.95 991.184C2095.68 991.659 2097.4 992.265 2099.12 993.003C2100.84 993.741 2102.42 994.673 2103.84 995.798C2105.28 996.905 2106.43 998.267 2107.29 999.884C2108.17 1001.48 2108.61 1003.41 2108.61 1005.66C2108.61 1008.54 2107.87 1011.13 2106.37 1013.44C2104.88 1015.74 2102.73 1017.57 2099.94 1018.92C2097.14 1020.25 2093.8 1020.92 2089.89 1020.92C2086.22 1020.92 2083.03 1020.32 2080.32 1019.1C2077.62 1017.87 2075.49 1016.18 2073.94 1014.02C2072.4 1011.85 2071.53 1009.35 2071.33 1006.5H2076.4C2076.57 1008.63 2077.27 1010.43 2078.5 1011.91C2079.73 1013.38 2081.33 1014.51 2083.3 1015.28C2085.27 1016.04 2087.47 1016.41 2089.89 1016.41C2092.58 1016.41 2094.97 1015.97 2097.06 1015.07C2099.17 1014.16 2100.83 1012.89 2102.02 1011.27C2103.23 1009.64 2103.84 1007.74 2103.84 1005.58C2103.84 1003.75 2103.37 1002.22 2102.42 1000.99C2101.47 999.744 2100.14 998.698 2098.44 997.854C2096.75 997.01 2094.79 996.263 2092.56 995.613L2086.1 993.715C2081.86 992.449 2078.57 990.701 2076.24 988.468C2073.9 986.236 2072.73 983.389 2072.73 979.926C2072.73 977.026 2073.5 974.478 2075.05 972.281C2076.62 970.066 2078.72 968.344 2081.38 967.114C2084.05 965.866 2087.05 965.242 2090.37 965.242C2093.73 965.242 2096.7 965.857 2099.28 967.087C2101.86 968.317 2103.91 970.014 2105.42 972.175C2106.95 974.32 2107.77 976.763 2107.87 979.505H2103.1ZM2120.48 1020V966.006H2151.8V970.435H2125.41V990.762H2150.14V995.191H2125.41V1015.57H2152.32V1020H2120.48Z" fill="white"/>
</g>
<g id="Face_Buttons_1_">
<g id="Shape_2_copy_2">
<g id="Group_44">
<path id="Vector_44" d="M3092.49 1462.22C3354.97 1462.22 3567.76 1251.61 3567.76 991.81C3567.76 732.006 3354.97 521.395 3092.49 521.395C2830.01 521.395 2617.22 732.006 2617.22 991.81C2617.22 1251.61 2830.01 1462.22 3092.49 1462.22Z" fill="#246176"/>
</g>
</g>
<g id="Shape_2_copy_3">
<g id="Group_45">
<path id="Vector_45" d="M3092.49 1450.25C3348.29 1450.25 3555.65 1245 3555.65 991.808C3555.65 738.62 3348.29 533.371 3092.49 533.371C2836.69 533.371 2629.33 738.62 2629.33 991.808C2629.33 1245 2836.69 1450.25 3092.49 1450.25Z" fill="#209DB9"/>
</g>
</g>
<g id="Shape_7_copy">
<g id="Group_46">
<path id="Vector_46" d="M3097.06 1223.83C3229.61 1223.83 3337.06 1116.38 3337.06 983.828C3337.06 851.28 3229.61 743.828 3097.06 743.828C2964.51 743.828 2857.06 851.28 2857.06 983.828C2857.06 1116.38 2964.51 1223.83 3097.06 1223.83Z" fill="black"/>
</g>
</g>
<g id="Button_A">
<path id="Vector_47" d="M3097.06 1208C3220.77 1208 3321.06 1107.71 3321.06 984C3321.06 860.288 3220.77 760 3097.06 760C2973.35 760 2873.06 860.288 2873.06 984C2873.06 1107.71 2973.35 1208 3097.06 1208Z" fill="#00BC8E"/>
<g id="A">
<path id="A_2" d="M3060.6 1051H3034.59L3081.95 916.49H3112.03L3159.45 1051H3133.44L3097.51 944.075H3096.46L3060.6 1051ZM3061.46 998.26H3132.39V1017.83H3061.46V998.26Z" fill="black"/>
</g>
</g>
<g id="Shape_8">
<g id="Group_47">
<path id="Vector_48" d="M2657.06 1363.83C2738.8 1363.83 2805.06 1297.57 2805.06 1215.83C2805.06 1134.09 2738.8 1067.83 2657.06 1067.83C2575.32 1067.83 2509.06 1134.09 2509.06 1215.83C2509.06 1297.57 2575.32 1363.83 2657.06 1363.83Z" fill="black"/>
</g>
</g>
<g id="Button_B">
<g id="Shape_8_copy">
<g id="Group_48">
<path id="Vector_49" d="M2657.06 1346C2728.86 1346 2787.06 1287.8 2787.06 1216C2787.06 1144.2 2728.86 1086 2657.06 1086C2585.26 1086 2527.06 1144.2 2527.06 1216C2527.06 1287.8 2585.26 1346 2657.06 1346Z" fill="#FF0000"/>
</g>
</g>
<g id="B">
<path id="B_2" d="M2620.25 1268V1164.74H2659.77C2667.24 1164.74 2673.44 1165.92 2678.38 1168.27C2683.35 1170.59 2687.07 1173.77 2689.52 1177.8C2692.01 1181.83 2693.25 1186.41 2693.25 1191.51C2693.25 1195.72 2692.45 1199.31 2690.83 1202.3C2689.22 1205.26 2687.05 1207.67 2684.33 1209.51C2681.61 1211.36 2678.56 1212.69 2675.2 1213.5V1214.51C2678.87 1214.71 2682.38 1215.83 2685.74 1217.88C2689.14 1219.9 2691.91 1222.76 2694.06 1226.45C2696.21 1230.15 2697.29 1234.62 2697.29 1239.87C2697.29 1245.21 2695.99 1250.02 2693.4 1254.29C2690.82 1258.52 2686.92 1261.87 2681.71 1264.32C2676.5 1266.77 2669.94 1268 2662.04 1268H2620.25ZM2638.95 1252.37H2659.07C2665.86 1252.37 2670.75 1251.08 2673.74 1248.49C2676.77 1245.87 2678.28 1242.5 2678.28 1238.4C2678.28 1235.35 2677.52 1232.59 2676.01 1230.14C2674.5 1227.65 2672.35 1225.7 2669.56 1224.29C2666.77 1222.84 2663.44 1222.12 2659.57 1222.12H2638.95V1252.37ZM2638.95 1208.66H2657.46C2660.68 1208.66 2663.59 1208.07 2666.18 1206.89C2668.77 1205.68 2670.8 1203.98 2672.28 1201.8C2673.79 1199.58 2674.55 1196.96 2674.55 1193.93C2674.55 1189.93 2673.14 1186.64 2670.31 1184.05C2667.52 1181.46 2663.37 1180.17 2657.86 1180.17H2638.95V1208.66Z" fill="black"/>
</g>
</g>
<g id="Shape_10">
<g id="Group_49">
<path id="Vector_50" d="M2895.06 493.828C2855.06 511.828 2679.06 601.828 2755.06 709.828C2849.06 809.828 2901.06 707.828 2981.06 669.828C3085.06 629.828 3191.06 687.828 3191.06 551.828C3183.06 423.828 2935.06 475.828 2895.06 493.828Z" fill="black"/>
</g>
</g>
<g id="Shape_10_copy_3">
<g id="Group_50">
<path id="Vector_51" d="M3599.51 785.546C3581.51 745.546 3491.51 569.546 3383.51 645.546C3283.51 739.546 3385.51 791.546 3423.51 871.546C3463.51 975.546 3405.51 1081.55 3541.51 1081.55C3669.51 1073.55 3617.51 825.546 3599.51 785.546Z" fill="black"/>
</g>
</g>
<g id="Button_Y">
<g id="Shape_10_copy">
<g id="Group_51">
<path id="Vector_52" d="M3176.41 552.508C3167.52 440.112 2939.77 490.2 2902.5 507.023C2865.24 523.846 2695.43 603.921 2767.83 701.184C2851.03 787.209 2904.47 690.006 2978.97 654.543C3075.93 616.984 3179.85 670.327 3176.41 552.508Z" fill="#EAEAEA"/>
</g>
</g>
<g id="Y">
<path id="Y_2" d="M2919.19 528.742H2940.31L2965.57 574.422H2966.58L2991.84 528.742H3012.97L2975.4 593.48V632H2956.75V593.48L2919.19 528.742Z" fill="black"/>
</g>
</g>
<g id="Button_X">
<g id="Shape_10_copy_4">
<g id="Group_52">
<path id="Vector_53" d="M3586.32 792.44C3569.5 755.176 3489.42 585.367 3392.16 657.77C3306.13 740.972 3403.34 794.406 3438.8 868.911C3476.36 965.873 3423.02 1069.79 3540.83 1066.35C3653.23 1057.46 3603.14 829.704 3586.32 792.44Z" fill="#EAEAEA"/>
</g>
</g>
<g id="X">
<path id="X_2" d="M3498.58 802.742L3521.32 840.556H3522.12L3544.96 802.742H3566.29L3534.47 854.371L3566.79 906H3545.11L3522.12 868.438H3521.32L3498.32 906H3476.74L3509.37 854.371L3477.15 802.742H3498.58Z" fill="black"/>
</g>
</g>
</g>
<path id="GCN" opacity="0.2" d="M1745.68 411.491C1743.91 405.739 1741.46 400.589 1738.33 396.044C1735.28 391.428 1731.59 387.486 1727.25 384.219C1722.99 380.952 1718.09 378.501 1712.55 376.868C1707.01 375.163 1700.98 374.311 1694.44 374.311C1682.72 374.311 1672.28 377.259 1663.12 383.153C1653.96 389.048 1646.75 397.713 1641.49 409.148C1636.31 420.511 1633.72 434.361 1633.72 450.696C1633.72 467.173 1636.31 481.129 1641.49 492.564C1646.68 503.999 1653.89 512.699 1663.12 518.665C1672.35 524.56 1683.08 527.507 1695.29 527.507C1706.37 527.507 1715.96 525.376 1724.06 521.115C1732.23 516.854 1738.51 510.817 1742.91 503.004C1747.32 495.121 1749.52 485.888 1749.52 475.305L1758.47 476.69H1699.24V445.795H1787.77V472.003C1787.77 490.682 1783.79 506.839 1775.83 520.476C1767.88 534.112 1756.94 544.624 1743.02 552.01C1729.1 559.325 1713.12 562.983 1695.08 562.983C1674.98 562.983 1657.33 558.473 1642.13 549.453C1627.01 540.362 1615.18 527.472 1606.66 510.781C1598.21 494.02 1593.98 474.134 1593.98 451.122C1593.98 433.509 1596.47 417.777 1601.44 403.928C1606.48 390.078 1613.51 378.324 1622.53 368.665C1631.55 358.935 1642.13 351.548 1654.28 346.506C1666.42 341.392 1679.63 338.835 1693.91 338.835C1705.98 338.835 1717.24 340.611 1727.68 344.162C1738.12 347.642 1747.39 352.614 1755.49 359.077C1763.65 365.54 1770.37 373.21 1775.62 382.088C1780.88 390.966 1784.32 400.767 1785.95 411.491H1745.68ZM2012.74 415.433H1972.9C1971.76 408.899 1969.66 403.111 1966.61 398.068C1963.56 392.955 1959.76 388.622 1955.21 385.071C1950.67 381.52 1945.48 378.857 1939.66 377.081C1933.9 375.234 1927.69 374.311 1921.01 374.311C1909.15 374.311 1898.64 377.294 1889.48 383.26C1880.32 389.155 1873.14 397.82 1867.96 409.254C1862.77 420.618 1860.18 434.503 1860.18 450.909C1860.18 467.599 1862.77 481.662 1867.96 493.097C1873.21 504.46 1880.39 513.054 1889.48 518.878C1898.64 524.631 1909.12 527.507 1920.91 527.507C1927.44 527.507 1933.55 526.655 1939.23 524.95C1944.98 523.175 1950.13 520.582 1954.68 517.173C1959.29 513.764 1963.17 509.574 1966.29 504.602C1969.49 499.631 1971.69 493.949 1972.9 487.557L2012.74 487.77C2011.25 498.139 2008.02 507.869 2003.04 516.96C1998.14 526.051 1991.72 534.077 1983.76 541.037C1975.81 547.926 1966.5 553.324 1955.85 557.23C1945.2 561.065 1933.37 562.983 1920.37 562.983C1901.2 562.983 1884.08 558.544 1869.02 549.666C1853.97 540.788 1842.11 527.969 1833.44 511.207C1824.78 494.446 1820.44 474.347 1820.44 450.909C1820.44 427.401 1824.81 407.301 1833.55 390.611C1842.28 373.849 1854.18 361.03 1869.24 352.152C1884.29 343.274 1901.34 338.835 1920.37 338.835C1932.52 338.835 1943.81 340.54 1954.25 343.949C1964.69 347.358 1974 352.365 1982.16 358.97C1990.33 365.504 1997.04 373.53 2002.3 383.047C2007.63 392.493 2011.11 403.288 2012.74 415.433ZM2228.23 341.818V560H2193.07L2090.27 411.385H2088.46V560H2048.93V341.818H2084.3L2187 490.54H2188.92V341.818H2228.23Z" fill="white"/>
</g>
</svg>
