<svg width="148" height="122" viewBox="0 0 148 122" fill="none" xmlns="http://www.w3.org/2000/svg">
<g id="pro_controller_gray">
<g id="Group">
<g id="Group_2">
<path id="Vector" d="M53.6514 21.9035L51.292 22.1066L54.2981 23.4951L81.8525 23.296L95.7289 23.4951L97.5576 22.7316L99.1554 22.0031L91.0889 21.5753L61.8701 21.5439L53.6514 21.9035Z" fill="#898989"/>
<path id="Vector_2" d="M103 90.5981C104.294 90.5981 105.596 90.5741 106.887 90.6901C108.063 90.7955 109.254 91.0875 110.254 91.7395C111.362 92.4635 112.21 93.5008 112.952 94.5795C113.756 95.7461 114.428 96.9981 115.07 98.2595C116.432 100.937 117.666 103.678 119.048 106.347C120.16 108.498 121.296 110.647 122.556 112.717C123.782 114.725 125.14 116.677 127.079 118.054C129.083 119.475 131.527 120.237 133.986 120.07C136.592 119.895 139.087 118.731 141.086 117.081C144.787 114.025 146.428 109.325 146.727 104.65C146.915 101.709 146.687 98.7368 146.376 95.8088C146.13 93.4888 145.838 91.1635 145.458 88.8608C145.178 87.1581 144.896 85.4555 144.616 83.7541C144.126 80.7861 143.636 77.8195 143.144 74.8501C142.775 72.6115 142.406 70.3715 142.035 68.1301C141.546 65.1581 140.995 62.1928 140.419 59.2341C139.991 57.0461 139.532 54.8675 139.14 52.6728C138.64 49.8608 138.018 47.0595 137.324 44.2888C136.97 42.8608 136.579 41.4408 136.144 40.0355C135.924 39.3301 135.695 38.6288 135.45 37.9328C135.322 37.5701 135.191 37.2075 135.055 36.8448C134.926 36.5048 134.822 36.1688 134.6 35.8768C134.142 35.2688 133.684 34.6608 133.224 34.0515C132.986 33.7341 132.746 33.4181 132.51 33.1021C132.332 32.8675 132.115 32.5315 131.835 32.4075C130.736 31.9248 129.676 31.3661 128.642 30.7541C127.366 30.0008 126.112 29.2075 124.799 28.5181C123.496 27.8368 122.15 27.2408 120.768 26.7381C117.947 25.7115 115.004 25.0781 112.034 24.6648C108.974 24.2381 105.884 24.0088 102.803 23.8208C99.7149 23.6328 96.6216 23.5115 93.5296 23.4288C87.3603 23.2621 81.1869 23.2501 75.0149 23.2501C68.8416 23.2501 62.6683 23.2621 56.4989 23.4288C53.4056 23.5115 50.3136 23.6328 47.2256 23.8208C44.1416 24.0088 41.0536 24.2381 37.9936 24.6648C35.0256 25.0781 32.0803 25.7115 29.2589 26.7381C27.8789 27.2408 26.5309 27.8368 25.2296 28.5181C23.9163 29.2075 22.6629 30.0008 21.3856 30.7541C20.3536 31.3661 19.2923 31.9248 18.1936 32.4075C17.9136 32.5315 17.6949 32.8675 17.5203 33.1021C17.2803 33.4181 17.0429 33.7341 16.8043 34.0515C16.3456 34.6608 15.8856 35.2688 15.4256 35.8768C15.2056 36.1688 15.1003 36.5048 14.9736 36.8448C14.8376 37.2075 14.7069 37.5701 14.5789 37.9328C14.3349 38.6288 14.1029 39.3301 13.8843 40.0355C13.4469 41.4408 13.0589 42.8608 12.7016 44.2888C12.0123 47.0595 11.3883 49.8608 10.8869 52.6728C10.4949 54.8675 10.0363 57.0461 9.60961 59.2341C9.03228 62.1928 8.48294 65.1581 7.99094 68.1301C7.62161 70.3715 7.25228 72.6115 6.88161 74.8501C6.39228 77.8195 5.90294 80.7861 5.41361 83.7541C5.13227 85.4555 4.85095 87.1581 4.56961 88.8608C4.18961 91.1635 3.89761 93.4888 3.65228 95.8088C3.34161 98.7368 3.11361 101.709 3.30161 104.65C3.59761 109.325 5.24161 114.025 8.94161 117.081C10.9403 118.731 13.4349 119.895 16.0403 120.07C18.5016 120.237 20.9443 119.475 22.9469 118.054C24.8883 116.677 26.2469 114.725 27.4709 112.717C28.7336 110.647 29.8656 108.498 30.9803 106.347C32.3616 103.678 33.5949 100.937 34.9589 98.2595C35.6003 96.9981 36.2723 95.7461 37.0749 94.5795C37.8189 93.5008 38.6656 92.4635 39.7749 91.7395C40.7749 91.0875 41.9656 90.7955 43.1416 90.6901C44.4309 90.5741 45.7336 90.5981 47.0283 90.5981H103Z" fill="#898989" stroke="#231916" stroke-width="0.466667" stroke-linecap="round" stroke-linejoin="round"/>
</g>
<g id="Group_3">
<path id="Vector_3" d="M93.9118 79.2354C88.9025 79.2354 84.8398 75.174 84.8398 70.1634C84.8398 65.1554 88.9025 61.0927 93.9118 61.0927C98.9212 61.0927 102.983 65.1554 102.983 70.1634C102.983 75.174 98.9212 79.2354 93.9118 79.2354Z" fill="#DCDDDD"/>
<path id="Vector_4" d="M35.3298 59.3936C30.3191 59.3936 26.2578 55.3309 26.2578 50.3216C26.2578 45.3109 30.3191 41.2509 35.3298 41.2509C40.3391 41.2509 44.4005 45.3109 44.4005 50.3216C44.4005 55.3309 40.3391 59.3936 35.3298 59.3936Z" fill="#DCDDDD"/>
<path id="Vector_5" d="M56.239 74.067C56.239 73.987 56.2723 73.8723 56.3177 73.807C56.419 73.6537 56.5297 73.5937 56.7137 73.595C58.5563 73.595 60.403 73.5977 62.2483 73.6003C62.875 73.603 63.3817 73.095 63.3817 72.4697V70.163V67.859C63.3817 67.231 62.875 66.7243 62.2483 66.7257C60.403 66.7283 58.5563 66.731 56.7137 66.7337C56.451 66.7337 56.239 66.523 56.239 66.2617C56.2417 64.4163 56.2443 62.571 56.247 60.7257C56.2497 60.099 55.7417 59.591 55.115 59.591C53.5777 59.5923 52.0417 59.5923 50.5043 59.591C49.8777 59.591 49.371 60.099 49.3723 60.7257C49.375 62.571 49.3777 64.4163 49.3803 66.2617C49.3803 66.455 49.315 66.5697 49.1483 66.6683C49.0857 66.7057 48.9803 66.7337 48.907 66.7337C47.0617 66.731 45.2163 66.7283 43.3723 66.7257C42.7443 66.7243 42.2363 67.231 42.2363 67.859V70.163V72.4697C42.2363 73.095 42.7443 73.603 43.3723 73.6003C45.2163 73.5977 47.0617 73.595 48.907 73.595C49.091 73.5937 49.2003 73.6537 49.3017 73.807C49.3457 73.8723 49.3803 73.987 49.3803 74.067C49.3777 75.911 49.375 77.7577 49.3723 79.6017C49.371 80.2283 49.8777 80.7363 50.5043 80.7363H55.115C55.7417 80.7363 56.2497 80.2283 56.247 79.6017C56.2443 77.7577 56.2417 75.911 56.239 74.067Z" fill="#666565"/>
<rect id="Dpad_Left" x="42" y="66.9004" width="7.5" height="6.6" rx="1" fill="#666565"/>
<rect id="Dpad_Right" x="56" y="66.9004" width="7.5" height="6.6" rx="1" fill="#666565"/>
<rect id="Dpad_Up" x="49.25" y="59.7998" width="7" height="6.6" rx="1" fill="#666565"/>
<rect id="Dpad_Down" x="49.25" y="74" width="7" height="6.6" rx="1" fill="#666565"/>
<path id="Button_X" d="M107.116 50.3221C107.116 53.2567 104.736 55.6367 101.801 55.6367C98.8667 55.6367 96.4854 53.2567 96.4854 50.3221C96.4854 47.3861 98.8667 45.0074 101.801 45.0074C104.736 45.0074 107.116 47.3861 107.116 50.3221Z" fill="#666565"/>
<path id="Button_A" d="M107.73 60.0545C107.73 62.9891 110.11 65.3691 113.045 65.3691C115.98 65.3691 118.361 62.9891 118.361 60.0545C118.361 57.1198 115.98 54.7398 113.045 54.7398C110.11 54.7398 107.73 57.1198 107.73 60.0545Z" fill="#666565"/>
<path id="Button_B" d="M118.976 50.3221C118.976 47.3861 121.354 45.0074 124.289 45.0074C127.225 45.0074 129.605 47.3861 129.605 50.3221C129.605 53.2567 127.225 55.6367 124.289 55.6367C121.354 55.6367 118.976 53.2567 118.976 50.3221Z" fill="#666565"/>
<path id="Button_Y" d="M118.361 40.5896C118.361 43.5256 115.981 45.9043 113.046 45.9043C110.112 45.9043 107.73 43.5256 107.73 40.5896C107.73 37.6536 110.112 35.275 113.046 35.275C115.981 35.275 118.361 37.6536 118.361 40.5896Z" fill="#666565"/>
<path id="Vector_6" d="M61.9512 52.2347V48.408C61.9512 47.8854 62.3738 47.4627 62.8965 47.4627H66.7232C67.2445 47.4627 67.6685 47.8854 67.6685 48.408V52.2347C67.6685 52.7574 67.2445 53.1787 66.7232 53.1787H62.8965C62.3738 53.1787 61.9512 52.7574 61.9512 52.2347Z" fill="#666565"/>
<path id="Button_Start" d="M89.5654 39.4556C89.5654 37.6809 91.0028 36.2449 92.7774 36.2449C94.5521 36.2449 95.9908 37.6809 95.9908 39.4556C95.9908 41.2303 94.5521 42.6689 92.7774 42.6689C91.0028 42.6689 89.5654 41.2303 89.5654 39.4556Z" fill="#666565"/>
<path id="Button_Select" d="M54.0381 39.4556C54.0381 37.6809 55.4768 36.2449 57.2501 36.2449C59.0234 36.2449 60.4621 37.6809 60.4621 39.4556C60.4621 41.2303 59.0234 42.6689 57.2501 42.6689C55.4768 42.6689 54.0381 41.2303 54.0381 39.4556Z" fill="#666565"/>
<path id="Vector_7" d="M88.4318 50.3222C88.4318 52.0955 86.9945 53.5342 85.2185 53.5342C83.4451 53.5342 82.0078 52.0955 82.0078 50.3222C82.0078 48.5475 83.4451 47.1075 85.2185 47.1075C86.9945 47.1075 88.4318 48.5475 88.4318 50.3222Z" fill="#666565"/>
<path id="Vector_8" d="M112.371 61.4109H112.996C113.483 61.4109 113.907 61.2282 113.907 60.7682C113.907 60.3322 113.595 60.1162 113.058 60.1162H112.371V61.4109ZM112.371 59.8415H113.048C113.371 59.8415 113.748 59.7029 113.748 59.2629C113.748 58.8429 113.39 58.6842 112.954 58.6842H112.371V59.8415ZM112.035 58.3935H113.019C113.524 58.3935 114.084 58.5762 114.084 59.2389C114.084 59.5855 113.851 59.8695 113.502 59.9495V59.9575C113.931 60.0042 114.248 60.3042 114.248 60.7855C114.248 61.3362 113.778 61.7002 113.014 61.7002H112.035V58.3935Z" fill="white"/>
<path id="Vector_9" d="M123.559 50.6039H125.015L124.287 48.8479L123.559 50.6039ZM123.072 51.7812H122.703L124.134 48.4732H124.46L125.879 51.7812H125.507L125.143 50.9106H123.431L123.072 51.7812Z" fill="white"/>
<path id="Vector_10" d="M113.053 40.2653L113.956 38.9293H114.359L113.259 40.504L114.473 42.2373H114.053L113.045 40.7466L112.04 42.2373H111.62L112.835 40.5L111.728 38.9293H112.147L113.053 40.2653Z" fill="white"/>
<path id="Vector_11" d="M101.972 51.9678H101.635V50.5438L100.397 48.6611H100.819L101.813 50.2638L102.817 48.6611H103.211L101.972 50.5438V51.9678Z" fill="white"/>
<path id="Button_ZL" d="M18.5994 32.225C19.554 31.7864 20.4807 31.2917 21.386 30.7544C22.6634 30.001 23.9154 29.2077 25.23 28.5197C26.5314 27.837 27.8794 27.2424 29.2594 26.7397C32.0794 25.7117 35.0247 25.0797 37.994 24.665C41.054 24.2397 44.142 24.009 47.226 23.821C49.5807 23.6784 51.9394 23.5744 54.298 23.4957C53.022 22.937 50.2047 21.7104 48.9234 21.161L48.9207 21.1597C48.8447 21.1264 48.7674 21.093 48.69 21.0597L48.686 21.0584C47.5874 20.5864 46.5274 20.221 45.2914 20.2344C44.7394 20.241 43.774 20.2904 43.2234 20.3317C40.9234 20.5077 38.638 20.7584 36.358 21.109C35.7967 21.1944 35.2367 21.289 34.6767 21.389C32.9127 21.7037 31.186 22.085 29.4914 22.693C28.6607 22.989 27.2754 23.621 26.5074 24.057C24.8047 25.0224 23.2647 26.1464 21.8194 27.465C21.4727 27.7797 21.1874 28.1304 20.942 28.5277C20.9407 28.5264 20.9394 28.5264 20.9394 28.5264L20.942 28.5277C20.2967 29.557 19.2394 31.2104 18.582 32.2344L18.5994 32.225Z" fill="#666565"/>
<path id="Button_ZR" d="M131.427 32.225C130.473 31.7864 129.546 31.2917 128.641 30.7544C127.363 30.001 126.111 29.2077 124.797 28.5197C123.495 27.837 122.147 27.2424 120.767 26.7397C117.947 25.7117 115.002 25.0797 112.033 24.665C108.973 24.2397 105.885 24.009 102.801 23.821C100.446 23.6784 98.0872 23.5744 95.7285 23.4957C97.0045 22.937 99.8218 21.7104 101.103 21.161L101.106 21.1597C101.182 21.1264 101.259 21.093 101.337 21.0597L101.341 21.0584C102.439 20.5864 103.499 20.221 104.735 20.2344C105.289 20.241 106.253 20.2904 106.803 20.3317C109.103 20.5077 111.389 20.7584 113.669 21.109C114.23 21.1944 114.791 21.289 115.35 21.389C117.114 21.7037 118.841 22.085 120.535 22.693C121.366 22.989 122.751 23.621 123.519 24.057C125.222 25.0224 126.762 26.1464 128.207 27.465C128.554 27.7797 128.839 28.1304 129.085 28.5277C129.086 28.5264 129.087 28.5264 129.087 28.5264L129.085 28.5277C129.73 29.557 130.789 31.2104 131.445 32.2344L131.427 32.225Z" fill="#666565"/>
<path id="Vector_12" d="M52.9251 78.0342C52.8611 78.1462 52.7544 78.1462 52.6917 78.0342L51.8904 76.6462C51.8264 76.5368 51.8797 76.4462 52.0077 76.4462H53.6091C53.7371 76.4462 53.7891 76.5368 53.7237 76.6462L52.9251 78.0342Z" fill="white"/>
<path id="Vector_13" d="M52.6909 62.4543C52.7549 62.3437 52.8616 62.3437 52.9256 62.4543L53.7229 63.8397C53.7896 63.953 53.7362 64.041 53.6082 64.041H52.0069C51.8802 64.041 51.8269 63.953 51.8896 63.8397L52.6909 62.4543Z" fill="white"/>
<path id="Vector_14" d="M60.6811 70.0464C60.7905 70.1091 60.7905 70.2144 60.6811 70.2811L59.2931 71.0798C59.1811 71.1438 59.0918 71.0931 59.0918 70.9651V69.3624C59.0918 69.2344 59.1811 69.1824 59.2931 69.2438L60.6811 70.0464Z" fill="white"/>
<path id="Vector_15" d="M45.0967 70.278C44.9847 70.214 44.9847 70.1073 45.0967 70.046L46.4834 69.2446C46.594 69.1793 46.686 69.2326 46.686 69.3606V70.9633C46.686 71.09 46.594 71.1433 46.4834 71.0793L45.0967 70.278Z" fill="white"/>
<path id="Vector_16" d="M93.0588 41.0596H92.4735V39.7476H91.1602V39.1609H92.4735V37.8489H93.0588V39.1609H94.3708V39.7476H93.0588V41.0596Z" fill="#231916"/>
<path id="Vector_17" d="M58.8542 39.7738H55.6436V39.1885H58.8542V39.7738Z" fill="#231916"/>
<path id="Vector_18" d="M85.79 50.9937C85.79 51.0763 85.7566 51.1097 85.674 51.1097H84.7473C84.666 51.1097 84.6326 51.0763 84.6326 50.9937V50.299C84.6326 50.2163 84.666 50.183 84.7473 50.183H85.674C85.7526 50.183 85.786 50.215 85.79 50.2937V50.9937ZM87.0166 49.863C86.4393 49.3723 85.8633 48.8817 85.286 48.3923C85.2313 48.3457 85.19 48.3457 85.1353 48.3923C84.5593 48.8817 83.982 49.3723 83.406 49.863C83.302 49.9523 83.3433 50.067 83.4806 50.067H83.7033C83.786 50.067 83.8193 50.1003 83.8193 50.1843V51.6883C83.8193 51.7723 83.854 51.8057 83.9353 51.8057H86.486C86.5673 51.8057 86.6006 51.7723 86.6006 51.6883V50.1843C86.6006 50.1003 86.6353 50.067 86.718 50.067H86.9406C87.078 50.067 87.1206 49.9523 87.0166 49.863Z" fill="#231916"/>
<g id="Group_4">
<path id="Vector_19" d="M56.239 74.067C56.239 73.987 56.2723 73.8723 56.3177 73.807C56.419 73.6537 56.5297 73.5937 56.7137 73.595C58.5563 73.595 60.403 73.5977 62.2483 73.6003C62.875 73.603 63.3817 73.095 63.3817 72.4697V70.163V67.859C63.3817 67.231 62.875 66.7243 62.2483 66.7257C60.403 66.7283 58.5563 66.731 56.7137 66.7337C56.451 66.7337 56.239 66.523 56.239 66.2617C56.2417 64.4163 56.2443 62.571 56.247 60.7257C56.2497 60.099 55.7417 59.591 55.115 59.591C53.5777 59.5923 52.0417 59.5923 50.5043 59.591C49.8777 59.591 49.371 60.099 49.3723 60.7257C49.375 62.571 49.3777 64.4163 49.3803 66.2617C49.3803 66.455 49.315 66.5697 49.1483 66.6683C49.0857 66.7057 48.9803 66.7337 48.907 66.7337C47.0617 66.731 45.2163 66.7283 43.3723 66.7257C42.7443 66.7243 42.2363 67.231 42.2363 67.859V70.163V72.4697C42.2363 73.095 42.7443 73.603 43.3723 73.6003C45.2163 73.5977 47.0617 73.595 48.907 73.595C49.091 73.5937 49.2003 73.6537 49.3017 73.807C49.3457 73.8723 49.3803 73.987 49.3803 74.067C49.3777 75.911 49.375 77.7577 49.3723 79.6017C49.371 80.2283 49.8777 80.7363 50.5043 80.7363H55.115C55.7417 80.7363 56.2497 80.2283 56.247 79.6017C56.2443 77.7577 56.2417 75.911 56.239 74.067Z" stroke="#231916" stroke-width="0.466667" stroke-linecap="round" stroke-linejoin="round"/>
<path id="Vector_20" d="M80.7773 50.3221C80.7773 52.7741 82.7667 54.7607 85.2173 54.7607C87.6707 54.7607 89.66 52.7741 89.66 50.3221C89.66 47.8687 87.6707 45.8807 85.2173 45.8807C82.7667 45.8807 80.7773 47.8687 80.7773 50.3221Z" stroke="#231916" stroke-width="0.466667" stroke-linecap="round" stroke-linejoin="round"/>
<path id="Vector_21" d="M107.116 50.3221C107.116 53.2567 104.736 55.6367 101.801 55.6367C98.8667 55.6367 96.4854 53.2567 96.4854 50.3221C96.4854 47.3861 98.8667 45.0074 101.801 45.0074C104.736 45.0074 107.116 47.3861 107.116 50.3221Z" stroke="#231916" stroke-width="0.466667" stroke-linecap="round" stroke-linejoin="round"/>
<path id="Vector_22" d="M107.73 60.0545C107.73 62.9891 110.11 65.3691 113.045 65.3691C115.98 65.3691 118.361 62.9891 118.361 60.0545C118.361 57.1198 115.98 54.7398 113.045 54.7398C110.11 54.7398 107.73 57.1198 107.73 60.0545Z" stroke="#231916" stroke-width="0.466667" stroke-linecap="round" stroke-linejoin="round"/>
<path id="Vector_23" d="M118.976 50.3221C118.976 47.3861 121.354 45.0074 124.289 45.0074C127.225 45.0074 129.605 47.3861 129.605 50.3221C129.605 53.2567 127.225 55.6367 124.289 55.6367C121.354 55.6367 118.976 53.2567 118.976 50.3221Z" stroke="#231916" stroke-width="0.466667" stroke-linecap="round" stroke-linejoin="round"/>
<path id="Vector_24" d="M118.361 40.5896C118.361 43.5256 115.981 45.9043 113.046 45.9043C110.112 45.9043 107.73 43.5256 107.73 40.5896C107.73 37.6536 110.112 35.275 113.046 35.275C115.981 35.275 118.361 37.6536 118.361 40.5896Z" stroke="#231916" stroke-width="0.466667" stroke-linecap="round" stroke-linejoin="round"/>
<path id="Vector_25" d="M67.1709 47.5772V47.5879H67.1909" stroke="#231916" stroke-width="0.466667" stroke-linecap="round" stroke-linejoin="round"/>
<path id="Vector_26" d="M61.9512 52.2347V48.408C61.9512 47.8854 62.3738 47.4627 62.8965 47.4627H66.7232C67.2445 47.4627 67.6685 47.8854 67.6685 48.408V52.2347C67.6685 52.7574 67.2445 53.1787 66.7232 53.1787H62.8965C62.3738 53.1787 61.9512 52.7574 61.9512 52.2347Z" stroke="#231916" stroke-width="0.466667" stroke-linecap="round" stroke-linejoin="round"/>
<path id="Vector_27" d="M18.582 32.2334C19.238 31.2094 20.2967 29.5561 20.942 28.5267M20.942 28.5267L20.9394 28.5254C20.9394 28.5254 20.9407 28.5254 20.942 28.5267ZM20.942 28.5267C21.1874 28.1294 21.4727 27.7787 21.8194 27.4641C23.2647 26.1467 24.8047 25.0214 26.506 24.0561C27.2754 23.6201 28.6607 22.9881 29.4914 22.6921C31.186 22.0854 32.9127 21.7041 34.6754 21.3881C35.2354 21.2881 35.7967 21.1947 36.358 21.1081C38.638 20.7587 40.9234 20.5067 43.222 20.3307C43.774 20.2894 44.738 20.2401 45.29 20.2334C46.5274 20.2201 47.5874 20.5867 48.686 21.0574L48.69 21.0587C48.7674 21.0934 48.8434 21.1254 48.9207 21.1587L48.9234 21.1601C50.2047 21.7094 53.022 22.9361 54.298 23.4947" stroke="#231916" stroke-width="0.466667" stroke-linecap="round" stroke-linejoin="round"/>
<path id="Vector_28" d="M93.9118 79.2354C88.9025 79.2354 84.8398 75.174 84.8398 70.1634C84.8398 65.1554 88.9025 61.0927 93.9118 61.0927C98.9212 61.0927 102.983 65.1554 102.983 70.1634C102.983 75.174 98.9212 79.2354 93.9118 79.2354Z" stroke="#231916" stroke-width="0.466667" stroke-linecap="round" stroke-linejoin="round"/>
<path id="Vector_29" d="M89.5654 39.4556C89.5654 37.6809 91.0028 36.2449 92.7774 36.2449C94.5521 36.2449 95.9908 37.6809 95.9908 39.4556C95.9908 41.2303 94.5521 42.6689 92.7774 42.6689C91.0028 42.6689 89.5654 41.2303 89.5654 39.4556Z" stroke="#231916" stroke-width="0.466667" stroke-linecap="round" stroke-linejoin="round"/>
<path id="Vector_30" d="M54.0381 39.4556C54.0381 37.6809 55.4768 36.2449 57.2501 36.2449C59.0234 36.2449 60.4621 37.6809 60.4621 39.4556C60.4621 41.2303 59.0234 42.6689 57.2501 42.6689C55.4768 42.6689 54.0381 41.2303 54.0381 39.4556Z" stroke="#231916" stroke-width="0.466667" stroke-linecap="round" stroke-linejoin="round"/>
<path id="Vector_31" d="M88.4318 50.3222C88.4318 52.0955 86.9945 53.5342 85.2185 53.5342C83.4451 53.5342 82.0078 52.0955 82.0078 50.3222C82.0078 48.5475 83.4451 47.1075 85.2185 47.1075C86.9945 47.1075 88.4318 48.5475 88.4318 50.3222Z" stroke="#231916" stroke-width="0.466667" stroke-linecap="round" stroke-linejoin="round"/>
<path id="Vector_32" d="M35.3298 59.3936C30.3191 59.3936 26.2578 55.3309 26.2578 50.3216C26.2578 45.3109 30.3191 41.2509 35.3298 41.2509C40.3391 41.2509 44.4005 45.3109 44.4005 50.3216C44.4005 55.3309 40.3391 59.3936 35.3298 59.3936Z" stroke="#231916" stroke-width="0.466667" stroke-linecap="round" stroke-linejoin="round"/>
<path id="Vector_33" d="M10.9874 52.1169C10.9567 52.2862 11.0741 52.5542 11.1594 52.7502C11.2701 53.0022 11.3914 53.2462 11.5154 53.4916C11.8354 54.1249 12.1954 54.7382 12.5567 55.3489C13.3274 56.6529 14.1154 57.9502 14.9394 59.2209C16.6127 61.7996 18.3527 64.3329 20.1247 66.8436C23.6567 71.8502 27.3287 76.7596 31.0647 81.6169C32.4741 83.4529 33.8754 85.2969 35.4314 87.0129C36.1887 87.8489 36.9554 88.6782 37.7181 89.5102C38.0847 89.9116 38.4607 90.3076 38.8474 90.6902C39.0461 90.8849 39.2461 91.0782 39.4554 91.2609C39.5781 91.3716 39.8434 91.6396 39.9994 91.5982" stroke="#231916" stroke-width="0.466667" stroke-linecap="round" stroke-linejoin="round"/>
<path id="Vector_34" d="M131.445 32.2334C130.791 31.2094 129.731 29.5561 129.087 28.5267M129.087 28.5267L129.089 28.5254L129.087 28.5267ZM129.087 28.5267C128.841 28.1294 128.557 27.7787 128.21 27.4641C126.765 26.1467 125.223 25.0214 123.523 24.0561C122.754 23.6201 121.369 22.9881 120.535 22.6921C118.843 22.0854 117.114 21.7041 115.351 21.3881C114.791 21.2881 114.231 21.1947 113.669 21.1081C111.39 20.7587 109.105 20.5067 106.806 20.3307C106.254 20.2894 105.291 20.2401 104.738 20.2334C103.502 20.2201 102.442 20.5867 101.341 21.0574L101.338 21.0587C101.261 21.0934 101.185 21.1254 101.107 21.1587L101.103 21.1601C99.8218 21.7094 97.0072 22.9361 95.7285 23.4947" stroke="#231916" stroke-width="0.466667" stroke-linecap="round" stroke-linejoin="round"/>
<g id="Vector_35">
<path d="M99.1554 22.0029C92.9527 21.7069 85.874 21.4723 79.666 21.4523C77.3407 21.4443 72.6874 21.4456 70.362 21.4523C64.154 21.4696 57.0767 21.7069 50.874 22.0029" fill="#898989"/>
<path d="M99.1554 22.0029C92.9527 21.7069 85.874 21.4723 79.666 21.4523C77.3407 21.4443 72.6874 21.4456 70.362 21.4523C64.154 21.4696 57.0767 21.7069 50.874 22.0029" stroke="#231916" stroke-width="0.466667" stroke-linecap="round" stroke-linejoin="round"/>
</g>
<path id="Vector_36" d="M139.041 52.1169C139.071 52.2862 138.953 52.5542 138.869 52.7502C138.759 53.0022 138.637 53.2462 138.513 53.4916C138.191 54.1249 137.833 54.7382 137.471 55.3489C136.702 56.6529 135.913 57.9502 135.087 59.2209C133.415 61.7996 131.674 64.3329 129.903 66.8436C126.371 71.8502 122.699 76.7596 118.965 81.6169C117.554 83.4529 116.153 85.2969 114.598 87.0129C113.841 87.8489 113.073 88.6782 112.311 89.5102C111.943 89.9116 111.569 90.3076 111.181 90.6902C110.983 90.8849 110.782 91.0782 110.573 91.2609C110.45 91.3716 110.183 91.6396 110.027 91.5982" stroke="#231916" stroke-width="0.466667" stroke-linecap="round" stroke-linejoin="round"/>
<path id="Vector_37" d="M66.5913 50.3495C66.5913 51.3402 65.7886 52.1455 64.798 52.1455C63.806 52.1455 63.002 51.3402 63.002 50.3495C63.002 49.3588 63.806 48.5535 64.798 48.5535C65.7886 48.5535 66.5913 49.3588 66.5913 50.3495Z" stroke="#231916" stroke-width="0.466667" stroke-miterlimit="10"/>
<path id="Vector_38" d="M46.6676 50.3211C46.6676 44.0611 41.5902 38.9825 35.3289 38.9825C29.0662 38.9825 23.9902 44.0611 23.9902 50.3211C23.9902 56.5838 29.0662 61.6611 35.3289 61.6611C41.5902 61.6611 46.6676 56.5838 46.6676 50.3211Z" stroke="#231916" stroke-width="0.466667" stroke-linecap="round" stroke-linejoin="round"/>
<path id="Vector_39" d="M82.5723 70.1652C82.5723 76.4266 87.6496 81.5039 93.9123 81.5039C100.172 81.5039 105.251 76.4266 105.251 70.1652C105.251 63.9026 100.172 58.8266 93.9123 58.8266C87.6496 58.8266 82.5723 63.9026 82.5723 70.1652Z" stroke="#231916" stroke-width="0.466667" stroke-linecap="round" stroke-linejoin="round"/>
<path id="Vector_40" d="M134.766 36.0943C134.181 35.9516 133.633 35.5356 133.136 35.2089C132.606 34.8623 132.086 34.4983 131.556 34.1516C130.325 33.3449 129.038 32.6409 127.722 31.9876C125.102 30.6836 122.44 29.5556 119.61 28.7916C113.882 27.2476 107.908 26.7769 102.008 26.4316C89.8131 25.7196 77.5598 25.8049 65.3491 25.9116C59.1984 25.9663 53.0464 26.1103 46.9064 26.5009C40.9824 26.8756 34.9718 27.4036 29.2624 29.1209C26.6744 29.8996 24.2198 31.0103 21.8131 32.2329C20.6131 32.8436 19.4438 33.5089 18.3184 34.2516C17.7998 34.5943 17.2904 34.9489 16.7691 35.2889C16.5118 35.4556 16.2504 35.6209 15.9838 35.7716C15.9024 35.8183 15.2704 36.0583 15.2598 36.0996" stroke="#231916" stroke-width="0.466667" stroke-linecap="round" stroke-linejoin="round"/>
<g id="Analog_Stick">
<path id="Vector_41" d="M35.3299 58.2607C39.7126 58.2607 43.2646 54.7061 43.2646 50.3221C43.2646 45.9381 39.7126 42.3847 35.3299 42.3847C30.9459 42.3847 27.3926 45.9381 27.3926 50.3221C27.3926 54.7061 30.9459 58.2607 35.3299 58.2607Z" fill="#666565"/>
<path id="Vector_42" d="M35.3299 58.2607C39.7126 58.2607 43.2646 54.7061 43.2646 50.3221C43.2646 45.9381 39.7126 42.3847 35.3299 42.3847C30.9459 42.3847 27.3926 45.9381 27.3926 50.3221C27.3926 54.7061 30.9459 58.2607 35.3299 58.2607Z" stroke="#231916" stroke-width="0.466667" stroke-linecap="round" stroke-linejoin="round"/>
<path id="Vector_43" d="M35.3301 56.335C32.0074 56.335 29.3154 53.6443 29.3154 50.3216C29.3154 47.0016 32.0074 44.3096 35.3301 44.3096C38.6501 44.3096 41.3434 47.0016 41.3434 50.3216C41.3434 53.6443 38.6501 56.335 35.3301 56.335Z" stroke="#231916" stroke-width="0.466667" stroke-linecap="round" stroke-linejoin="round"/>
</g>
<g id="Analog_C_Stick">
<path id="Vector_44" d="M93.9116 78.1104C98.2943 78.1104 101.848 74.557 101.848 70.1744C101.848 65.7904 98.2943 62.2357 93.9116 62.2357C89.5289 62.2357 85.9756 65.7904 85.9756 70.1744C85.9756 74.557 89.5289 78.1104 93.9116 78.1104Z" fill="#666565"/>
<path id="Vector_45" d="M93.9116 78.1104C98.2943 78.1104 101.848 74.557 101.848 70.1744C101.848 65.7904 98.2943 62.2357 93.9116 62.2357C89.5289 62.2357 85.9756 65.7904 85.9756 70.1744C85.9756 74.557 89.5289 78.1104 93.9116 78.1104Z" stroke="#231916" stroke-width="0.466667" stroke-linecap="round" stroke-linejoin="round"/>
<path id="Vector_46" d="M93.9121 76.1865C90.5908 76.1865 87.8975 73.4945 87.8975 70.1732C87.8975 66.8505 90.5908 64.1585 93.9121 64.1585C97.2335 64.1585 99.9255 66.8505 99.9255 70.1719C99.9255 73.4945 97.2335 76.1865 93.9121 76.1865Z" stroke="#231916" stroke-width="0.466667" stroke-linecap="round" stroke-linejoin="round"/>
</g>
</g>
<path id="Vector_47" d="M63.1716 22.0073C63.2967 22.0067 63.5015 22.0067 63.6267 22.0073C63.7518 22.0078 63.6495 22.0083 63.3991 22.0083C63.1488 22.0083 63.0464 22.0078 63.1716 22.0073Z" fill="#7F7F7F"/>
<path id="Vector_48" d="M63.4764 22.0073C63.5133 22.0067 63.5748 22.0067 63.6131 22.0073C63.6514 22.008 63.6211 22.0083 63.546 22.0083C63.4708 22.0083 63.4395 22.0078 63.4764 22.0073Z" fill="#7F7F7F"/>
<path id="Vector_49" d="M63.3141 22.0073C63.3522 22.0067 63.4146 22.0067 63.4528 22.0073C63.4909 22.008 63.4598 22.0083 63.3835 22.0083C63.3072 22.0083 63.2759 22.0078 63.3141 22.0073Z" fill="#7F7F7F"/>
<path id="Vector_50" d="M63.4626 22.0074C63.475 22.0066 63.4944 22.0066 63.5056 22.0074C63.5168 22.0082 63.5066 22.0084 63.483 22.0084C63.4594 22.0084 63.4502 22.0078 63.4626 22.0074Z" fill="#7F7F7F"/>
<path id="Vector_51" d="M63.422 22.0074C63.4333 22.0066 63.4509 22.0066 63.4611 22.0074C63.4712 22.0082 63.462 22.0084 63.4405 22.0084C63.419 22.0084 63.4106 22.0078 63.422 22.0074Z" fill="#7F7F7F"/>
<path id="Vector_52" d="M63.4565 22.0075C63.4615 22.0066 63.4692 22.0066 63.4741 22.0075C63.4791 22.0085 63.475 22.0095 63.4651 22.0095C63.4551 22.0095 63.4519 22.0088 63.4565 22.0075Z" fill="#7F7F7F"/>
<path id="Vector_53" d="M63.4591 22.0075C63.4631 22.0065 63.4681 22.0066 63.4708 22.0077C63.4738 22.0087 63.4704 22.0097 63.4638 22.0097C63.4578 22.0096 63.4551 22.0086 63.4591 22.0075Z" fill="#7F7F7F"/>
</g>
</g>
<path id="Button_L" d="M22 9.21882V18H50V9.21882C50 4.67969 46.3203 1 41.7812 1H30.2188C25.6797 1 22 4.67969 22 9.21882Z" fill="#464646" stroke="#231916" stroke-width="0.47"/>
<path id="Button_R" d="M100 9.21882V18H128V9.21882C128 4.67969 124.32 1 119.781 1H108.219C103.68 1 100 4.67969 100 9.21882Z" fill="#464646" stroke="#231916" stroke-width="0.47"/>
<path id="ZL" d="M30.1719 14V13.2969L34.4844 6.85937H30.125V6H35.6406V6.70312L31.3281 13.1406H35.6875V14H30.1719ZM37.3125 14V6H38.2813V13.1406H42V14H37.3125Z" fill="white"/>
<path id="ZR" d="M107.748 14V13.2969L112.06 6.85937H107.701V6H113.216V6.70312L108.904 13.1406H113.263V14H107.748ZM114.888 14V6H117.591C118.216 6 118.729 6.10677 119.13 6.32031C119.531 6.53125 119.828 6.82161 120.021 7.19141C120.214 7.5612 120.31 7.98177 120.31 8.45312C120.31 8.92448 120.214 9.34245 120.021 9.70703C119.828 10.0716 119.533 10.3581 119.134 10.5664C118.736 10.7721 118.227 10.875 117.607 10.875H115.419V10H117.576C118.003 10 118.347 9.9375 118.607 9.8125C118.87 9.6875 119.06 9.51042 119.177 9.28125C119.297 9.04948 119.357 8.77344 119.357 8.45312C119.357 8.13281 119.297 7.85286 119.177 7.61328C119.057 7.3737 118.866 7.1888 118.603 7.05859C118.34 6.92578 117.992 6.85937 117.56 6.85937H115.857V14H114.888ZM118.654 10.4062L120.623 14H119.498L117.56 10.4062H118.654Z" fill="white"/>
</g>
</svg>
