<svg width="148" height="122" viewBox="0 0 148 122" fill="none" xmlns="http://www.w3.org/2000/svg">
<g id="pro_controller_dark" clip-path="url(#clip0_2831_1221)">
<g id="Group">
<g id="Group_2">
<path id="Vector" d="M48.6514 21.9035L46.292 22.1066L49.2981 23.4951L76.8525 23.296L90.7289 23.4951L92.5576 22.7316L94.1554 22.0031L86.0889 21.5753L56.8701 21.5439L48.6514 21.9035Z" fill="#3D3D3D"/>
<path id="Vector_2" d="M98.0003 90.5981C99.2936 90.5981 100.596 90.5741 101.887 90.6901C103.063 90.7955 104.254 91.0875 105.254 91.7395C106.362 92.4635 107.21 93.5008 107.952 94.5795C108.756 95.7461 109.428 96.9981 110.07 98.2595C111.432 100.937 112.666 103.678 114.048 106.347C115.16 108.498 116.296 110.647 117.556 112.717C118.782 114.725 120.14 116.677 122.079 118.054C124.083 119.475 126.527 120.237 128.986 120.07C131.592 119.895 134.087 118.731 136.086 117.081C139.787 114.025 141.428 109.325 141.727 104.65C141.915 101.709 141.687 98.7368 141.376 95.8088C141.13 93.4888 140.838 91.1635 140.458 88.8608C140.178 87.1581 139.896 85.4555 139.616 83.7541C139.126 80.7861 138.636 77.8195 138.144 74.8501C137.775 72.6115 137.406 70.3715 137.035 68.1301C136.546 65.1581 135.995 62.1928 135.419 59.2341C134.991 57.0461 134.532 54.8675 134.14 52.6728C133.64 49.8608 133.018 47.0595 132.324 44.2888C131.97 42.8608 131.579 41.4408 131.144 40.0355C130.924 39.3301 130.695 38.6288 130.45 37.9328C130.322 37.5701 130.191 37.2075 130.055 36.8448C129.926 36.5048 129.822 36.1688 129.6 35.8768C129.142 35.2688 128.684 34.6608 128.224 34.0515C127.986 33.7341 127.746 33.4181 127.51 33.1021C127.332 32.8675 127.115 32.5315 126.835 32.4075C125.736 31.9248 124.676 31.3661 123.642 30.7541C122.366 30.0008 121.112 29.2075 119.799 28.5181C118.496 27.8368 117.15 27.2408 115.768 26.7381C112.947 25.7115 110.004 25.0781 107.034 24.6648C103.974 24.2381 100.884 24.0088 97.8029 23.8208C94.7149 23.6328 91.6216 23.5115 88.5296 23.4288C82.3603 23.2621 76.1869 23.2501 70.0149 23.2501C63.8416 23.2501 57.6683 23.2621 51.4989 23.4288C48.4056 23.5115 45.3136 23.6328 42.2256 23.8208C39.1416 24.0088 36.0536 24.2381 32.9936 24.6648C30.0256 25.0781 27.0803 25.7115 24.2589 26.7381C22.8789 27.2408 21.5309 27.8368 20.2296 28.5181C18.9163 29.2075 17.6629 30.0008 16.3856 30.7541C15.3536 31.3661 14.2923 31.9248 13.1936 32.4075C12.9136 32.5315 12.6949 32.8675 12.5203 33.1021C12.2803 33.4181 12.0429 33.7341 11.8043 34.0515C11.3456 34.6608 10.8856 35.2688 10.4256 35.8768C10.2056 36.1688 10.1003 36.5048 9.97361 36.8448C9.83761 37.2075 9.70694 37.5701 9.57894 37.9328C9.33494 38.6288 9.10295 39.3301 8.88428 40.0355C8.44695 41.4408 8.05895 42.8608 7.70161 44.2888C7.01228 47.0595 6.38828 49.8608 5.88695 52.6728C5.49495 54.8675 5.03628 57.0461 4.60961 59.2341C4.03228 62.1928 3.48294 65.1581 2.99094 68.1301C2.62161 70.3715 2.25228 72.6115 1.88161 74.8501C1.39228 77.8195 0.902941 80.7861 0.413608 83.7541C0.132274 85.4555 -0.149053 87.1581 -0.430386 88.8608C-0.810386 91.1635 -1.10239 93.4888 -1.34772 95.8088C-1.65839 98.7368 -1.88639 101.709 -1.69839 104.65C-1.40239 109.325 0.241613 114.025 3.94161 117.081C5.94028 118.731 8.43494 119.895 11.0403 120.07C13.5016 120.237 15.9443 119.475 17.9469 118.054C19.8883 116.677 21.2469 114.725 22.4709 112.717C23.7336 110.647 24.8656 108.498 25.9803 106.347C27.3616 103.678 28.5949 100.937 29.9589 98.2595C30.6003 96.9981 31.2723 95.7461 32.0749 94.5795C32.8189 93.5008 33.6656 92.4635 34.7749 91.7395C35.7749 91.0875 36.9656 90.7955 38.1416 90.6901C39.4309 90.5741 40.7336 90.5981 42.0283 90.5981H98.0003Z" fill="#3D3D3D" stroke="#231916" stroke-width="0.466667" stroke-linecap="round" stroke-linejoin="round"/>
</g>
<g id="Group_3">
<path id="Vector_3" d="M88.9118 79.2354C83.9025 79.2354 79.8398 75.174 79.8398 70.1634C79.8398 65.1554 83.9025 61.0927 88.9118 61.0927C93.9212 61.0927 97.9825 65.1554 97.9825 70.1634C97.9825 75.174 93.9212 79.2354 88.9118 79.2354Z" fill="#DCDDDD"/>
<path id="Vector_4" d="M30.3298 59.3936C25.3191 59.3936 21.2578 55.3309 21.2578 50.3216C21.2578 45.3109 25.3191 41.2509 30.3298 41.2509C35.3391 41.2509 39.4005 45.3109 39.4005 50.3216C39.4005 55.3309 35.3391 59.3936 30.3298 59.3936Z" fill="#DCDDDD"/>
<path id="Vector_5" d="M51.239 74.067C51.239 73.987 51.2723 73.8723 51.3177 73.807C51.419 73.6537 51.5297 73.5937 51.7137 73.595C53.5563 73.595 55.403 73.5977 57.2483 73.6003C57.875 73.603 58.3817 73.095 58.3817 72.4697V70.163V67.859C58.3817 67.231 57.875 66.7243 57.2483 66.7257C55.403 66.7283 53.5563 66.731 51.7137 66.7337C51.451 66.7337 51.239 66.523 51.239 66.2617C51.2417 64.4163 51.2443 62.571 51.247 60.7257C51.2497 60.099 50.7417 59.591 50.115 59.591C48.5777 59.5923 47.0417 59.5923 45.5043 59.591C44.8777 59.591 44.371 60.099 44.3723 60.7257C44.375 62.571 44.3777 64.4163 44.3803 66.2617C44.3803 66.455 44.315 66.5697 44.1483 66.6683C44.0857 66.7057 43.9803 66.7337 43.907 66.7337C42.0617 66.731 40.2163 66.7283 38.3723 66.7257C37.7443 66.7243 37.2363 67.231 37.2363 67.859V70.163V72.4697C37.2363 73.095 37.7443 73.603 38.3723 73.6003C40.2163 73.5977 42.0617 73.595 43.907 73.595C44.091 73.5937 44.2003 73.6537 44.3017 73.807C44.3457 73.8723 44.3803 73.987 44.3803 74.067C44.3777 75.911 44.375 77.7577 44.3723 79.6017C44.371 80.2283 44.8777 80.7363 45.5043 80.7363H50.115C50.7417 80.7363 51.2497 80.2283 51.247 79.6017C51.2443 77.7577 51.2417 75.911 51.239 74.067Z" fill="#5A5A5A"/>
<rect id="Dpad_Left" x="37" y="66.9004" width="7.5" height="6.6" rx="1" fill="#5A5A5A"/>
<rect id="Dpad_Right" x="51" y="66.9004" width="7.5" height="6.6" rx="1" fill="#5A5A5A"/>
<rect id="Dpad_Up" x="44.25" y="59.7998" width="7" height="6.6" rx="1" fill="#5A5A5A"/>
<rect id="Dpad_Down" x="44.25" y="74" width="7" height="6.6" rx="1" fill="#5A5A5A"/>
<path id="Button_X" d="M102.116 50.3221C102.116 53.2567 99.736 55.6367 96.8014 55.6367C93.8667 55.6367 91.4854 53.2567 91.4854 50.3221C91.4854 47.3861 93.8667 45.0074 96.8014 45.0074C99.736 45.0074 102.116 47.3861 102.116 50.3221Z" fill="#5A5A5A"/>
<path id="Button_A" d="M102.73 60.0545C102.73 62.9891 105.11 65.3691 108.045 65.3691C110.98 65.3691 113.361 62.9891 113.361 60.0545C113.361 57.1198 110.98 54.7398 108.045 54.7398C105.11 54.7398 102.73 57.1198 102.73 60.0545Z" fill="#5A5A5A"/>
<path id="Button_B" d="M113.976 50.3221C113.976 47.3861 116.354 45.0074 119.289 45.0074C122.225 45.0074 124.605 47.3861 124.605 50.3221C124.605 53.2567 122.225 55.6367 119.289 55.6367C116.354 55.6367 113.976 53.2567 113.976 50.3221Z" fill="#5A5A5A"/>
<path id="Button_Y" d="M113.361 40.5896C113.361 43.5256 110.981 45.9043 108.046 45.9043C105.112 45.9043 102.73 43.5256 102.73 40.5896C102.73 37.6536 105.112 35.275 108.046 35.275C110.981 35.275 113.361 37.6536 113.361 40.5896Z" fill="#5A5A5A"/>
<path id="Vector_6" d="M56.9512 52.2347V48.408C56.9512 47.8854 57.3738 47.4627 57.8965 47.4627H61.7232C62.2445 47.4627 62.6685 47.8854 62.6685 48.408V52.2347C62.6685 52.7574 62.2445 53.1787 61.7232 53.1787H57.8965C57.3738 53.1787 56.9512 52.7574 56.9512 52.2347Z" fill="#5A5A5A"/>
<path id="Button_Start" d="M84.5654 39.4556C84.5654 37.6809 86.0028 36.2449 87.7774 36.2449C89.5521 36.2449 90.9908 37.6809 90.9908 39.4556C90.9908 41.2303 89.5521 42.6689 87.7774 42.6689C86.0028 42.6689 84.5654 41.2303 84.5654 39.4556Z" fill="#5A5A5A"/>
<path id="Button_Select" d="M49.0381 39.4556C49.0381 37.6809 50.4768 36.2449 52.2501 36.2449C54.0234 36.2449 55.4621 37.6809 55.4621 39.4556C55.4621 41.2303 54.0234 42.6689 52.2501 42.6689C50.4768 42.6689 49.0381 41.2303 49.0381 39.4556Z" fill="#5A5A5A"/>
<path id="Vector_7" d="M83.4318 50.3222C83.4318 52.0955 81.9945 53.5342 80.2185 53.5342C78.4451 53.5342 77.0078 52.0955 77.0078 50.3222C77.0078 48.5475 78.4451 47.1075 80.2185 47.1075C81.9945 47.1075 83.4318 48.5475 83.4318 50.3222Z" fill="#5A5A5A"/>
<path id="Vector_8" d="M107.371 61.4109H107.996C108.483 61.4109 108.907 61.2282 108.907 60.7682C108.907 60.3322 108.595 60.1162 108.058 60.1162H107.371V61.4109ZM107.371 59.8415H108.048C108.371 59.8415 108.748 59.7029 108.748 59.2629C108.748 58.8429 108.39 58.6842 107.954 58.6842H107.371V59.8415ZM107.035 58.3935H108.019C108.524 58.3935 109.084 58.5762 109.084 59.2389C109.084 59.5855 108.851 59.8695 108.502 59.9495V59.9575C108.931 60.0042 109.248 60.3042 109.248 60.7855C109.248 61.3362 108.778 61.7002 108.014 61.7002H107.035V58.3935Z" fill="white"/>
<path id="Vector_9" d="M118.559 50.6039H120.015L119.287 48.8479L118.559 50.6039ZM118.072 51.7812H117.703L119.134 48.4732H119.46L120.879 51.7812H120.507L120.143 50.9106H118.431L118.072 51.7812Z" fill="white"/>
<path id="Vector_10" d="M108.053 40.2653L108.956 38.9293H109.359L108.259 40.504L109.473 42.2373H109.053L108.045 40.7466L107.04 42.2373H106.62L107.835 40.5L106.728 38.9293H107.147L108.053 40.2653Z" fill="white"/>
<path id="Vector_11" d="M96.9721 51.9678H96.6348V50.5438L95.3975 48.6611H95.8188L96.8135 50.2638L97.8175 48.6611H98.2108L96.9721 50.5438V51.9678Z" fill="white"/>
<path id="Button_ZL" d="M13.5994 32.225C14.554 31.7864 15.4807 31.2917 16.386 30.7544C17.6634 30.001 18.9154 29.2077 20.23 28.5197C21.5314 27.837 22.8794 27.2424 24.2594 26.7397C27.0794 25.7117 30.0247 25.0797 32.994 24.665C36.054 24.2397 39.142 24.009 42.226 23.821C44.5807 23.6784 46.9394 23.5744 49.298 23.4957C48.022 22.937 45.2047 21.7104 43.9234 21.161L43.9207 21.1597C43.8447 21.1264 43.7674 21.093 43.69 21.0597L43.686 21.0584C42.5874 20.5864 41.5274 20.221 40.2914 20.2344C39.7394 20.241 38.774 20.2904 38.2234 20.3317C35.9234 20.5077 33.638 20.7584 31.358 21.109C30.7967 21.1944 30.2367 21.289 29.6767 21.389C27.9127 21.7037 26.186 22.085 24.4914 22.693C23.6607 22.989 22.2754 23.621 21.5074 24.057C19.8047 25.0224 18.2647 26.1464 16.8194 27.465C16.4727 27.7797 16.1874 28.1304 15.942 28.5277C15.9407 28.5264 15.9394 28.5264 15.9394 28.5264L15.942 28.5277C15.2967 29.557 14.2394 31.2104 13.582 32.2344L13.5994 32.225Z" fill="#5A5A5A"/>
<path id="Button_ZR" d="M126.427 32.225C125.473 31.7864 124.546 31.2917 123.641 30.7544C122.363 30.001 121.111 29.2077 119.797 28.5197C118.495 27.837 117.147 27.2424 115.767 26.7397C112.947 25.7117 110.002 25.0797 107.033 24.665C103.973 24.2397 100.885 24.009 97.8005 23.821C95.4459 23.6784 93.0872 23.5744 90.7285 23.4957C92.0045 22.937 94.8218 21.7104 96.1032 21.161L96.1059 21.1597C96.1819 21.1264 96.2592 21.093 96.3365 21.0597L96.3405 21.0584C97.4392 20.5864 98.4992 20.221 99.7352 20.2344C100.289 20.241 101.253 20.2904 101.803 20.3317C104.103 20.5077 106.389 20.7584 108.669 21.109C109.23 21.1944 109.791 21.289 110.35 21.389C112.114 21.7037 113.841 22.085 115.535 22.693C116.366 22.989 117.751 23.621 118.519 24.057C120.222 25.0224 121.762 26.1464 123.207 27.465C123.554 27.7797 123.839 28.1304 124.085 28.5277C124.086 28.5264 124.087 28.5264 124.087 28.5264L124.085 28.5277C124.73 29.557 125.789 31.2104 126.445 32.2344L126.427 32.225Z" fill="#5A5A5A"/>
<path id="Vector_12" d="M47.9251 78.0342C47.8611 78.1462 47.7544 78.1462 47.6917 78.0342L46.8904 76.6462C46.8264 76.5368 46.8797 76.4462 47.0077 76.4462H48.6091C48.7371 76.4462 48.7891 76.5368 48.7237 76.6462L47.9251 78.0342Z" fill="white"/>
<path id="Vector_13" d="M47.6909 62.4543C47.7549 62.3437 47.8616 62.3437 47.9256 62.4543L48.7229 63.8397C48.7896 63.953 48.7362 64.041 48.6082 64.041H47.0069C46.8802 64.041 46.8269 63.953 46.8896 63.8397L47.6909 62.4543Z" fill="white"/>
<path id="Vector_14" d="M55.6811 70.0464C55.7905 70.1091 55.7905 70.2144 55.6811 70.2811L54.2931 71.0798C54.1811 71.1438 54.0918 71.0931 54.0918 70.9651V69.3624C54.0918 69.2344 54.1811 69.1824 54.2931 69.2438L55.6811 70.0464Z" fill="white"/>
<path id="Vector_15" d="M40.0967 70.278C39.9847 70.214 39.9847 70.1073 40.0967 70.046L41.4834 69.2446C41.594 69.1793 41.686 69.2326 41.686 69.3606V70.9633C41.686 71.09 41.594 71.1433 41.4834 71.0793L40.0967 70.278Z" fill="white"/>
<path id="Vector_16" d="M88.0588 41.0596H87.4735V39.7476H86.1602V39.1609H87.4735V37.8489H88.0588V39.1609H89.3708V39.7476H88.0588V41.0596Z" fill="#231916"/>
<path id="Vector_17" d="M53.8542 39.7738H50.6436V39.1885H53.8542V39.7738Z" fill="#231916"/>
<path id="Vector_18" d="M80.79 50.9937C80.79 51.0763 80.7566 51.1097 80.674 51.1097H79.7473C79.666 51.1097 79.6326 51.0763 79.6326 50.9937V50.299C79.6326 50.2163 79.666 50.183 79.7473 50.183H80.674C80.7526 50.183 80.786 50.215 80.79 50.2937V50.9937ZM82.0166 49.863C81.4393 49.3723 80.8633 48.8817 80.286 48.3923C80.2313 48.3457 80.19 48.3457 80.1353 48.3923C79.5593 48.8817 78.982 49.3723 78.406 49.863C78.302 49.9523 78.3433 50.067 78.4806 50.067H78.7033C78.786 50.067 78.8193 50.1003 78.8193 50.1843V51.6883C78.8193 51.7723 78.854 51.8057 78.9353 51.8057H81.486C81.5673 51.8057 81.6006 51.7723 81.6006 51.6883V50.1843C81.6006 50.1003 81.6353 50.067 81.718 50.067H81.9406C82.078 50.067 82.1206 49.9523 82.0166 49.863Z" fill="#231916"/>
<g id="Group_4">
<path id="Vector_19" d="M51.239 74.067C51.239 73.987 51.2723 73.8723 51.3177 73.807C51.419 73.6537 51.5297 73.5937 51.7137 73.595C53.5563 73.595 55.403 73.5977 57.2483 73.6003C57.875 73.603 58.3817 73.095 58.3817 72.4697V70.163V67.859C58.3817 67.231 57.875 66.7243 57.2483 66.7257C55.403 66.7283 53.5563 66.731 51.7137 66.7337C51.451 66.7337 51.239 66.523 51.239 66.2617C51.2417 64.4163 51.2443 62.571 51.247 60.7257C51.2497 60.099 50.7417 59.591 50.115 59.591C48.5777 59.5923 47.0417 59.5923 45.5043 59.591C44.8777 59.591 44.371 60.099 44.3723 60.7257C44.375 62.571 44.3777 64.4163 44.3803 66.2617C44.3803 66.455 44.315 66.5697 44.1483 66.6683C44.0857 66.7057 43.9803 66.7337 43.907 66.7337C42.0617 66.731 40.2163 66.7283 38.3723 66.7257C37.7443 66.7243 37.2363 67.231 37.2363 67.859V70.163V72.4697C37.2363 73.095 37.7443 73.603 38.3723 73.6003C40.2163 73.5977 42.0617 73.595 43.907 73.595C44.091 73.5937 44.2003 73.6537 44.3017 73.807C44.3457 73.8723 44.3803 73.987 44.3803 74.067C44.3777 75.911 44.375 77.7577 44.3723 79.6017C44.371 80.2283 44.8777 80.7363 45.5043 80.7363H50.115C50.7417 80.7363 51.2497 80.2283 51.247 79.6017C51.2443 77.7577 51.2417 75.911 51.239 74.067Z" stroke="#231916" stroke-width="0.466667" stroke-linecap="round" stroke-linejoin="round"/>
<path id="Vector_20" d="M75.7773 50.3221C75.7773 52.7741 77.7667 54.7607 80.2173 54.7607C82.6707 54.7607 84.66 52.7741 84.66 50.3221C84.66 47.8687 82.6707 45.8807 80.2173 45.8807C77.7667 45.8807 75.7773 47.8687 75.7773 50.3221Z" stroke="#231916" stroke-width="0.466667" stroke-linecap="round" stroke-linejoin="round"/>
<path id="Vector_21" d="M102.116 50.3221C102.116 53.2567 99.736 55.6367 96.8014 55.6367C93.8667 55.6367 91.4854 53.2567 91.4854 50.3221C91.4854 47.3861 93.8667 45.0074 96.8014 45.0074C99.736 45.0074 102.116 47.3861 102.116 50.3221Z" stroke="#231916" stroke-width="0.466667" stroke-linecap="round" stroke-linejoin="round"/>
<path id="Vector_22" d="M102.73 60.0545C102.73 62.9891 105.11 65.3691 108.045 65.3691C110.98 65.3691 113.361 62.9891 113.361 60.0545C113.361 57.1198 110.98 54.7398 108.045 54.7398C105.11 54.7398 102.73 57.1198 102.73 60.0545Z" stroke="#231916" stroke-width="0.466667" stroke-linecap="round" stroke-linejoin="round"/>
<path id="Vector_23" d="M113.976 50.3221C113.976 47.3861 116.354 45.0074 119.289 45.0074C122.225 45.0074 124.605 47.3861 124.605 50.3221C124.605 53.2567 122.225 55.6367 119.289 55.6367C116.354 55.6367 113.976 53.2567 113.976 50.3221Z" stroke="#231916" stroke-width="0.466667" stroke-linecap="round" stroke-linejoin="round"/>
<path id="Vector_24" d="M113.361 40.5896C113.361 43.5256 110.981 45.9043 108.046 45.9043C105.112 45.9043 102.73 43.5256 102.73 40.5896C102.73 37.6536 105.112 35.275 108.046 35.275C110.981 35.275 113.361 37.6536 113.361 40.5896Z" stroke="#231916" stroke-width="0.466667" stroke-linecap="round" stroke-linejoin="round"/>
<path id="Vector_25" d="M62.1709 47.5772V47.5879H62.1909" stroke="#231916" stroke-width="0.466667" stroke-linecap="round" stroke-linejoin="round"/>
<path id="Vector_26" d="M56.9512 52.2347V48.408C56.9512 47.8854 57.3738 47.4627 57.8965 47.4627H61.7232C62.2445 47.4627 62.6685 47.8854 62.6685 48.408V52.2347C62.6685 52.7574 62.2445 53.1787 61.7232 53.1787H57.8965C57.3738 53.1787 56.9512 52.7574 56.9512 52.2347Z" stroke="#231916" stroke-width="0.466667" stroke-linecap="round" stroke-linejoin="round"/>
<path id="Vector_27" d="M13.582 32.2334C14.238 31.2094 15.2967 29.5561 15.942 28.5267M15.942 28.5267L15.9394 28.5254C15.9394 28.5254 15.9407 28.5254 15.942 28.5267ZM15.942 28.5267C16.1874 28.1294 16.4727 27.7787 16.8194 27.4641C18.2647 26.1467 19.8047 25.0214 21.506 24.0561C22.2754 23.6201 23.6607 22.9881 24.4914 22.6921C26.186 22.0854 27.9127 21.7041 29.6754 21.3881C30.2354 21.2881 30.7967 21.1947 31.358 21.1081C33.638 20.7587 35.9234 20.5067 38.222 20.3307C38.774 20.2894 39.738 20.2401 40.29 20.2334C41.5274 20.2201 42.5874 20.5867 43.686 21.0574L43.69 21.0587C43.7674 21.0934 43.8434 21.1254 43.9207 21.1587L43.9234 21.1601C45.2047 21.7094 48.022 22.9361 49.298 23.4947" stroke="#231916" stroke-width="0.466667" stroke-linecap="round" stroke-linejoin="round"/>
<path id="Vector_28" d="M88.9118 79.2354C83.9025 79.2354 79.8398 75.174 79.8398 70.1634C79.8398 65.1554 83.9025 61.0927 88.9118 61.0927C93.9212 61.0927 97.9825 65.1554 97.9825 70.1634C97.9825 75.174 93.9212 79.2354 88.9118 79.2354Z" stroke="#231916" stroke-width="0.466667" stroke-linecap="round" stroke-linejoin="round"/>
<path id="Vector_29" d="M84.5654 39.4556C84.5654 37.6809 86.0028 36.2449 87.7774 36.2449C89.5521 36.2449 90.9908 37.6809 90.9908 39.4556C90.9908 41.2303 89.5521 42.6689 87.7774 42.6689C86.0028 42.6689 84.5654 41.2303 84.5654 39.4556Z" stroke="#231916" stroke-width="0.466667" stroke-linecap="round" stroke-linejoin="round"/>
<path id="Vector_30" d="M49.0381 39.4556C49.0381 37.6809 50.4768 36.2449 52.2501 36.2449C54.0234 36.2449 55.4621 37.6809 55.4621 39.4556C55.4621 41.2303 54.0234 42.6689 52.2501 42.6689C50.4768 42.6689 49.0381 41.2303 49.0381 39.4556Z" stroke="#231916" stroke-width="0.466667" stroke-linecap="round" stroke-linejoin="round"/>
<path id="Vector_31" d="M83.4318 50.3222C83.4318 52.0955 81.9945 53.5342 80.2185 53.5342C78.4451 53.5342 77.0078 52.0955 77.0078 50.3222C77.0078 48.5475 78.4451 47.1075 80.2185 47.1075C81.9945 47.1075 83.4318 48.5475 83.4318 50.3222Z" stroke="#231916" stroke-width="0.466667" stroke-linecap="round" stroke-linejoin="round"/>
<path id="Vector_32" d="M30.3298 59.3936C25.3191 59.3936 21.2578 55.3309 21.2578 50.3216C21.2578 45.3109 25.3191 41.2509 30.3298 41.2509C35.3391 41.2509 39.4005 45.3109 39.4005 50.3216C39.4005 55.3309 35.3391 59.3936 30.3298 59.3936Z" stroke="#231916" stroke-width="0.466667" stroke-linecap="round" stroke-linejoin="round"/>
<path id="Vector_33" d="M5.98741 52.1169C5.95674 52.2862 6.07408 52.5542 6.15941 52.7502C6.27008 53.0022 6.39141 53.2462 6.51541 53.4916C6.83541 54.1249 7.19541 54.7382 7.55674 55.3489C8.32741 56.6529 9.11541 57.9502 9.93941 59.2209C11.6127 61.7996 13.3527 64.3329 15.1247 66.8436C18.6567 71.8502 22.3287 76.7596 26.0647 81.6169C27.4741 83.4529 28.8754 85.2969 30.4314 87.0129C31.1887 87.8489 31.9554 88.6782 32.7181 89.5102C33.0847 89.9116 33.4607 90.3076 33.8474 90.6902C34.0461 90.8849 34.2461 91.0782 34.4554 91.2609C34.5781 91.3716 34.8434 91.6396 34.9994 91.5982" stroke="#231916" stroke-width="0.466667" stroke-linecap="round" stroke-linejoin="round"/>
<path id="Vector_34" d="M126.445 32.2334C125.791 31.2094 124.731 29.5561 124.087 28.5267M124.087 28.5267L124.089 28.5254L124.087 28.5267ZM124.087 28.5267C123.841 28.1294 123.557 27.7787 123.21 27.4641C121.765 26.1467 120.223 25.0214 118.523 24.0561C117.754 23.6201 116.369 22.9881 115.535 22.6921C113.843 22.0854 112.114 21.7041 110.351 21.3881C109.791 21.2881 109.231 21.1947 108.669 21.1081C106.39 20.7587 104.105 20.5067 101.806 20.3307C101.254 20.2894 100.291 20.2401 99.7378 20.2334C98.5018 20.2201 97.4419 20.5867 96.3405 21.0574L96.3379 21.0587C96.2605 21.0934 96.1845 21.1254 96.1072 21.1587L96.1032 21.1601C94.8218 21.7094 92.0072 22.9361 90.7285 23.4947" stroke="#231916" stroke-width="0.466667" stroke-linecap="round" stroke-linejoin="round"/>
<g id="Vector_35">
<path d="M94.1554 22.0029C87.9527 21.7069 80.874 21.4723 74.666 21.4523C72.3407 21.4443 67.6874 21.4456 65.362 21.4523C59.154 21.4696 52.0767 21.7069 45.874 22.0029" fill="#3D3D3D"/>
<path d="M94.1554 22.0029C87.9527 21.7069 80.874 21.4723 74.666 21.4523C72.3407 21.4443 67.6874 21.4456 65.362 21.4523C59.154 21.4696 52.0767 21.7069 45.874 22.0029" stroke="#231916" stroke-width="0.466667" stroke-linecap="round" stroke-linejoin="round"/>
</g>
<path id="Vector_36" d="M134.041 52.1169C134.071 52.2862 133.953 52.5542 133.869 52.7502C133.759 53.0022 133.637 53.2462 133.513 53.4916C133.191 54.1249 132.833 54.7382 132.471 55.3489C131.702 56.6529 130.913 57.9502 130.087 59.2209C128.415 61.7996 126.674 64.3329 124.903 66.8436C121.371 71.8502 117.699 76.7596 113.965 81.6169C112.554 83.4529 111.153 85.2969 109.598 87.0129C108.841 87.8489 108.073 88.6782 107.311 89.5102C106.943 89.9116 106.569 90.3076 106.181 90.6902C105.983 90.8849 105.782 91.0782 105.573 91.2609C105.45 91.3716 105.183 91.6396 105.027 91.5982" stroke="#231916" stroke-width="0.466667" stroke-linecap="round" stroke-linejoin="round"/>
<path id="Vector_37" d="M61.5913 50.3495C61.5913 51.3402 60.7886 52.1455 59.798 52.1455C58.806 52.1455 58.002 51.3402 58.002 50.3495C58.002 49.3588 58.806 48.5535 59.798 48.5535C60.7886 48.5535 61.5913 49.3588 61.5913 50.3495Z" stroke="#231916" stroke-width="0.466667" stroke-miterlimit="10"/>
<path id="Vector_38" d="M41.6676 50.3211C41.6676 44.0611 36.5902 38.9825 30.3289 38.9825C24.0662 38.9825 18.9902 44.0611 18.9902 50.3211C18.9902 56.5838 24.0662 61.6611 30.3289 61.6611C36.5902 61.6611 41.6676 56.5838 41.6676 50.3211Z" stroke="#231916" stroke-width="0.466667" stroke-linecap="round" stroke-linejoin="round"/>
<path id="Vector_39" d="M77.5723 70.1652C77.5723 76.4266 82.6496 81.5039 88.9123 81.5039C95.1723 81.5039 100.251 76.4266 100.251 70.1652C100.251 63.9026 95.1723 58.8266 88.9123 58.8266C82.6496 58.8266 77.5723 63.9026 77.5723 70.1652Z" stroke="#231916" stroke-width="0.466667" stroke-linecap="round" stroke-linejoin="round"/>
<path id="Vector_40" d="M129.766 36.0943C129.181 35.9516 128.633 35.5356 128.136 35.2089C127.606 34.8623 127.086 34.4983 126.556 34.1516C125.325 33.3449 124.038 32.6409 122.722 31.9876C120.102 30.6836 117.44 29.5556 114.61 28.7916C108.882 27.2476 102.908 26.7769 97.0078 26.4316C84.8131 25.7196 72.5598 25.8049 60.3491 25.9116C54.1984 25.9663 48.0464 26.1103 41.9064 26.5009C35.9824 26.8756 29.9718 27.4036 24.2624 29.1209C21.6744 29.8996 19.2198 31.0103 16.8131 32.2329C15.6131 32.8436 14.4438 33.5089 13.3184 34.2516C12.7998 34.5943 12.2904 34.9489 11.7691 35.2889C11.5118 35.4556 11.2504 35.6209 10.9838 35.7716C10.9024 35.8183 10.2704 36.0583 10.2598 36.0996" stroke="#231916" stroke-width="0.466667" stroke-linecap="round" stroke-linejoin="round"/>
<g id="Analog_Stick">
<path id="Vector_41" d="M30.3299 58.2607C34.7126 58.2607 38.2646 54.7061 38.2646 50.3221C38.2646 45.9381 34.7126 42.3847 30.3299 42.3847C25.9459 42.3847 22.3926 45.9381 22.3926 50.3221C22.3926 54.7061 25.9459 58.2607 30.3299 58.2607Z" fill="#5A5A5A"/>
<path id="Vector_42" d="M30.3299 58.2607C34.7126 58.2607 38.2646 54.7061 38.2646 50.3221C38.2646 45.9381 34.7126 42.3847 30.3299 42.3847C25.9459 42.3847 22.3926 45.9381 22.3926 50.3221C22.3926 54.7061 25.9459 58.2607 30.3299 58.2607Z" stroke="#231916" stroke-width="0.466667" stroke-linecap="round" stroke-linejoin="round"/>
<path id="Vector_43" d="M30.3301 56.335C27.0074 56.335 24.3154 53.6443 24.3154 50.3216C24.3154 47.0016 27.0074 44.3096 30.3301 44.3096C33.6501 44.3096 36.3434 47.0016 36.3434 50.3216C36.3434 53.6443 33.6501 56.335 30.3301 56.335Z" stroke="#231916" stroke-width="0.466667" stroke-linecap="round" stroke-linejoin="round"/>
</g>
<g id="Analog_C_Stick">
<path id="Vector_44" d="M88.9116 78.1094C93.2943 78.1094 96.8476 74.556 96.8476 70.1734C96.8476 65.7894 93.2943 62.2347 88.9116 62.2347C84.5289 62.2347 80.9756 65.7894 80.9756 70.1734C80.9756 74.556 84.5289 78.1094 88.9116 78.1094Z" fill="#5A5A5A"/>
<path id="Vector_45" d="M88.9116 78.1094C93.2943 78.1094 96.8476 74.556 96.8476 70.1734C96.8476 65.7894 93.2943 62.2347 88.9116 62.2347C84.5289 62.2347 80.9756 65.7894 80.9756 70.1734C80.9756 74.556 84.5289 78.1094 88.9116 78.1094Z" stroke="#231916" stroke-width="0.466667" stroke-linecap="round" stroke-linejoin="round"/>
<path id="Vector_46" d="M88.9121 76.1855C85.5908 76.1855 82.8975 73.4935 82.8975 70.1722C82.8975 66.8495 85.5908 64.1575 88.9121 64.1575C92.2335 64.1575 94.9255 66.8495 94.9255 70.1709C94.9255 73.4935 92.2335 76.1855 88.9121 76.1855Z" stroke="#231916" stroke-width="0.466667" stroke-linecap="round" stroke-linejoin="round"/>
</g>
</g>
<path id="Vector_47" d="M58.1716 22.0073C58.2967 22.0067 58.5015 22.0067 58.6267 22.0073C58.7518 22.0078 58.6495 22.0083 58.3991 22.0083C58.1488 22.0083 58.0464 22.0078 58.1716 22.0073Z" fill="#7F7F7F"/>
<path id="Vector_48" d="M58.4764 22.0073C58.5133 22.0067 58.5748 22.0067 58.6131 22.0073C58.6514 22.008 58.6211 22.0083 58.546 22.0083C58.4708 22.0083 58.4395 22.0078 58.4764 22.0073Z" fill="#7F7F7F"/>
<path id="Vector_49" d="M58.3141 22.0073C58.3522 22.0067 58.4146 22.0067 58.4528 22.0073C58.4909 22.008 58.4598 22.0083 58.3835 22.0083C58.3072 22.0083 58.2759 22.0078 58.3141 22.0073Z" fill="#7F7F7F"/>
<path id="Vector_50" d="M58.4626 22.0074C58.475 22.0066 58.4944 22.0066 58.5056 22.0074C58.5168 22.0082 58.5066 22.0084 58.483 22.0084C58.4594 22.0084 58.4502 22.0078 58.4626 22.0074Z" fill="#7F7F7F"/>
<path id="Vector_51" d="M58.422 22.0074C58.4333 22.0066 58.4509 22.0066 58.4611 22.0074C58.4712 22.0082 58.462 22.0084 58.4405 22.0084C58.419 22.0084 58.4106 22.0078 58.422 22.0074Z" fill="#7F7F7F"/>
<path id="Vector_52" d="M58.4565 22.0075C58.4615 22.0066 58.4692 22.0066 58.4741 22.0075C58.4791 22.0085 58.475 22.0095 58.4651 22.0095C58.4551 22.0095 58.4519 22.0088 58.4565 22.0075Z" fill="#7F7F7F"/>
<path id="Vector_53" d="M58.4591 22.0075C58.4631 22.0065 58.4681 22.0066 58.4708 22.0077C58.4738 22.0087 58.4704 22.0097 58.4638 22.0097C58.4578 22.0096 58.4551 22.0086 58.4591 22.0075Z" fill="#7F7F7F"/>
</g>
</g>
<path id="Button_L" d="M17 9.21882V18H45V9.21882C45 4.67969 41.3203 1 36.7812 1H25.2188C20.6797 1 17 4.67969 17 9.21882Z" fill="#353535" stroke="#231916" stroke-width="0.47"/>
<path id="Button_R" d="M95 9.21882V18H123V9.21882C123 4.67969 119.32 1 114.781 1H103.219C98.6797 1 95 4.67969 95 9.21882Z" fill="#353535" stroke="#231916" stroke-width="0.47"/>
<path id="ZL" d="M25.1719 14V13.2969L29.4844 6.85937H25.125V6H30.6406V6.70312L26.3281 13.1406H30.6875V14H25.1719ZM32.3125 14V6H33.2813V13.1406H37V14H32.3125Z" fill="white"/>
<path id="ZR" d="M102.748 14V13.2969L107.06 6.85937H102.701V6H108.216V6.70312L103.904 13.1406H108.263V14H102.748ZM109.888 14V6H112.591C113.216 6 113.729 6.10677 114.13 6.32031C114.531 6.53125 114.828 6.82161 115.021 7.19141C115.214 7.5612 115.31 7.98177 115.31 8.45312C115.31 8.92448 115.214 9.34245 115.021 9.70703C114.828 10.0716 114.533 10.3581 114.134 10.5664C113.736 10.7721 113.227 10.875 112.607 10.875H110.419V10H112.576C113.003 10 113.347 9.9375 113.607 9.8125C113.87 9.6875 114.06 9.51042 114.177 9.28125C114.297 9.04948 114.357 8.77344 114.357 8.45312C114.357 8.13281 114.297 7.85286 114.177 7.61328C114.057 7.3737 113.866 7.1888 113.603 7.05859C113.34 6.92578 112.992 6.85937 112.56 6.85937H110.857V14H109.888ZM113.654 10.4062L115.623 14H114.498L112.56 10.4062H113.654Z" fill="white"/>
</g>
<defs>
<clipPath id="clip0_2831_1221">
<rect width="148" height="122" fill="white"/>
</clipPath>
</defs>
</svg>
