<svg width="145" height="101" viewBox="0 0 145 101" fill="none" xmlns="http://www.w3.org/2000/svg">
<g id="Nintendo_Switch_Pro_Controller 1" clip-path="url(#clip0_2789_41)">
<g id="Group">
<g id="Group_2">
<path id="Vector" d="M50.6514 1.90345L48.292 2.10656L51.2981 3.49514L78.8525 3.29595L92.7289 3.49514L94.5576 2.73156L96.1554 2.00314L88.0889 1.57531L58.8701 1.54395L50.6514 1.90345Z" fill="#898989"/>
<path id="Vector_2" d="M100 70.5981C101.294 70.5981 102.596 70.5741 103.887 70.6901C105.063 70.7955 106.254 71.0875 107.254 71.7395C108.362 72.4635 109.21 73.5008 109.952 74.5795C110.756 75.7461 111.428 76.9981 112.07 78.2595C113.432 80.9368 114.666 83.6781 116.048 86.3475C117.16 88.4981 118.296 90.6475 119.556 92.7168C120.782 94.7248 122.14 96.6768 124.079 98.0541C126.083 99.4755 128.527 100.237 130.986 100.07C133.592 99.8955 136.087 98.7315 138.086 97.0808C141.787 94.0248 143.428 89.3248 143.727 84.6501C143.915 81.7088 143.687 78.7368 143.376 75.8088C143.13 73.4888 142.838 71.1635 142.458 68.8608C142.178 67.1581 141.896 65.4555 141.616 63.7541C141.126 60.7861 140.636 57.8195 140.144 54.8501C139.775 52.6115 139.406 50.3715 139.035 48.1301C138.546 45.1581 137.995 42.1928 137.419 39.2341C136.991 37.0461 136.532 34.8675 136.14 32.6728C135.64 29.8608 135.018 27.0595 134.324 24.2888C133.97 22.8608 133.579 21.4408 133.144 20.0355C132.924 19.3301 132.695 18.6288 132.45 17.9328C132.322 17.5701 132.191 17.2075 132.055 16.8448C131.926 16.5048 131.822 16.1688 131.6 15.8768C131.142 15.2688 130.684 14.6608 130.224 14.0515C129.986 13.7341 129.746 13.4181 129.51 13.1021C129.332 12.8675 129.115 12.5315 128.835 12.4075C127.736 11.9248 126.676 11.3661 125.642 10.7541C124.366 10.0008 123.112 9.20746 121.799 8.51812C120.496 7.83679 119.15 7.24079 117.768 6.73813C114.947 5.71146 112.004 5.07813 109.034 4.66479C105.974 4.23813 102.884 4.00879 99.8029 3.82079C96.7149 3.63279 93.6216 3.51146 90.5296 3.42879C84.3603 3.26212 78.1869 3.25012 72.0149 3.25012C65.8416 3.25012 59.6683 3.26212 53.4989 3.42879C50.4056 3.51146 47.3136 3.63279 44.2256 3.82079C41.1416 4.00879 38.0536 4.23813 34.9936 4.66479C32.0256 5.07813 29.0803 5.71146 26.2589 6.73813C24.8789 7.24079 23.5309 7.83679 22.2296 8.51812C20.9163 9.20746 19.6629 10.0008 18.3856 10.7541C17.3536 11.3661 16.2923 11.9248 15.1936 12.4075C14.9136 12.5315 14.6949 12.8675 14.5203 13.1021C14.2803 13.4181 14.0429 13.7341 13.8043 14.0515C13.3456 14.6608 12.8856 15.2688 12.4256 15.8768C12.2056 16.1688 12.1003 16.5048 11.9736 16.8448C11.8376 17.2075 11.7069 17.5701 11.5789 17.9328C11.3349 18.6288 11.1029 19.3301 10.8843 20.0355C10.4469 21.4408 10.0589 22.8608 9.70161 24.2888C9.01228 27.0595 8.38828 29.8608 7.88695 32.6728C7.49495 34.8675 7.03628 37.0461 6.60961 39.2341C6.03228 42.1928 5.48294 45.1581 4.99094 48.1301C4.62161 50.3715 4.25228 52.6115 3.88161 54.8501C3.39228 57.8195 2.90294 60.7861 2.41361 63.7541C2.13227 65.4555 1.85095 67.1581 1.56961 68.8608C1.18961 71.1635 0.897609 73.4888 0.652276 75.8088C0.341609 78.7368 0.113608 81.7088 0.301608 84.6501C0.597608 89.3248 2.24161 94.0248 5.94161 97.0808C7.94028 98.7315 10.4349 99.8955 13.0403 100.07C15.5016 100.237 17.9443 99.4755 19.9469 98.0541C21.8883 96.6768 23.2469 94.7248 24.4709 92.7168C25.7336 90.6475 26.8656 88.4981 27.9803 86.3475C29.3616 83.6781 30.5949 80.9368 31.9589 78.2595C32.6003 76.9981 33.2723 75.7461 34.0749 74.5795C34.8189 73.5008 35.6656 72.4635 36.7749 71.7395C37.7749 71.0875 38.9656 70.7955 40.1416 70.6901C41.4309 70.5741 42.7336 70.5981 44.0283 70.5981H100Z" fill="#898989" stroke="#231916" stroke-width="0.466667" stroke-linecap="round" stroke-linejoin="round"/>
</g>
<g id="Group_3">
<path id="Vector_3" d="M90.9118 59.2354C85.9025 59.2354 81.8398 55.174 81.8398 50.1634C81.8398 45.1554 85.9025 41.0927 90.9118 41.0927C95.9212 41.0927 99.9825 45.1554 99.9825 50.1634C99.9825 55.174 95.9212 59.2354 90.9118 59.2354Z" fill="#DCDDDD"/>
<path id="Vector_4" d="M32.3298 39.3936C27.3191 39.3936 23.2578 35.3309 23.2578 30.3216C23.2578 25.3109 27.3191 21.2509 32.3298 21.2509C37.3391 21.2509 41.4005 25.3109 41.4005 30.3216C41.4005 35.3309 37.3391 39.3936 32.3298 39.3936Z" fill="#DCDDDD"/>
<path id="Vector_5" d="M53.239 54.067C53.239 53.987 53.2723 53.8723 53.3177 53.807C53.419 53.6537 53.5297 53.5937 53.7137 53.595C55.5563 53.595 57.403 53.5977 59.2483 53.6003C59.875 53.603 60.3817 53.095 60.3817 52.4697V50.163V47.859C60.3817 47.231 59.875 46.7243 59.2483 46.7257C57.403 46.7283 55.5563 46.731 53.7137 46.7337C53.451 46.7337 53.239 46.523 53.239 46.2617C53.2417 44.4163 53.2443 42.571 53.247 40.7257C53.2497 40.099 52.7417 39.591 52.115 39.591C50.5777 39.5923 49.0417 39.5923 47.5043 39.591C46.8777 39.591 46.371 40.099 46.3723 40.7257C46.375 42.571 46.3777 44.4163 46.3803 46.2617C46.3803 46.455 46.315 46.5697 46.1483 46.6683C46.0857 46.7057 45.9803 46.7337 45.907 46.7337C44.0617 46.731 42.2163 46.7283 40.3723 46.7257C39.7443 46.7243 39.2363 47.231 39.2363 47.859V50.163V52.4697C39.2363 53.095 39.7443 53.603 40.3723 53.6003C42.2163 53.5977 44.0617 53.595 45.907 53.595C46.091 53.5937 46.2003 53.6537 46.3017 53.807C46.3457 53.8723 46.3803 53.987 46.3803 54.067C46.3777 55.911 46.375 57.7577 46.3723 59.6017C46.371 60.2283 46.8777 60.7363 47.5043 60.7363H52.115C52.7417 60.7363 53.2497 60.2283 53.247 59.6017C53.2443 57.7577 53.2417 55.911 53.239 54.067Z" fill="#666565"/>
<rect id="Dpad_Left" x="39" y="46.9004" width="7.5" height="6.6" rx="1" fill="#666565"/>
<rect id="Dpad_Right" x="53" y="46.9004" width="7.5" height="6.6" rx="1" fill="#666565"/>
<rect id="Dpad_Up" x="46.25" y="39.7998" width="7" height="6.6" rx="1" fill="#666565"/>
<rect id="Dpad_Down" x="46.25" y="54" width="7" height="6.6" rx="1" fill="#666565"/>
<path id="Button_X" d="M104.116 30.3221C104.116 33.2567 101.736 35.6367 98.8014 35.6367C95.8667 35.6367 93.4854 33.2567 93.4854 30.3221C93.4854 27.3861 95.8667 25.0074 98.8014 25.0074C101.736 25.0074 104.116 27.3861 104.116 30.3221Z" fill="#666565"/>
<path id="Button_A" d="M104.73 40.0545C104.73 42.9891 107.11 45.3691 110.045 45.3691C112.98 45.3691 115.361 42.9891 115.361 40.0545C115.361 37.1198 112.98 34.7398 110.045 34.7398C107.11 34.7398 104.73 37.1198 104.73 40.0545Z" fill="#666565"/>
<path id="Button_B" d="M115.976 30.3221C115.976 27.3861 118.354 25.0074 121.289 25.0074C124.225 25.0074 126.605 27.3861 126.605 30.3221C126.605 33.2567 124.225 35.6367 121.289 35.6367C118.354 35.6367 115.976 33.2567 115.976 30.3221Z" fill="#666565"/>
<path id="Button_Y" d="M115.361 20.5896C115.361 23.5256 112.981 25.9043 110.046 25.9043C107.112 25.9043 104.73 23.5256 104.73 20.5896C104.73 17.6536 107.112 15.275 110.046 15.275C112.981 15.275 115.361 17.6536 115.361 20.5896Z" fill="#666565"/>
<path id="Vector_6" d="M58.9512 32.2347V28.408C58.9512 27.8854 59.3738 27.4627 59.8965 27.4627H63.7232C64.2445 27.4627 64.6685 27.8854 64.6685 28.408V32.2347C64.6685 32.7574 64.2445 33.1787 63.7232 33.1787H59.8965C59.3738 33.1787 58.9512 32.7574 58.9512 32.2347Z" fill="#666565"/>
<path id="Button_Start" d="M86.5654 19.4556C86.5654 17.6809 88.0028 16.2449 89.7774 16.2449C91.5521 16.2449 92.9908 17.6809 92.9908 19.4556C92.9908 21.2303 91.5521 22.6689 89.7774 22.6689C88.0028 22.6689 86.5654 21.2303 86.5654 19.4556Z" fill="#666565"/>
<path id="Button_Select" d="M51.0381 19.4556C51.0381 17.6809 52.4768 16.2449 54.2501 16.2449C56.0234 16.2449 57.4621 17.6809 57.4621 19.4556C57.4621 21.2303 56.0234 22.6689 54.2501 22.6689C52.4768 22.6689 51.0381 21.2303 51.0381 19.4556Z" fill="#666565"/>
<path id="Vector_7" d="M85.4318 30.3222C85.4318 32.0955 83.9945 33.5342 82.2185 33.5342C80.4451 33.5342 79.0078 32.0955 79.0078 30.3222C79.0078 28.5475 80.4451 27.1075 82.2185 27.1075C83.9945 27.1075 85.4318 28.5475 85.4318 30.3222Z" fill="#666565"/>
<path id="Vector_8" d="M109.371 41.4109H109.996C110.483 41.4109 110.907 41.2282 110.907 40.7682C110.907 40.3322 110.595 40.1162 110.058 40.1162H109.371V41.4109ZM109.371 39.8415H110.048C110.371 39.8415 110.748 39.7029 110.748 39.2629C110.748 38.8429 110.39 38.6842 109.954 38.6842H109.371V39.8415ZM109.035 38.3935H110.019C110.524 38.3935 111.084 38.5762 111.084 39.2389C111.084 39.5855 110.851 39.8695 110.502 39.9495V39.9575C110.931 40.0042 111.248 40.3042 111.248 40.7855C111.248 41.3362 110.778 41.7002 110.014 41.7002H109.035V38.3935Z" fill="white"/>
<path id="Vector_9" d="M120.559 30.6039H122.015L121.287 28.8479L120.559 30.6039ZM120.072 31.7812H119.703L121.134 28.4732H121.46L122.879 31.7812H122.507L122.143 30.9106H120.431L120.072 31.7812Z" fill="white"/>
<path id="Vector_10" d="M110.053 20.2653L110.956 18.9293H111.359L110.259 20.504L111.473 22.2373H111.053L110.045 20.7466L109.04 22.2373H108.62L109.835 20.5L108.728 18.9293H109.147L110.053 20.2653Z" fill="white"/>
<path id="Vector_11" d="M98.9721 31.9678H98.6348V30.5438L97.3975 28.6611H97.8188L98.8135 30.2638L99.8175 28.6611H100.211L98.9721 30.5438V31.9678Z" fill="white"/>
<path id="Button_ZL" d="M15.5994 12.225C16.554 11.7864 17.4807 11.2917 18.386 10.7544C19.6634 10.001 20.9154 9.20771 22.23 8.51971C23.5314 7.83704 24.8794 7.24238 26.2594 6.73971C29.0794 5.71171 32.0247 5.07971 34.994 4.66504C38.054 4.23971 41.142 4.00904 44.226 3.82104C46.5807 3.67837 48.9394 3.57438 51.298 3.49571C50.022 2.93704 47.2047 1.71037 45.9234 1.16104L45.9207 1.15971C45.8447 1.12637 45.7674 1.09304 45.69 1.05971L45.686 1.05837C44.5874 0.586374 43.5274 0.221042 42.2914 0.234375C41.7394 0.241042 40.774 0.290375 40.2234 0.331708C37.9234 0.507708 35.638 0.758375 33.358 1.10904C32.7967 1.19437 32.2367 1.28904 31.6767 1.38904C29.9127 1.70371 28.186 2.08504 26.4914 2.69304C25.6607 2.98904 24.2754 3.62104 23.5074 4.05704C21.8047 5.02237 20.2647 6.14637 18.8194 7.46504C18.4727 7.77971 18.1874 8.13037 17.942 8.52771C17.9407 8.52637 17.9394 8.52638 17.9394 8.52638L17.942 8.52771C17.2967 9.55704 16.2394 11.2104 15.582 12.2344L15.5994 12.225Z" fill="#666565"/>
<path id="Button_ZR" d="M128.427 12.225C127.473 11.7864 126.546 11.2917 125.641 10.7544C124.363 10.001 123.111 9.20771 121.797 8.51971C120.495 7.83704 119.147 7.24238 117.767 6.73971C114.947 5.71171 112.002 5.07971 109.033 4.66504C105.973 4.23971 102.885 4.00904 99.8005 3.82104C97.4459 3.67837 95.0872 3.57437 92.7285 3.49571C94.0045 2.93704 96.8218 1.71037 98.1032 1.16104L98.1059 1.15971C98.1819 1.12637 98.2592 1.09304 98.3365 1.05971L98.3405 1.05837C99.4392 0.586375 100.499 0.221041 101.735 0.234375C102.289 0.241041 103.253 0.290375 103.803 0.331708C106.103 0.507708 108.389 0.758375 110.669 1.10904C111.23 1.19437 111.791 1.28904 112.35 1.38904C114.114 1.70371 115.841 2.08504 117.535 2.69304C118.366 2.98904 119.751 3.62104 120.519 4.05704C122.222 5.02237 123.762 6.14637 125.207 7.46504C125.554 7.77971 125.839 8.13037 126.085 8.52771C126.086 8.52637 126.087 8.52638 126.087 8.52638L126.085 8.52771C126.73 9.55704 127.789 11.2104 128.445 12.2344L128.427 12.225Z" fill="#666565"/>
<path id="Vector_12" d="M49.9251 58.0342C49.8611 58.1462 49.7544 58.1462 49.6917 58.0342L48.8904 56.6462C48.8264 56.5368 48.8797 56.4462 49.0077 56.4462H50.6091C50.7371 56.4462 50.7891 56.5368 50.7237 56.6462L49.9251 58.0342Z" fill="white"/>
<path id="Vector_13" d="M49.6909 42.4543C49.7549 42.3437 49.8616 42.3437 49.9256 42.4543L50.7229 43.8397C50.7896 43.953 50.7362 44.041 50.6082 44.041H49.0069C48.8802 44.041 48.8269 43.953 48.8896 43.8397L49.6909 42.4543Z" fill="white"/>
<path id="Vector_14" d="M57.6811 50.0464C57.7905 50.1091 57.7905 50.2144 57.6811 50.2811L56.2931 51.0798C56.1811 51.1438 56.0918 51.0931 56.0918 50.9651V49.3624C56.0918 49.2344 56.1811 49.1824 56.2931 49.2438L57.6811 50.0464Z" fill="white"/>
<path id="Vector_15" d="M42.0967 50.278C41.9847 50.214 41.9847 50.1073 42.0967 50.046L43.4834 49.2446C43.594 49.1793 43.686 49.2326 43.686 49.3606V50.9633C43.686 51.09 43.594 51.1433 43.4834 51.0793L42.0967 50.278Z" fill="white"/>
<path id="Vector_16" d="M90.0588 21.0596H89.4735V19.7476H88.1602V19.1609H89.4735V17.8489H90.0588V19.1609H91.3708V19.7476H90.0588V21.0596Z" fill="#231916"/>
<path id="Vector_17" d="M55.8542 19.7738H52.6436V19.1885H55.8542V19.7738Z" fill="#231916"/>
<path id="Vector_18" d="M82.79 30.9937C82.79 31.0763 82.7566 31.1097 82.674 31.1097H81.7473C81.666 31.1097 81.6326 31.0763 81.6326 30.9937V30.299C81.6326 30.2163 81.666 30.183 81.7473 30.183H82.674C82.7526 30.183 82.786 30.215 82.79 30.2937V30.9937ZM84.0166 29.863C83.4393 29.3723 82.8633 28.8817 82.286 28.3923C82.2313 28.3457 82.19 28.3457 82.1353 28.3923C81.5593 28.8817 80.982 29.3723 80.406 29.863C80.302 29.9523 80.3433 30.067 80.4806 30.067H80.7033C80.786 30.067 80.8193 30.1003 80.8193 30.1843V31.6883C80.8193 31.7723 80.854 31.8057 80.9353 31.8057H83.486C83.5673 31.8057 83.6006 31.7723 83.6006 31.6883V30.1843C83.6006 30.1003 83.6353 30.067 83.718 30.067H83.9406C84.078 30.067 84.1206 29.9523 84.0166 29.863Z" fill="#231916"/>
<g id="Group_4">
<path id="Vector_19" d="M53.239 54.067C53.239 53.987 53.2723 53.8723 53.3177 53.807C53.419 53.6537 53.5297 53.5937 53.7137 53.595C55.5563 53.595 57.403 53.5977 59.2483 53.6003C59.875 53.603 60.3817 53.095 60.3817 52.4697V50.163V47.859C60.3817 47.231 59.875 46.7243 59.2483 46.7257C57.403 46.7283 55.5563 46.731 53.7137 46.7337C53.451 46.7337 53.239 46.523 53.239 46.2617C53.2417 44.4163 53.2443 42.571 53.247 40.7257C53.2497 40.099 52.7417 39.591 52.115 39.591C50.5777 39.5923 49.0417 39.5923 47.5043 39.591C46.8777 39.591 46.371 40.099 46.3723 40.7257C46.375 42.571 46.3777 44.4163 46.3803 46.2617C46.3803 46.455 46.315 46.5697 46.1483 46.6683C46.0857 46.7057 45.9803 46.7337 45.907 46.7337C44.0617 46.731 42.2163 46.7283 40.3723 46.7257C39.7443 46.7243 39.2363 47.231 39.2363 47.859V50.163V52.4697C39.2363 53.095 39.7443 53.603 40.3723 53.6003C42.2163 53.5977 44.0617 53.595 45.907 53.595C46.091 53.5937 46.2003 53.6537 46.3017 53.807C46.3457 53.8723 46.3803 53.987 46.3803 54.067C46.3777 55.911 46.375 57.7577 46.3723 59.6017C46.371 60.2283 46.8777 60.7363 47.5043 60.7363H52.115C52.7417 60.7363 53.2497 60.2283 53.247 59.6017C53.2443 57.7577 53.2417 55.911 53.239 54.067Z" stroke="#231916" stroke-width="0.466667" stroke-linecap="round" stroke-linejoin="round"/>
<path id="Vector_20" d="M77.7773 30.3221C77.7773 32.7741 79.7667 34.7607 82.2173 34.7607C84.6707 34.7607 86.66 32.7741 86.66 30.3221C86.66 27.8687 84.6707 25.8807 82.2173 25.8807C79.7667 25.8807 77.7773 27.8687 77.7773 30.3221Z" stroke="#231916" stroke-width="0.466667" stroke-linecap="round" stroke-linejoin="round"/>
<path id="Vector_21" d="M104.116 30.3221C104.116 33.2567 101.736 35.6367 98.8014 35.6367C95.8667 35.6367 93.4854 33.2567 93.4854 30.3221C93.4854 27.3861 95.8667 25.0074 98.8014 25.0074C101.736 25.0074 104.116 27.3861 104.116 30.3221Z" stroke="#231916" stroke-width="0.466667" stroke-linecap="round" stroke-linejoin="round"/>
<path id="Vector_22" d="M104.73 40.0545C104.73 42.9891 107.11 45.3691 110.045 45.3691C112.98 45.3691 115.361 42.9891 115.361 40.0545C115.361 37.1198 112.98 34.7398 110.045 34.7398C107.11 34.7398 104.73 37.1198 104.73 40.0545Z" stroke="#231916" stroke-width="0.466667" stroke-linecap="round" stroke-linejoin="round"/>
<path id="Vector_23" d="M115.976 30.3221C115.976 27.3861 118.354 25.0074 121.289 25.0074C124.225 25.0074 126.605 27.3861 126.605 30.3221C126.605 33.2567 124.225 35.6367 121.289 35.6367C118.354 35.6367 115.976 33.2567 115.976 30.3221Z" stroke="#231916" stroke-width="0.466667" stroke-linecap="round" stroke-linejoin="round"/>
<path id="Vector_24" d="M115.361 20.5896C115.361 23.5256 112.981 25.9043 110.046 25.9043C107.112 25.9043 104.73 23.5256 104.73 20.5896C104.73 17.6536 107.112 15.275 110.046 15.275C112.981 15.275 115.361 17.6536 115.361 20.5896Z" stroke="#231916" stroke-width="0.466667" stroke-linecap="round" stroke-linejoin="round"/>
<path id="Vector_25" d="M64.1709 27.5772V27.5879H64.1909" stroke="#231916" stroke-width="0.466667" stroke-linecap="round" stroke-linejoin="round"/>
<path id="Vector_26" d="M58.9512 32.2347V28.408C58.9512 27.8854 59.3738 27.4627 59.8965 27.4627H63.7232C64.2445 27.4627 64.6685 27.8854 64.6685 28.408V32.2347C64.6685 32.7574 64.2445 33.1787 63.7232 33.1787H59.8965C59.3738 33.1787 58.9512 32.7574 58.9512 32.2347Z" stroke="#231916" stroke-width="0.466667" stroke-linecap="round" stroke-linejoin="round"/>
<path id="Vector_27" d="M15.582 12.2334C16.238 11.2094 17.2967 9.55607 17.942 8.52673M17.942 8.52673L17.9394 8.5254C17.9394 8.5254 17.9407 8.5254 17.942 8.52673ZM17.942 8.52673C18.1874 8.1294 18.4727 7.77873 18.8194 7.46407C20.2647 6.14673 21.8047 5.0214 23.506 4.05606C24.2754 3.62006 25.6607 2.98806 26.4914 2.69206C28.186 2.0854 29.9127 1.70407 31.6754 1.38807C32.2354 1.28807 32.7967 1.19473 33.358 1.10806C35.638 0.758732 37.9234 0.506731 40.222 0.330731C40.774 0.289398 41.738 0.240065 42.29 0.233398C43.5274 0.220065 44.5874 0.586731 45.686 1.0574L45.69 1.05873C45.7674 1.0934 45.8434 1.1254 45.9207 1.15873L45.9234 1.16006C47.2047 1.7094 50.022 2.93606 51.298 3.49473" stroke="#231916" stroke-width="0.466667" stroke-linecap="round" stroke-linejoin="round"/>
<path id="Vector_28" d="M90.9118 59.2354C85.9025 59.2354 81.8398 55.174 81.8398 50.1634C81.8398 45.1554 85.9025 41.0927 90.9118 41.0927C95.9212 41.0927 99.9825 45.1554 99.9825 50.1634C99.9825 55.174 95.9212 59.2354 90.9118 59.2354Z" stroke="#231916" stroke-width="0.466667" stroke-linecap="round" stroke-linejoin="round"/>
<path id="Vector_29" d="M86.5654 19.4556C86.5654 17.6809 88.0028 16.2449 89.7774 16.2449C91.5521 16.2449 92.9908 17.6809 92.9908 19.4556C92.9908 21.2303 91.5521 22.6689 89.7774 22.6689C88.0028 22.6689 86.5654 21.2303 86.5654 19.4556Z" stroke="#231916" stroke-width="0.466667" stroke-linecap="round" stroke-linejoin="round"/>
<path id="Vector_30" d="M51.0381 19.4556C51.0381 17.6809 52.4768 16.2449 54.2501 16.2449C56.0234 16.2449 57.4621 17.6809 57.4621 19.4556C57.4621 21.2303 56.0234 22.6689 54.2501 22.6689C52.4768 22.6689 51.0381 21.2303 51.0381 19.4556Z" stroke="#231916" stroke-width="0.466667" stroke-linecap="round" stroke-linejoin="round"/>
<path id="Vector_31" d="M85.4318 30.3222C85.4318 32.0955 83.9945 33.5342 82.2185 33.5342C80.4451 33.5342 79.0078 32.0955 79.0078 30.3222C79.0078 28.5475 80.4451 27.1075 82.2185 27.1075C83.9945 27.1075 85.4318 28.5475 85.4318 30.3222Z" stroke="#231916" stroke-width="0.466667" stroke-linecap="round" stroke-linejoin="round"/>
<path id="Vector_32" d="M32.3298 39.3936C27.3191 39.3936 23.2578 35.3309 23.2578 30.3216C23.2578 25.3109 27.3191 21.2509 32.3298 21.2509C37.3391 21.2509 41.4005 25.3109 41.4005 30.3216C41.4005 35.3309 37.3391 39.3936 32.3298 39.3936Z" stroke="#231916" stroke-width="0.466667" stroke-linecap="round" stroke-linejoin="round"/>
<path id="Vector_33" d="M7.98741 32.1169C7.95674 32.2862 8.07408 32.5542 8.15941 32.7502C8.27008 33.0022 8.39141 33.2462 8.51541 33.4916C8.83541 34.1249 9.19541 34.7382 9.55674 35.3489C10.3274 36.6529 11.1154 37.9502 11.9394 39.2209C13.6127 41.7996 15.3527 44.3329 17.1247 46.8436C20.6567 51.8502 24.3287 56.7596 28.0647 61.6169C29.4741 63.4529 30.8754 65.2969 32.4314 67.0129C33.1887 67.8489 33.9554 68.6782 34.7181 69.5102C35.0847 69.9116 35.4607 70.3076 35.8474 70.6902C36.0461 70.8849 36.2461 71.0782 36.4554 71.2609C36.5781 71.3716 36.8434 71.6396 36.9994 71.5982" stroke="#231916" stroke-width="0.466667" stroke-linecap="round" stroke-linejoin="round"/>
<path id="Vector_34" d="M128.445 12.2334C127.791 11.2094 126.731 9.55607 126.087 8.52673M126.087 8.52673L126.089 8.5254C126.087 8.5254 126.087 8.5254 126.087 8.52673ZM126.087 8.52673C125.841 8.1294 125.557 7.77873 125.21 7.46407C123.765 6.14673 122.223 5.0214 120.523 4.05606C119.754 3.62006 118.369 2.98806 117.535 2.69206C115.843 2.0854 114.114 1.70407 112.351 1.38807C111.791 1.28807 111.231 1.19473 110.669 1.10806C108.39 0.758732 106.105 0.506731 103.806 0.330731C103.254 0.289398 102.291 0.240065 101.738 0.233398C100.502 0.220065 99.4419 0.586731 98.3405 1.0574L98.3379 1.05873C98.2605 1.0934 98.1845 1.1254 98.1072 1.15873L98.1032 1.16006C96.8218 1.7094 94.0072 2.93606 92.7285 3.49473" stroke="#231916" stroke-width="0.466667" stroke-linecap="round" stroke-linejoin="round"/>
<g id="Vector_35">
<path d="M96.1554 2.00293C89.9527 1.70693 82.874 1.47226 76.666 1.45226C74.3407 1.44426 69.6874 1.4456 67.362 1.45226C61.154 1.4696 54.0767 1.70693 47.874 2.00293" fill="#898989"/>
<path d="M96.1554 2.00293C89.9527 1.70693 82.874 1.47226 76.666 1.45226C74.3407 1.44426 69.6874 1.4456 67.362 1.45226C61.154 1.4696 54.0767 1.70693 47.874 2.00293" stroke="#231916" stroke-width="0.466667" stroke-linecap="round" stroke-linejoin="round"/>
</g>
<path id="Vector_36" d="M136.041 32.1169C136.071 32.2862 135.953 32.5542 135.869 32.7502C135.759 33.0022 135.637 33.2462 135.513 33.4916C135.191 34.1249 134.833 34.7382 134.471 35.3489C133.702 36.6529 132.913 37.9502 132.087 39.2209C130.415 41.7996 128.674 44.3329 126.903 46.8436C123.371 51.8502 119.699 56.7596 115.965 61.6169C114.554 63.4529 113.153 65.2969 111.598 67.0129C110.841 67.8489 110.073 68.6782 109.311 69.5102C108.943 69.9116 108.569 70.3076 108.181 70.6902C107.983 70.8849 107.782 71.0782 107.573 71.2609C107.45 71.3716 107.183 71.6396 107.027 71.5982" stroke="#231916" stroke-width="0.466667" stroke-linecap="round" stroke-linejoin="round"/>
<path id="Vector_37" d="M63.5913 30.3495C63.5913 31.3402 62.7886 32.1455 61.798 32.1455C60.806 32.1455 60.002 31.3402 60.002 30.3495C60.002 29.3588 60.806 28.5535 61.798 28.5535C62.7886 28.5535 63.5913 29.3588 63.5913 30.3495Z" stroke="#231916" stroke-width="0.466667" stroke-miterlimit="10"/>
<path id="Vector_38" d="M43.6676 30.3211C43.6676 24.0611 38.5902 18.9825 32.3289 18.9825C26.0662 18.9825 20.9902 24.0611 20.9902 30.3211C20.9902 36.5838 26.0662 41.6611 32.3289 41.6611C38.5902 41.6611 43.6676 36.5838 43.6676 30.3211Z" stroke="#231916" stroke-width="0.466667" stroke-linecap="round" stroke-linejoin="round"/>
<path id="Vector_39" d="M79.5723 50.1652C79.5723 56.4266 84.6496 61.5039 90.9123 61.5039C97.1723 61.5039 102.251 56.4266 102.251 50.1652C102.251 43.9026 97.1723 38.8266 90.9123 38.8266C84.6496 38.8266 79.5723 43.9026 79.5723 50.1652Z" stroke="#231916" stroke-width="0.466667" stroke-linecap="round" stroke-linejoin="round"/>
<path id="Vector_40" d="M131.766 16.0943C131.181 15.9516 130.633 15.5356 130.136 15.2089C129.606 14.8623 129.086 14.4983 128.556 14.1516C127.325 13.3449 126.038 12.6409 124.722 11.9876C122.102 10.6836 119.44 9.55561 116.61 8.79161C110.882 7.24761 104.908 6.77694 99.0078 6.43161C86.8131 5.71961 74.5598 5.80494 62.3491 5.91161C56.1984 5.96628 50.0464 6.11028 43.9064 6.50094C37.9824 6.87561 31.9718 7.40361 26.2624 9.12094C23.6744 9.89961 21.2198 11.0103 18.8131 12.2329C17.6131 12.8436 16.4438 13.5089 15.3184 14.2516C14.7998 14.5943 14.2904 14.9489 13.7691 15.2889C13.5118 15.4556 13.2504 15.6209 12.9838 15.7716C12.9024 15.8183 12.2704 16.0583 12.2598 16.0996" stroke="#231916" stroke-width="0.466667" stroke-linecap="round" stroke-linejoin="round"/>
<g id="Analog_Stick">
<path id="Vector_41" d="M32.3299 38.2607C36.7126 38.2607 40.2646 34.7061 40.2646 30.3221C40.2646 25.9381 36.7126 22.3847 32.3299 22.3847C27.9459 22.3847 24.3926 25.9381 24.3926 30.3221C24.3926 34.7061 27.9459 38.2607 32.3299 38.2607Z" fill="#666565"/>
<path id="Vector_42" d="M32.3299 38.2607C36.7126 38.2607 40.2646 34.7061 40.2646 30.3221C40.2646 25.9381 36.7126 22.3847 32.3299 22.3847C27.9459 22.3847 24.3926 25.9381 24.3926 30.3221C24.3926 34.7061 27.9459 38.2607 32.3299 38.2607Z" stroke="#231916" stroke-width="0.466667" stroke-linecap="round" stroke-linejoin="round"/>
<path id="Vector_43" d="M32.3301 36.335C29.0074 36.335 26.3154 33.6443 26.3154 30.3216C26.3154 27.0016 29.0074 24.3096 32.3301 24.3096C35.6501 24.3096 38.3434 27.0016 38.3434 30.3216C38.3434 33.6443 35.6501 36.335 32.3301 36.335Z" stroke="#231916" stroke-width="0.466667" stroke-linecap="round" stroke-linejoin="round"/>
</g>
<g id="Analog_C_Stick">
<path id="Vector_44" d="M90.9116 58.1025C95.2943 58.1025 98.8476 54.5492 98.8476 50.1665C98.8476 45.7825 95.2943 42.2279 90.9116 42.2279C86.5289 42.2279 82.9756 45.7825 82.9756 50.1665C82.9756 54.5492 86.5289 58.1025 90.9116 58.1025Z" fill="#666565"/>
<path id="Vector_45" d="M90.9116 58.1025C95.2943 58.1025 98.8476 54.5492 98.8476 50.1665C98.8476 45.7825 95.2943 42.2279 90.9116 42.2279C86.5289 42.2279 82.9756 45.7825 82.9756 50.1665C82.9756 54.5492 86.5289 58.1025 90.9116 58.1025Z" stroke="#231916" stroke-width="0.466667" stroke-linecap="round" stroke-linejoin="round"/>
<path id="Vector_46" d="M90.9121 56.1787C87.5908 56.1787 84.8975 53.4867 84.8975 50.1654C84.8975 46.8427 87.5908 44.1507 90.9121 44.1507C94.2335 44.1507 96.9255 46.8427 96.9255 50.164C96.9255 53.4867 94.2335 56.1787 90.9121 56.1787Z" stroke="#231916" stroke-width="0.466667" stroke-linecap="round" stroke-linejoin="round"/>
</g>
</g>
<path id="Vector_47" d="M60.1716 2.00726C60.2967 2.00669 60.5015 2.00669 60.6267 2.00726C60.7518 2.00784 60.6495 2.00826 60.3991 2.00826C60.1488 2.00826 60.0464 2.0078 60.1716 2.00726Z" fill="#7F7F7F"/>
<path id="Vector_48" d="M60.4764 2.00732C60.5133 2.00668 60.5748 2.00668 60.6131 2.00732C60.6514 2.00796 60.6211 2.00832 60.546 2.00832C60.4708 2.00833 60.4395 2.0078 60.4764 2.00732Z" fill="#7F7F7F"/>
<path id="Vector_49" d="M60.3141 2.00732C60.3522 2.00668 60.4146 2.00668 60.4528 2.00732C60.4909 2.00796 60.4598 2.00832 60.3835 2.00832C60.3072 2.00832 60.2759 2.0078 60.3141 2.00732Z" fill="#7F7F7F"/>
<path id="Vector_50" d="M60.4626 2.00741C60.475 2.00663 60.4944 2.00665 60.5056 2.00744C60.5168 2.00822 60.5066 2.00844 60.483 2.00844C60.4594 2.00843 60.4502 2.00776 60.4626 2.00741Z" fill="#7F7F7F"/>
<path id="Vector_51" d="M60.422 2.00742C60.4333 2.00663 60.4509 2.00664 60.4611 2.00744C60.4712 2.00824 60.462 2.00844 60.4405 2.00844C60.419 2.00843 60.4106 2.00775 60.422 2.00742Z" fill="#7F7F7F"/>
<path id="Vector_52" d="M60.4565 2.00753C60.4615 2.0066 60.4692 2.0066 60.4741 2.00753C60.4791 2.00846 60.475 2.00953 60.4651 2.00953C60.4551 2.00953 60.4519 2.00877 60.4565 2.00753Z" fill="#7F7F7F"/>
<path id="Vector_53" d="M60.4591 2.00754C60.4631 2.00655 60.4681 2.00661 60.4708 2.00768C60.4738 2.00868 60.4704 2.00968 60.4638 2.00968C60.4578 2.0096 60.4551 2.00859 60.4591 2.00754Z" fill="#7F7F7F"/>
</g>
</g>
</g>
<defs>
<clipPath id="clip0_2789_41">
<rect width="144.029" height="100.326" fill="white"/>
</clipPath>
</defs>
</svg>
