<svg width="2477" height="1249" viewBox="0 0 2477 1249" fill="none" xmlns="http://www.w3.org/2000/svg">
<g id="wcc_black">
<path id="Button_R" d="M1705 50.3115C1705 22.5252 1727.53 0 1755.31 0H2063.75C2173.79 0 2263 89.2091 2263 199.254C2263 210.159 2254.16 219 2243.25 219H1804C1749.32 219 1705 174.676 1705 120V50.3115Z" fill="#363636"/>
<path id="Button_L" d="M224 199.254C224 89.2091 313.209 0 423.254 0H731.689C759.475 0 782 22.5252 782 50.3115V120C782 174.676 737.676 219 683 219H243.746C232.841 219 224 210.159 224 199.254Z" fill="#363636"/>
<rect id="Button_ZL" x="984" width="172" height="219" rx="86" fill="#454545"/>
<rect id="Button_ZR" x="1349" width="172" height="219" rx="86" fill="#454545"/>
<path id="rect2159" d="M1873.09 51H593.907C265.901 51 0 316.943 0 645C0 973.057 265.901 1239 593.907 1239H1873.09C2201.1 1239 2467 973.057 2467 645C2467 316.943 2201.1 51 1873.09 51Z" fill="black"/>
<path id="rect4103" d="M540 427H412V554H540V427Z" fill="#363636"/>
<path id="Button_Y" d="M2074.97 316.877C2074.97 341.114 2065.34 364.358 2048.21 381.496C2031.07 398.633 2007.83 408.261 1983.6 408.261C1959.37 408.261 1936.13 398.633 1918.99 381.496C1901.86 364.358 1892.23 341.114 1892.23 316.877C1892.23 292.64 1901.86 269.396 1918.99 252.258C1936.13 235.12 1959.37 225.492 1983.6 225.492C2007.83 225.492 2031.07 235.12 2048.21 252.258C2065.34 269.396 2074.97 292.64 2074.97 316.877Z" fill="#363636"/>
<path id="Button_X" d="M1837.41 499.646C1837.41 523.883 1827.78 547.127 1810.64 564.265C1793.51 581.403 1770.27 591.031 1746.04 591.031C1721.8 591.031 1698.56 581.403 1681.43 564.265C1664.29 547.127 1654.67 523.883 1654.67 499.646C1654.67 475.41 1664.29 452.166 1681.43 435.028C1698.56 417.89 1721.8 408.262 1746.04 408.262C1770.27 408.262 1793.51 417.89 1810.64 435.028C1827.78 452.166 1837.41 475.41 1837.41 499.646Z" fill="#363636"/>
<path id="Button_B" d="M2312.53 504.49C2312.54 515.859 2310.18 527.118 2305.59 537.624C2301.01 548.13 2294.28 557.677 2285.79 565.719C2277.31 573.76 2267.23 580.14 2256.14 584.492C2245.05 588.845 2233.17 591.085 2221.16 591.085C2209.16 591.085 2197.27 588.845 2186.18 584.492C2175.09 580.14 2165.02 573.76 2156.53 565.719C2148.05 557.677 2141.32 548.13 2136.73 537.624C2132.14 527.118 2129.79 515.859 2129.79 504.49C2129.79 493.12 2132.14 481.861 2136.73 471.355C2141.32 460.849 2148.05 451.303 2156.53 443.261C2165.02 435.219 2175.09 428.84 2186.18 424.487C2197.27 420.135 2209.16 417.895 2221.16 417.895C2233.17 417.895 2245.05 420.135 2256.14 424.487C2267.23 428.84 2277.31 435.219 2285.79 443.261C2294.28 451.303 2301.01 460.849 2305.59 471.355C2310.18 481.861 2312.54 493.12 2312.53 504.49Z" fill="#363636"/>
<path id="Button_A" d="M2074.97 682.416C2074.97 706.653 2065.34 729.897 2048.21 747.035C2031.07 764.172 2007.83 773.8 1983.6 773.8C1959.37 773.8 1936.13 764.172 1918.99 747.035C1901.86 729.897 1892.23 706.653 1892.23 682.416C1892.23 658.179 1901.86 634.935 1918.99 617.797C1936.13 600.659 1959.37 591.031 1983.6 591.031C2007.83 591.031 2031.07 600.659 2048.21 617.797C2065.34 634.935 2074.97 658.179 2074.97 682.416Z" fill="#363636"/>
<path id="a" d="M2214.85 540.057C2211.53 540.057 2208.54 539.466 2205.88 538.284C2203.24 537.08 2201.15 535.307 2199.61 532.966C2198.09 530.625 2197.32 527.739 2197.32 524.307C2197.32 521.352 2197.87 518.909 2198.96 516.977C2200.05 515.045 2201.54 513.5 2203.43 512.341C2205.31 511.182 2207.44 510.307 2209.8 509.716C2212.19 509.102 2214.65 508.659 2217.2 508.386C2220.27 508.068 2222.76 507.784 2224.66 507.534C2226.57 507.261 2227.96 506.852 2228.82 506.307C2229.71 505.739 2230.15 504.864 2230.15 503.682V503.477C2230.15 500.909 2229.39 498.92 2227.87 497.511C2226.35 496.102 2224.15 495.398 2221.29 495.398C2218.27 495.398 2215.87 496.057 2214.1 497.375C2212.35 498.693 2211.16 500.25 2210.55 502.045L2199.03 500.409C2199.94 497.227 2201.44 494.568 2203.53 492.432C2205.62 490.273 2208.18 488.659 2211.2 487.591C2214.22 486.5 2217.56 485.955 2221.22 485.955C2223.74 485.955 2226.26 486.25 2228.76 486.841C2231.26 487.432 2233.54 488.409 2235.61 489.773C2237.68 491.114 2239.34 492.943 2240.59 495.261C2241.86 497.58 2242.49 500.477 2242.49 503.955V539H2230.63V531.807H2230.22C2229.47 533.261 2228.41 534.625 2227.05 535.898C2225.71 537.148 2224.02 538.159 2221.97 538.932C2219.95 539.682 2217.57 540.057 2214.85 540.057ZM2218.05 530.989C2220.53 530.989 2222.68 530.5 2224.49 529.523C2226.31 528.523 2227.71 527.205 2228.69 525.568C2229.69 523.932 2230.19 522.148 2230.19 520.216V514.045C2229.8 514.364 2229.14 514.659 2228.21 514.932C2227.3 515.205 2226.28 515.443 2225.14 515.648C2224.01 515.852 2222.88 516.034 2221.77 516.193C2220.65 516.352 2219.69 516.489 2218.87 516.602C2217.03 516.852 2215.38 517.261 2213.93 517.83C2212.47 518.398 2211.32 519.193 2210.48 520.216C2209.64 521.216 2209.22 522.511 2209.22 524.102C2209.22 526.375 2210.05 528.091 2211.71 529.25C2213.37 530.409 2215.48 530.989 2218.05 530.989Z" fill="white"/>
<path id="b" d="M1961.15 717V647.182H1973.49V673.295H1974C1974.64 672.023 1975.54 670.67 1976.7 669.239C1977.86 667.784 1979.42 666.545 1981.4 665.523C1983.38 664.477 1985.9 663.955 1988.97 663.955C1993.02 663.955 1996.66 664.989 1999.91 667.057C2003.19 669.102 2005.78 672.136 2007.69 676.159C2009.62 680.159 2010.58 685.068 2010.58 690.886C2010.58 696.636 2009.64 701.523 2007.75 705.545C2005.87 709.568 2003.3 712.636 2000.05 714.75C1996.8 716.864 1993.12 717.92 1989 717.92C1986 717.92 1983.52 717.42 1981.54 716.42C1979.56 715.42 1977.97 714.216 1976.77 712.807C1975.58 711.375 1974.66 710.023 1974 708.75H1973.29V717H1961.15ZM1973.25 690.818C1973.25 694.205 1973.73 697.17 1974.69 699.716C1975.66 702.261 1977.06 704.25 1978.88 705.682C1980.72 707.091 1982.95 707.795 1985.56 707.795C1988.29 707.795 1990.57 707.068 1992.41 705.614C1994.25 704.136 1995.64 702.125 1996.57 699.58C1997.53 697.011 1998 694.091 1998 690.818C1998 687.568 1997.54 684.682 1996.61 682.159C1995.67 679.636 1994.29 677.659 1992.45 676.227C1990.61 674.795 1988.31 674.08 1985.56 674.08C1982.92 674.08 1980.69 674.773 1978.85 676.159C1977 677.545 1975.61 679.489 1974.65 681.989C1973.72 684.489 1973.25 687.432 1973.25 690.818Z" fill="white"/>
<path id="y" d="M1732.36 554.636C1730.67 554.636 1729.12 554.5 1727.68 554.227C1726.28 553.977 1725.15 553.682 1724.31 553.341L1727.17 543.727C1728.97 544.25 1730.57 544.5 1731.98 544.477C1733.39 544.455 1734.63 544.011 1735.7 543.148C1736.79 542.307 1737.71 540.898 1738.46 538.92L1739.51 536.091L1720.53 482.636H1733.62L1745.68 522.182H1746.23L1758.33 482.636H1771.46L1750.49 541.341C1749.51 544.114 1748.22 546.489 1746.61 548.466C1744.99 550.466 1743.01 551.989 1740.67 553.034C1738.36 554.102 1735.58 554.636 1732.36 554.636Z" fill="white"/>
<path id="x" d="M1973.43 299.636L1984 318.966L1994.74 299.636H2007.8L1992.01 325.818L2008.07 352H1995.08L1984 333.148L1973.02 352H1959.93L1975.89 325.818L1960.34 299.636H1973.43Z" fill="white"/>
<path id="Button_Select" d="M1124.72 499.647C1124.72 514.189 1118.94 528.136 1108.66 538.418C1098.38 548.701 1084.44 554.478 1069.9 554.478C1055.36 554.478 1041.41 548.701 1031.13 538.418C1020.85 528.136 1015.07 514.189 1015.07 499.647C1015.07 485.105 1020.85 471.159 1031.13 460.876C1041.41 450.593 1055.36 444.816 1069.9 444.816C1084.44 444.816 1098.38 450.593 1108.66 460.876C1118.94 471.159 1124.72 485.105 1124.72 499.647Z" fill="#363636"/>
<path id="Button_Home" d="M1307.64 499.831C1307.64 514.373 1301.87 528.319 1291.59 538.602C1281.31 548.885 1267.36 554.662 1252.82 554.662C1238.28 554.662 1224.34 548.885 1214.06 538.602C1203.78 528.319 1198 514.373 1198 499.831C1198 485.289 1203.78 471.342 1214.06 461.06C1224.34 450.777 1238.28 445 1252.82 445C1267.36 445 1281.31 450.777 1291.59 461.06C1301.87 471.342 1307.64 485.289 1307.64 499.831Z" fill="#363636"/>
<path id="Button_Start" d="M1490.2 499.647C1490.2 514.189 1484.42 528.136 1474.14 538.418C1463.86 548.701 1449.92 554.478 1435.38 554.478C1420.84 554.478 1406.89 548.701 1396.61 538.418C1386.33 528.136 1380.56 514.189 1380.56 499.647C1380.56 485.105 1386.33 471.159 1396.61 460.876C1406.89 450.593 1420.84 444.816 1435.38 444.816C1449.92 444.816 1463.86 450.593 1474.14 460.876C1484.42 471.159 1490.2 485.105 1490.2 499.647Z" fill="#363636"/>
<path id="Vector" d="M1017.55 790.169C1006.67 779.283 904.265 732 878.71 732C853.154 732 753.647 776.621 740.231 790.044C726.161 804.121 682.669 908.813 682.007 929.261C681.361 949.23 723.66 1052.32 739.343 1068.01C756.584 1085.26 852.446 1124.35 878.001 1124.99C903.556 1125.63 999.79 1082.72 1016.17 1068.25C1032.79 1053.56 1075 948.868 1075 929.011C1075 909.195 1029.66 802.29 1017.55 790.169Z" fill="#0D0D0D"/>
<path id="Vector_2" d="M1657.55 790.169C1646.67 779.283 1544.27 732 1518.71 732C1493.15 732 1393.65 776.621 1380.23 790.044C1366.16 804.121 1322.67 908.813 1322.01 929.261C1321.36 949.23 1363.66 1052.32 1379.34 1068.01C1396.58 1085.26 1492.45 1124.35 1518 1124.99C1543.56 1125.63 1639.79 1082.72 1656.17 1068.25C1672.79 1053.56 1715 948.868 1715 929.011C1715 909.195 1669.66 802.29 1657.55 790.169Z" fill="#0D0D0D"/>
<path id="Analog_Stick" d="M1015.07 929.153C1015.07 965.508 1000.63 1000.37 974.931 1026.08C949.229 1051.79 914.368 1066.23 878.018 1066.23C841.669 1066.23 806.808 1051.79 781.106 1026.08C755.403 1000.37 740.963 965.508 740.963 929.153C740.963 892.798 755.403 857.932 781.106 832.225C806.808 806.518 841.669 792.076 878.018 792.076C914.368 792.076 949.229 806.518 974.931 832.225C1000.63 857.932 1015.07 892.798 1015.07 929.153Z" fill="#363636"/>
<path id="Analog_C_Stick" d="M1654.67 929.153C1654.67 965.508 1640.23 1000.37 1614.52 1026.08C1588.82 1051.79 1553.96 1066.23 1517.61 1066.23C1481.26 1066.23 1446.4 1051.79 1420.7 1026.08C1395 1000.37 1380.56 965.508 1380.56 929.153C1380.56 892.798 1395 857.932 1420.7 832.225C1446.4 806.518 1481.26 792.076 1517.61 792.076C1553.96 792.076 1588.82 806.518 1614.52 832.225C1640.23 857.932 1654.67 892.798 1654.67 929.153Z" fill="#363636"/>
<path id="+" d="M1429.1 526V474H1440.9V526H1429.1ZM1409 505.899V494.101H1461V505.899H1409Z" fill="white"/>
<path id="+_2" d="M1044 505.899V494.102H1096V505.899H1044Z" fill="white"/>
<g id="+_3">
<path d="M1227 515.223V501.348H1240.5V515.223H1227Z" fill="#3ABFEA"/>
<path d="M1227 515.223V501.348H1240.5V515.223H1227Z" fill="#3ABFEA"/>
<path d="M1265.5 515.122V501.348H1279V515.122H1265.5Z" fill="#3ABFEA"/>
<path d="M1265.5 515.122V501.348H1279V515.122H1265.5Z" fill="#3ABFEA"/>
<path d="M1227 501.348V489.571L1253 472L1279 489.571V501.348H1227Z" fill="#3ABFEA"/>
<path d="M1227 527V515.223L1279 515.122V527H1227Z" fill="#3ABFEA"/>
</g>
<rect id="Dpad_Left" x="265" y="427" width="148" height="127" fill="#363636"/>
<rect id="Dpad_Right" x="539" y="425" width="147" height="129" fill="#363636"/>
<rect id="Dpad_Up" x="413" y="280" width="127" height="147" fill="#363636"/>
<rect id="Dpad_Down" x="413" y="554" width="127" height="147" fill="#363636"/>
<path id="Vector 14" opacity="0.44" d="M564 491H661" stroke="white" stroke-width="17"/>
<path id="Vector 15" opacity="0.44" d="M291 491H388" stroke="white" stroke-width="17"/>
<path id="Vector 16" opacity="0.44" d="M476.5 311L476.5 408" stroke="white" stroke-width="17"/>
<path id="Vector 17" opacity="0.44" d="M476.5 573L476.5 670" stroke="white" stroke-width="17"/>
</g>
</svg>
