<svg width="2467" height="1249" viewBox="0 0 2467 1249" fill="none" xmlns="http://www.w3.org/2000/svg">
<g id="wcc_black" clip-path="url(#clip0_2824_886)">
<path id="Button_ZR" d="M1695 50.3115C1695 22.5252 1717.53 0 1745.31 0H2053.75C2163.79 0 2253 89.2091 2253 199.254V199.254C2253 210.159 2244.16 219 2233.25 219H1794C1739.32 219 1695 174.676 1695 120V50.3115Z" fill="#363636"/>
<path id="Button_ZL" d="M214 199.254C214 89.2091 303.209 0 413.254 0H721.689C749.475 0 772 22.5252 772 50.3115V120C772 174.676 727.676 219 673 219H233.746C222.841 219 214 210.159 214 199.254V199.254Z" fill="#363636"/>
<rect id="Button_L" x="974" width="172" height="219" rx="86" fill="#454545"/>
<rect id="Button_R" x="1339" width="172" height="219" rx="86" fill="#454545"/>
<path id="rect2159" d="M1863.09 51H583.907C255.901 51 -10 316.943 -10 645C-10 973.057 255.901 1239 583.907 1239H1863.09C2191.1 1239 2457 973.057 2457 645C2457 316.943 2191.1 51 1863.09 51Z" fill="black"/>
<path id="rect4103" d="M530 427H402V554H530V427Z" fill="#363636"/>
<path id="Button_Y" d="M2064.97 316.877C2064.97 341.114 2055.34 364.358 2038.21 381.496C2021.07 398.633 1997.83 408.261 1973.6 408.261C1949.37 408.261 1926.13 398.633 1908.99 381.496C1891.86 364.358 1882.23 341.114 1882.23 316.877C1882.23 292.64 1891.86 269.396 1908.99 252.258C1926.13 235.12 1949.37 225.492 1973.6 225.492C1997.83 225.492 2021.07 235.12 2038.21 252.258C2055.34 269.396 2064.97 292.64 2064.97 316.877Z" fill="#363636"/>
<path id="Button_X" d="M1827.41 499.646C1827.41 523.883 1817.78 547.127 1800.64 564.265C1783.51 581.403 1760.27 591.031 1736.04 591.031C1711.8 591.031 1688.56 581.403 1671.43 564.265C1654.29 547.127 1644.67 523.883 1644.67 499.646C1644.67 475.41 1654.29 452.166 1671.43 435.028C1688.56 417.89 1711.8 408.262 1736.04 408.262C1760.27 408.262 1783.51 417.89 1800.64 435.028C1817.78 452.166 1827.41 475.41 1827.41 499.646Z" fill="#363636"/>
<path id="Button_B" d="M2302.53 504.49C2302.54 515.859 2300.18 527.118 2295.59 537.624C2291.01 548.13 2284.28 557.677 2275.79 565.719C2267.31 573.76 2257.23 580.14 2246.14 584.492C2235.05 588.845 2223.17 591.085 2211.16 591.085C2199.16 591.085 2187.27 588.845 2176.18 584.492C2165.09 580.14 2155.02 573.76 2146.53 565.719C2138.05 557.677 2131.32 548.13 2126.73 537.624C2122.14 527.118 2119.79 515.859 2119.79 504.49C2119.79 493.12 2122.14 481.861 2126.73 471.355C2131.32 460.849 2138.05 451.303 2146.53 443.261C2155.02 435.219 2165.09 428.84 2176.18 424.487C2187.27 420.135 2199.16 417.895 2211.16 417.895C2223.17 417.895 2235.05 420.135 2246.14 424.487C2257.23 428.84 2267.31 435.219 2275.79 443.261C2284.28 451.303 2291.01 460.849 2295.59 471.355C2300.18 481.861 2302.54 493.12 2302.53 504.49Z" fill="#363636"/>
<path id="Button_A" d="M2064.97 682.416C2064.97 706.653 2055.34 729.897 2038.21 747.035C2021.07 764.172 1997.83 773.8 1973.6 773.8C1949.37 773.8 1926.13 764.172 1908.99 747.035C1891.86 729.897 1882.23 706.653 1882.23 682.416C1882.23 658.179 1891.86 634.935 1908.99 617.797C1926.13 600.659 1949.37 591.031 1973.6 591.031C1997.83 591.031 2021.07 600.659 2038.21 617.797C2055.34 634.935 2064.97 658.179 2064.97 682.416Z" fill="#363636"/>
<path id="a" d="M2204.85 540.057C2201.53 540.057 2198.54 539.466 2195.88 538.284C2193.24 537.08 2191.15 535.307 2189.61 532.966C2188.09 530.625 2187.32 527.739 2187.32 524.307C2187.32 521.352 2187.87 518.909 2188.96 516.977C2190.05 515.045 2191.54 513.5 2193.43 512.341C2195.31 511.182 2197.44 510.307 2199.8 509.716C2202.19 509.102 2204.65 508.659 2207.2 508.386C2210.27 508.068 2212.76 507.784 2214.66 507.534C2216.57 507.261 2217.96 506.852 2218.82 506.307C2219.71 505.739 2220.15 504.864 2220.15 503.682V503.477C2220.15 500.909 2219.39 498.92 2217.87 497.511C2216.35 496.102 2214.15 495.398 2211.29 495.398C2208.27 495.398 2205.87 496.057 2204.1 497.375C2202.35 498.693 2201.16 500.25 2200.55 502.045L2189.03 500.409C2189.94 497.227 2191.44 494.568 2193.53 492.432C2195.62 490.273 2198.18 488.659 2201.2 487.591C2204.22 486.5 2207.56 485.955 2211.22 485.955C2213.74 485.955 2216.26 486.25 2218.76 486.841C2221.26 487.432 2223.54 488.409 2225.61 489.773C2227.68 491.114 2229.34 492.943 2230.59 495.261C2231.86 497.58 2232.49 500.477 2232.49 503.955V539H2220.63V531.807H2220.22C2219.47 533.261 2218.41 534.625 2217.05 535.898C2215.71 537.148 2214.02 538.159 2211.97 538.932C2209.95 539.682 2207.57 540.057 2204.85 540.057ZM2208.05 530.989C2210.53 530.989 2212.68 530.5 2214.49 529.523C2216.31 528.523 2217.71 527.205 2218.69 525.568C2219.69 523.932 2220.19 522.148 2220.19 520.216V514.045C2219.8 514.364 2219.14 514.659 2218.21 514.932C2217.3 515.205 2216.28 515.443 2215.14 515.648C2214.01 515.852 2212.88 516.034 2211.77 516.193C2210.65 516.352 2209.69 516.489 2208.87 516.602C2207.03 516.852 2205.38 517.261 2203.93 517.83C2202.47 518.398 2201.32 519.193 2200.48 520.216C2199.64 521.216 2199.22 522.511 2199.22 524.102C2199.22 526.375 2200.05 528.091 2201.71 529.25C2203.37 530.409 2205.48 530.989 2208.05 530.989Z" fill="white"/>
<path id="b" d="M1951.15 717V647.182H1963.49V673.295H1964C1964.64 672.023 1965.54 670.67 1966.7 669.239C1967.86 667.784 1969.42 666.545 1971.4 665.523C1973.38 664.477 1975.9 663.955 1978.97 663.955C1983.02 663.955 1986.66 664.989 1989.91 667.057C1993.19 669.102 1995.78 672.136 1997.69 676.159C1999.62 680.159 2000.58 685.068 2000.58 690.886C2000.58 696.636 1999.64 701.523 1997.75 705.545C1995.87 709.568 1993.3 712.636 1990.05 714.75C1986.8 716.864 1983.12 717.92 1979 717.92C1976 717.92 1973.52 717.42 1971.54 716.42C1969.56 715.42 1967.97 714.216 1966.77 712.807C1965.58 711.375 1964.66 710.023 1964 708.75H1963.29V717H1951.15ZM1963.25 690.818C1963.25 694.205 1963.73 697.17 1964.69 699.716C1965.66 702.261 1967.06 704.25 1968.88 705.682C1970.72 707.091 1972.95 707.795 1975.56 707.795C1978.29 707.795 1980.57 707.068 1982.41 705.614C1984.25 704.136 1985.64 702.125 1986.57 699.58C1987.53 697.011 1988 694.091 1988 690.818C1988 687.568 1987.54 684.682 1986.61 682.159C1985.67 679.636 1984.29 677.659 1982.45 676.227C1980.61 674.795 1978.31 674.08 1975.56 674.08C1972.92 674.08 1970.69 674.773 1968.85 676.159C1967 677.545 1965.61 679.489 1964.65 681.989C1963.72 684.489 1963.25 687.432 1963.25 690.818Z" fill="white"/>
<path id="y" d="M1722.36 554.636C1720.67 554.636 1719.12 554.5 1717.68 554.227C1716.28 553.977 1715.15 553.682 1714.31 553.341L1717.17 543.727C1718.97 544.25 1720.57 544.5 1721.98 544.477C1723.39 544.455 1724.63 544.011 1725.7 543.148C1726.79 542.307 1727.71 540.898 1728.46 538.92L1729.51 536.091L1710.53 482.636H1723.62L1735.68 522.182H1736.23L1748.33 482.636H1761.46L1740.49 541.341C1739.51 544.114 1738.22 546.489 1736.61 548.466C1734.99 550.466 1733.01 551.989 1730.67 553.034C1728.36 554.102 1725.58 554.636 1722.36 554.636Z" fill="white"/>
<path id="x" d="M1963.43 299.636L1974 318.966L1984.74 299.636H1997.8L1982.01 325.818L1998.07 352H1985.08L1974 333.148L1963.02 352H1949.93L1965.89 325.818L1950.34 299.636H1963.43Z" fill="white"/>
<path id="Button_Select" d="M1114.72 499.647C1114.72 514.189 1108.94 528.136 1098.66 538.418C1088.38 548.701 1074.44 554.478 1059.9 554.478C1045.36 554.478 1031.41 548.701 1021.13 538.418C1010.85 528.136 1005.07 514.189 1005.07 499.647C1005.07 485.105 1010.85 471.159 1021.13 460.876C1031.41 450.593 1045.36 444.816 1059.9 444.816C1074.44 444.816 1088.38 450.593 1098.66 460.876C1108.94 471.159 1114.72 485.105 1114.72 499.647Z" fill="#363636"/>
<path id="Button_Guide" d="M1297.64 499.831C1297.64 514.373 1291.87 528.319 1281.59 538.602C1271.31 548.885 1257.36 554.662 1242.82 554.662C1228.28 554.662 1214.34 548.885 1204.06 538.602C1193.78 528.319 1188 514.373 1188 499.831C1188 485.289 1193.78 471.342 1204.06 461.06C1214.34 450.777 1228.28 445 1242.82 445C1257.36 445 1271.31 450.777 1281.59 461.06C1291.87 471.342 1297.64 485.289 1297.64 499.831Z" fill="#363636"/>
<path id="Button_Start" d="M1480.2 499.647C1480.2 514.189 1474.42 528.136 1464.14 538.418C1453.86 548.701 1439.92 554.478 1425.38 554.478C1410.84 554.478 1396.89 548.701 1386.61 538.418C1376.33 528.136 1370.56 514.189 1370.56 499.647C1370.56 485.105 1376.33 471.159 1386.61 460.876C1396.89 450.593 1410.84 444.816 1425.38 444.816C1439.92 444.816 1453.86 450.593 1464.14 460.876C1474.42 471.159 1480.2 485.105 1480.2 499.647Z" fill="#363636"/>
<path id="Vector" d="M1007.55 790.169C996.668 779.283 894.265 732 868.71 732C843.154 732 743.647 776.621 730.231 790.044C716.161 804.121 672.669 908.813 672.007 929.261C671.361 949.23 713.66 1052.32 729.343 1068.01C746.584 1085.26 842.446 1124.35 868.001 1124.99C893.556 1125.63 989.79 1082.72 1006.17 1068.25C1022.79 1053.56 1065 948.868 1065 929.011C1065 909.196 1019.66 802.29 1007.55 790.169Z" fill="#0D0D0D"/>
<path id="Vector_2" d="M1647.55 790.169C1636.67 779.283 1534.27 732 1508.71 732C1483.15 732 1383.65 776.621 1370.23 790.044C1356.16 804.121 1312.67 908.813 1312.01 929.261C1311.36 949.23 1353.66 1052.32 1369.34 1068.01C1386.58 1085.26 1482.45 1124.35 1508 1124.99C1533.56 1125.63 1629.79 1082.72 1646.17 1068.25C1662.79 1053.56 1705 948.868 1705 929.011C1705 909.196 1659.66 802.29 1647.55 790.169Z" fill="#0D0D0D"/>
<path id="Analog_Stick" d="M1005.07 929.153C1005.07 965.508 990.634 1000.37 964.931 1026.08C939.229 1051.79 904.368 1066.23 868.018 1066.23C831.669 1066.23 796.808 1051.79 771.106 1026.08C745.403 1000.37 730.963 965.508 730.963 929.153C730.963 892.798 745.403 857.932 771.106 832.225C796.808 806.518 831.669 792.076 868.018 792.076C904.368 792.076 939.229 806.518 964.931 832.225C990.634 857.932 1005.07 892.798 1005.07 929.153Z" fill="#363636"/>
<path id="Analog_C_Stick" d="M1644.67 929.153C1644.67 965.508 1630.23 1000.37 1604.52 1026.08C1578.82 1051.79 1543.96 1066.23 1507.61 1066.23C1471.26 1066.23 1436.4 1051.79 1410.7 1026.08C1385 1000.37 1370.56 965.508 1370.56 929.153C1370.56 892.798 1385 857.932 1410.7 832.225C1436.4 806.518 1471.26 792.076 1507.61 792.076C1543.96 792.076 1578.82 806.518 1604.52 832.225C1630.23 857.932 1644.67 892.798 1644.67 929.153Z" fill="#363636"/>
<path id="+" d="M1419.1 526V474H1430.9V526H1419.1ZM1399 505.899V494.101H1451V505.899H1399Z" fill="white"/>
<path id="+_2" d="M1034 505.899V494.102H1086V505.899H1034Z" fill="white"/>
<g id="+_3">
<path d="M1217 515.223V501.348H1230.5V515.223H1217Z" fill="#3ABFEA"/>
<path d="M1217 515.223V501.348H1230.5V515.223H1217Z" fill="#3ABFEA"/>
<path d="M1255.5 515.122V501.348H1269V515.122H1255.5Z" fill="#3ABFEA"/>
<path d="M1255.5 515.122V501.348H1269V515.122H1255.5Z" fill="#3ABFEA"/>
<path d="M1217 501.348V489.571L1243 472L1269 489.571V501.348H1217Z" fill="#3ABFEA"/>
<path d="M1217 527V515.223L1269 515.122V527H1217Z" fill="#3ABFEA"/>
</g>
<rect id="Dpad_Left" x="255" y="427" width="148" height="127" fill="#363636"/>
<rect id="Dpad_Right" x="529" y="425" width="147" height="129" fill="#363636"/>
<rect id="Dpad_Up" x="403" y="280" width="127" height="147" fill="#363636"/>
<rect id="Dpad_Down" x="403" y="554" width="127" height="147" fill="#363636"/>
<path id="Vector 14" opacity="0.44" d="M554 491H651" stroke="white" stroke-width="17"/>
<path id="Vector 15" opacity="0.44" d="M281 491H378" stroke="white" stroke-width="17"/>
<path id="Vector 16" opacity="0.44" d="M466.5 311L466.5 408" stroke="white" stroke-width="17"/>
<path id="Vector 17" opacity="0.44" d="M466.5 573L466.5 670" stroke="white" stroke-width="17"/>
</g>
<defs>
<clipPath id="clip0_2824_886">
<rect width="2467" height="1249" fill="white"/>
</clipPath>
</defs>
</svg>
