<svg width="4141" height="4142" viewBox="0 0 4141 4142" fill="none" xmlns="http://www.w3.org/2000/svg">
<g id="ps4_gray">
<g id="Group">
<g id="Group_2">
<g id="Vector">
<path d="M3357.28 1039.11C3449.34 1039.11 3524.26 1114.02 3524.26 1206.08C3524.26 1298.13 3449.34 1373.05 3357.28 1373.05C3265.25 1373.05 3190.33 1298.13 3190.33 1206.08C3190.33 1114.02 3265.25 1039.11 3357.28 1039.11ZM2836.25 1057.34C2836.25 1012.8 2872.46 976.603 2916.98 976.603C2961.51 976.603 2997.72 1012.81 2997.72 1057.34V1155.95C2997.72 1200.48 2961.51 1236.68 2916.98 1236.68C2872.46 1236.68 2836.25 1200.48 2836.25 1155.95V1057.34ZM1135.81 1057.34C1135.81 1012.8 1172.02 976.603 1216.54 976.603C1261.07 976.603 1297.27 1012.81 1297.27 1057.34V1155.95C1297.27 1200.48 1261.07 1236.68 1216.54 1236.68C1172.02 1236.68 1135.81 1200.48 1135.81 1155.95V1057.34ZM633.271 1220.12C638.023 1152.9 728.673 1152.79 767.55 1152.73C767.597 1152.73 767.644 1152.73 767.691 1152.73C767.724 1152.73 767.757 1152.73 767.79 1152.73C806.908 1152.78 897.538 1152.88 902.42 1220.12C904.666 1252.01 893.741 1359.39 878.988 1388.94C866.171 1414.58 803.581 1460.47 782.221 1475.62C781.077 1476.59 779.803 1477.51 778.436 1478.26C775.133 1480.03 771.52 1480.95 767.914 1480.95C764.302 1480.87 760.689 1480.07 757.429 1478.31C755.932 1477.51 754.608 1476.59 753.334 1475.54C731.794 1460.21 669.564 1414.54 656.747 1389.03C641.857 1359.3 630.983 1251.97 633.271 1220.12ZM478.946 1643.61C411.657 1638.77 411.556 1548.1 411.513 1509.29C411.513 1509.25 411.512 1509.22 411.512 1509.19C411.512 1509.15 411.513 1509.12 411.513 1509.09C411.556 1469.92 411.656 1379.25 478.946 1374.46C482.249 1374.23 486.164 1374.1 490.619 1374.1C528.185 1374.1 620.281 1384.15 647.722 1397.85C673.314 1410.66 719.25 1473.29 734.399 1494.66C735.414 1495.8 736.292 1497.13 737.041 1498.49C739.07 1502.27 739.905 1506.55 739.639 1510.68C739.372 1514.16 738.314 1517.56 736.465 1520.64C735.803 1521.6 735.191 1522.57 734.392 1523.41C719.2 1544.77 673.393 1607.27 647.758 1620.09C620.274 1633.83 528.005 1643.87 490.482 1643.87C486.077 1643.96 482.198 1643.82 478.946 1643.61ZM902.377 1797.89C897.539 1865.15 806.955 1865.27 768.086 1865.32C768.043 1865.32 768 1865.32 767.958 1865.32H767.785C767.752 1865.32 767.718 1865.32 767.685 1865.32C728.696 1865.28 638.031 1865.18 633.228 1797.89C630.94 1766.13 641.814 1658.8 656.617 1629.16C669.478 1603.43 732.197 1557.49 753.471 1542.39C755.14 1540.93 757.076 1539.74 759.192 1538.86C759.588 1538.73 760.027 1538.56 760.379 1538.42C766.151 1536.22 772.714 1536.7 778.306 1539.7C779.933 1540.58 781.43 1541.64 782.797 1542.87C804.776 1558.46 866.214 1603.69 878.902 1629.11C893.705 1658.71 904.623 1766.04 902.377 1797.89ZM1056.71 1643.61C1053.41 1643.82 1049.53 1643.96 1045.17 1643.96C1007.6 1643.96 915.418 1633.88 887.934 1620.17C862.256 1607.36 816.319 1544.72 801.17 1523.41C800.069 1522.13 799.098 1520.68 798.349 1519.05C797.867 1518.13 797.428 1517.15 797.162 1516.19C795.132 1510.46 795.578 1504.08 798.486 1498.57C799.407 1496.9 800.465 1495.41 801.703 1494.04C817.334 1472.02 862.572 1410.53 887.941 1397.89C915.382 1384.14 1007.52 1374.15 1045 1374.15C1049.45 1374.15 1053.33 1374.28 1056.72 1374.5C1123.96 1379.25 1124.06 1469.97 1124.11 1508.83C1124.11 1508.86 1124.11 1508.89 1124.11 1508.93C1124.09 1547.98 1124.05 1638.76 1056.71 1643.61ZM1373.87 2326.51C1241.38 2326.51 1133.66 2218.77 1133.66 2086.34C1133.66 1953.85 1241.38 1846.12 1373.87 1846.12C1506.31 1846.12 1614.04 1953.86 1614.04 2086.34C1614.04 2218.77 1506.26 2326.51 1373.87 2326.51ZM2723.85 2326.51C2591.41 2326.51 2483.69 2218.77 2483.69 2086.34C2483.69 1953.85 2591.41 1846.12 2723.85 1846.12C2856.34 1846.12 2964.06 1953.86 2964.06 2086.34C2964.06 2218.77 2856.34 2326.51 2723.85 2326.51ZM3068.8 1661.58C2976.76 1661.58 2901.84 1586.66 2901.84 1494.61C2901.84 1402.55 2976.76 1327.64 3068.8 1327.64C3160.85 1327.64 3235.77 1402.55 3235.77 1494.61C3235.77 1586.66 3160.85 1661.58 3068.8 1661.58ZM3357.28 1950.06C3265.25 1950.06 3190.33 1875.15 3190.33 1783.09C3190.33 1691.04 3265.25 1616.12 3357.28 1616.12C3449.34 1616.12 3524.26 1691.04 3524.26 1783.09C3524.26 1875.15 3449.34 1950.06 3357.28 1950.06ZM3645.83 1661.58C3553.78 1661.58 3478.86 1586.66 3478.86 1494.61C3478.86 1402.55 3553.78 1327.64 3645.83 1327.64C3737.88 1327.64 3812.8 1402.55 3812.8 1494.61C3812.8 1586.66 3737.88 1661.58 3645.83 1661.58Z" fill="#151515"/>
<path fill-rule="evenodd" clip-rule="evenodd" d="M3524.26 1206.08C3524.26 1114.02 3449.34 1039.11 3357.28 1039.11C3265.25 1039.11 3190.33 1114.02 3190.33 1206.08C3190.33 1298.13 3265.25 1373.05 3357.28 1373.05C3449.34 1373.05 3524.26 1298.13 3524.26 1206.08ZM2916.98 976.603C2872.46 976.603 2836.25 1012.8 2836.25 1057.34V1155.95C2836.25 1200.48 2872.46 1236.68 2916.98 1236.68C2961.51 1236.68 2997.72 1200.48 2997.72 1155.95V1057.34C2997.72 1012.81 2961.51 976.603 2916.98 976.603ZM1216.54 976.603C1172.02 976.603 1135.81 1012.8 1135.81 1057.34V1155.95C1135.81 1200.48 1172.02 1236.68 1216.54 1236.68C1261.07 1236.68 1297.27 1200.48 1297.27 1155.95V1057.34C1297.27 1012.81 1261.07 976.603 1216.54 976.603ZM767.55 1152.73C728.673 1152.79 638.023 1152.9 633.271 1220.12C630.983 1251.97 641.857 1359.3 656.747 1389.03C669.564 1414.54 731.794 1460.21 753.334 1475.54C754.608 1476.59 755.932 1477.51 757.429 1478.31C760.689 1480.07 764.302 1480.87 767.914 1480.95C771.52 1480.95 775.133 1480.03 778.436 1478.26C779.803 1477.51 781.077 1476.59 782.221 1475.62C803.581 1460.47 866.171 1414.58 878.988 1388.94C893.741 1359.39 904.666 1252.01 902.42 1220.12C897.538 1152.88 806.908 1152.78 767.79 1152.73L767.691 1152.73L767.55 1152.73ZM411.513 1509.29C411.556 1548.1 411.657 1638.77 478.946 1643.61C482.198 1643.82 486.077 1643.96 490.482 1643.87C528.005 1643.87 620.274 1633.83 647.758 1620.09C673.393 1607.27 719.2 1544.77 734.392 1523.41C735.191 1522.57 735.803 1521.6 736.465 1520.64C738.314 1517.56 739.372 1514.16 739.639 1510.68C739.905 1506.55 739.07 1502.27 737.041 1498.49C736.292 1497.13 735.414 1495.8 734.399 1494.66C719.25 1473.29 673.314 1410.66 647.722 1397.85C620.281 1384.15 528.185 1374.1 490.619 1374.1C486.164 1374.1 482.249 1374.23 478.946 1374.46C411.656 1379.25 411.556 1469.92 411.513 1509.09L411.512 1509.19L411.513 1509.29ZM768.086 1865.32C806.955 1865.27 897.539 1865.15 902.377 1797.89C904.623 1766.04 893.705 1658.71 878.902 1629.11C866.214 1603.69 804.776 1558.46 782.797 1542.87C781.43 1541.64 779.933 1540.58 778.306 1539.7C772.714 1536.7 766.151 1536.22 760.379 1538.42C760.027 1538.56 759.588 1538.73 759.192 1538.86C757.076 1539.74 755.14 1540.93 753.471 1542.39C732.197 1557.49 669.478 1603.43 656.617 1629.16C641.814 1658.8 630.94 1766.13 633.228 1797.89C638.031 1865.18 728.696 1865.28 767.685 1865.32H767.785H767.958L768.086 1865.32ZM1045.17 1643.96C1049.53 1643.96 1053.41 1643.82 1056.71 1643.61C1124.05 1638.76 1124.09 1547.98 1124.11 1508.93V1508.83C1124.06 1469.97 1123.96 1379.25 1056.72 1374.5C1053.33 1374.28 1049.45 1374.15 1045 1374.15C1007.52 1374.15 915.382 1384.14 887.941 1397.89C862.572 1410.53 817.334 1472.02 801.703 1494.04C800.465 1495.41 799.407 1496.9 798.486 1498.57C795.578 1504.08 795.132 1510.46 797.162 1516.19C797.428 1517.15 797.867 1518.13 798.349 1519.05C799.098 1520.68 800.069 1522.13 801.17 1523.41C816.319 1544.72 862.256 1607.36 887.934 1620.17C915.418 1633.88 1007.6 1643.96 1045.17 1643.96ZM1133.66 2086.34C1133.66 2218.77 1241.38 2326.51 1373.87 2326.51C1506.26 2326.51 1614.04 2218.77 1614.04 2086.34C1614.04 1953.86 1506.31 1846.12 1373.87 1846.12C1241.38 1846.12 1133.66 1953.85 1133.66 2086.34ZM2483.69 2086.34C2483.69 2218.77 2591.41 2326.51 2723.85 2326.51C2856.34 2326.51 2964.06 2218.77 2964.06 2086.34C2964.06 1953.86 2856.34 1846.12 2723.85 1846.12C2591.41 1846.12 2483.69 1953.85 2483.69 2086.34ZM2901.84 1494.61C2901.84 1586.66 2976.76 1661.58 3068.8 1661.58C3160.85 1661.58 3235.77 1586.66 3235.77 1494.61C3235.77 1402.55 3160.85 1327.64 3068.8 1327.64C2976.76 1327.64 2901.84 1402.55 2901.84 1494.61ZM3190.33 1783.09C3190.33 1875.15 3265.25 1950.06 3357.28 1950.06C3449.34 1950.06 3524.26 1875.15 3524.26 1783.09C3524.26 1691.04 3449.34 1616.12 3357.28 1616.12C3265.25 1616.12 3190.33 1691.04 3190.33 1783.09ZM3478.86 1494.61C3478.86 1586.66 3553.78 1661.58 3645.83 1661.58C3737.88 1661.58 3812.8 1586.66 3812.8 1494.61C3812.8 1402.55 3737.88 1327.64 3645.83 1327.64C3553.78 1327.64 3478.86 1402.55 3478.86 1494.61Z" fill="#151515"/>
<path fill-rule="evenodd" clip-rule="evenodd" d="M3624.99 932.826C3615.65 918.468 3627.19 906.356 3603.09 896.266L3092.5 879.268C3074.62 883.233 3059.11 887.767 3046.47 892.877C2991.29 915.208 2956.05 909.307 2956.05 909.307H2763.36C2770.36 924.24 2774.6 940.713 2774.6 958.28V1552.87C2774.6 1616.82 2722.57 1668.84 2658.64 1668.84H1474.95C1411 1668.84 1358.98 1616.82 1358.98 1552.87V958.28C1358.98 940.713 1363.2 924.24 1370.21 909.307H1184.88C1184.88 909.307 1149.64 915.165 1094.46 892.877C1081.82 887.767 1066.31 883.233 1048.43 879.268L537.829 896.266C513.734 906.349 495.505 918.425 486.164 932.825C486.164 932.825 307.7 1200.57 255.992 1383.75C204.334 1566.97 -44.6499 2595.66 7.01514 2990.24C58.6802 3384.83 655.25 3483.44 810.245 3173.42C861.601 3070.75 907.055 2961.08 945.19 2860.01V2671.14C945.19 2523.11 1065.65 2402.65 1213.68 2402.65H2897.47C3045.51 2402.65 3165.97 2523.11 3165.97 2671.14V2860.01C3204.1 2961.08 3249.56 3070.75 3300.91 3173.42C3455.91 3483.44 4052.48 3384.83 4104.14 2990.24C4155.81 2595.66 3906.82 1566.97 3855.17 1383.75C3803.46 1200.57 3624.99 932.826 3624.99 932.826ZM3524.26 1206.08C3524.26 1114.02 3449.34 1039.11 3357.28 1039.11C3265.25 1039.11 3190.33 1114.02 3190.33 1206.08C3190.33 1298.13 3265.25 1373.05 3357.28 1373.05C3449.34 1373.05 3524.26 1298.13 3524.26 1206.08ZM2916.98 976.603C2872.46 976.603 2836.25 1012.8 2836.25 1057.34V1155.95C2836.25 1200.48 2872.46 1236.68 2916.98 1236.68C2961.51 1236.68 2997.72 1200.48 2997.72 1155.95V1057.34C2997.72 1012.81 2961.51 976.603 2916.98 976.603ZM1216.54 976.603C1172.02 976.603 1135.81 1012.8 1135.81 1057.34V1155.95C1135.81 1200.48 1172.02 1236.68 1216.54 1236.68C1261.07 1236.68 1297.27 1200.48 1297.27 1155.95V1057.34C1297.27 1012.81 1261.07 976.603 1216.54 976.603ZM878.988 1388.94C893.741 1359.39 904.666 1252.01 902.42 1220.12C897.538 1152.88 806.908 1152.78 767.79 1152.73L767.691 1152.73L767.55 1152.73C728.673 1152.79 638.023 1152.9 633.271 1220.12C630.983 1251.97 641.857 1359.3 656.747 1389.03C669.564 1414.54 731.794 1460.21 753.334 1475.54C754.608 1476.59 755.932 1477.51 757.429 1478.31C760.689 1480.07 764.302 1480.87 767.914 1480.95C771.52 1480.95 775.133 1480.03 778.436 1478.26C779.803 1477.51 781.077 1476.59 782.221 1475.62C803.581 1460.47 866.171 1414.58 878.988 1388.94ZM490.619 1374.1C486.164 1374.1 482.249 1374.23 478.946 1374.46C411.656 1379.25 411.556 1469.92 411.513 1509.09L411.512 1509.19L411.513 1509.29C411.556 1548.1 411.657 1638.77 478.946 1643.61C482.198 1643.82 486.077 1643.96 490.482 1643.87C528.005 1643.87 620.274 1633.83 647.758 1620.09C673.393 1607.27 719.2 1544.77 734.392 1523.41C735.191 1522.57 735.803 1521.6 736.465 1520.64C738.314 1517.56 739.372 1514.16 739.639 1510.68C739.905 1506.55 739.07 1502.27 737.041 1498.49C736.292 1497.13 735.414 1495.8 734.399 1494.66C719.25 1473.29 673.314 1410.66 647.722 1397.85C620.281 1384.15 528.185 1374.1 490.619 1374.1ZM767.785 1865.32H767.958L768.086 1865.32C806.955 1865.27 897.539 1865.15 902.377 1797.89C904.623 1766.04 893.705 1658.71 878.902 1629.11C866.214 1603.69 804.776 1558.46 782.797 1542.87C781.43 1541.64 779.933 1540.58 778.306 1539.7C772.714 1536.7 766.151 1536.22 760.379 1538.42C760.027 1538.56 759.588 1538.73 759.192 1538.86C757.076 1539.74 755.14 1540.93 753.471 1542.39C732.197 1557.49 669.478 1603.43 656.617 1629.16C641.814 1658.8 630.94 1766.13 633.228 1797.89C638.031 1865.18 728.696 1865.28 767.685 1865.32H767.785ZM1045.17 1643.96C1049.53 1643.96 1053.41 1643.82 1056.71 1643.61C1124.05 1638.76 1124.09 1547.98 1124.11 1508.93V1508.83C1124.06 1469.97 1123.96 1379.25 1056.72 1374.5C1053.33 1374.28 1049.45 1374.15 1045 1374.15C1007.52 1374.15 915.382 1384.14 887.941 1397.89C862.572 1410.53 817.334 1472.02 801.703 1494.04C800.465 1495.41 799.407 1496.9 798.486 1498.57C795.578 1504.08 795.132 1510.46 797.162 1516.19C797.428 1517.15 797.867 1518.13 798.349 1519.05C799.098 1520.68 800.069 1522.13 801.17 1523.41C816.319 1544.72 862.256 1607.36 887.934 1620.17C915.418 1633.88 1007.6 1643.96 1045.17 1643.96ZM1133.66 2086.34C1133.66 2218.77 1241.38 2326.51 1373.87 2326.51C1506.26 2326.51 1614.04 2218.77 1614.04 2086.34C1614.04 1953.86 1506.31 1846.12 1373.87 1846.12C1241.38 1846.12 1133.66 1953.85 1133.66 2086.34ZM2483.69 2086.34C2483.69 2218.77 2591.41 2326.51 2723.85 2326.51C2856.34 2326.51 2964.06 2218.77 2964.06 2086.34C2964.06 1953.86 2856.34 1846.12 2723.85 1846.12C2591.41 1846.12 2483.69 1953.85 2483.69 2086.34ZM2901.84 1494.61C2901.84 1586.66 2976.76 1661.58 3068.8 1661.58C3160.85 1661.58 3235.77 1586.66 3235.77 1494.61C3235.77 1402.55 3160.85 1327.64 3068.8 1327.64C2976.76 1327.64 2901.84 1402.55 2901.84 1494.61ZM3190.33 1783.09C3190.33 1875.15 3265.25 1950.06 3357.28 1950.06C3449.34 1950.06 3524.26 1875.15 3524.26 1783.09C3524.26 1691.04 3449.34 1616.12 3357.28 1616.12C3265.25 1616.12 3190.33 1691.04 3190.33 1783.09ZM3478.86 1494.61C3478.86 1586.66 3553.78 1661.58 3645.83 1661.58C3737.88 1661.58 3812.8 1586.66 3812.8 1494.61C3812.8 1402.55 3737.88 1327.64 3645.83 1327.64C3553.78 1327.64 3478.86 1402.55 3478.86 1494.61Z" fill="#151515"/>
</g>
<path id="Button_ZR" d="M3607.95 848.346V908.776L3089.88 881.337C3093.41 817.143 3102.57 804.771 3102.57 804.771C3390.73 615.233 3607.95 848.346 3607.95 848.346Z" fill="#313131"/>
<path id="Button_ZL" d="M536.643 848.346V908.776L1054.72 881.337C1051.18 817.143 1042.03 804.771 1042.03 804.771C753.865 615.233 536.643 848.346 536.643 848.346Z" fill="#313131"/>
<path id="Button_L" d="M648.057 603.091V697.089H943.303V603.091V552.251C943.303 531.741 926.676 515.113 906.166 515.113H685.195C664.684 515.113 648.057 531.74 648.057 552.251V603.091Z" fill="#464646"/>
<path id="Button_R" d="M3201.29 603.091V697.089H3496.54V603.091V552.251C3496.54 531.741 3479.91 515.113 3459.4 515.113H3238.43C3217.92 515.113 3201.29 531.74 3201.29 552.251V603.091Z" fill="#464646"/>
<path id="L1" d="M743.856 864.082V777.652H759.513V850.957H797.579V864.082H743.856ZM840.024 777.652V864.082H824.367V792.887H823.861L803.646 805.801V791.452L825.127 777.652H840.024Z" fill="white"/>
<path id="L2" d="M744.294 648.682V562.251H759.951V635.557H798.017V648.682H744.294ZM810.762 648.682V637.371L840.768 607.956C843.638 605.059 846.029 602.484 847.942 600.233C849.856 597.983 851.291 595.802 852.247 593.692C853.204 591.582 853.682 589.331 853.682 586.94C853.682 584.211 853.063 581.875 851.825 579.934C850.587 577.965 848.885 576.445 846.719 575.376C844.552 574.307 842.09 573.773 839.333 573.773C836.492 573.773 834.002 574.363 831.863 575.545C829.725 576.699 828.065 578.345 826.884 580.483C825.73 582.621 825.153 585.167 825.153 588.121H810.256C810.256 582.635 811.508 577.866 814.012 573.815C816.516 569.763 819.962 566.626 824.351 564.404C828.769 562.181 833.833 561.07 839.544 561.07C845.34 561.07 850.432 562.153 854.821 564.319C859.21 566.486 862.615 569.454 865.034 573.224C867.482 576.994 868.706 581.299 868.706 586.138C868.706 589.373 868.087 592.553 866.849 595.676C865.611 598.799 863.431 602.259 860.308 606.057C857.213 609.856 852.866 614.456 847.267 619.858L832.37 635.008V635.599H870.014V648.682H810.762Z" fill="white"/>
<path id="R2" d="M3291.97 648.682V562.251H3324.38C3331.02 562.251 3336.59 563.405 3341.09 565.712C3345.62 568.019 3349.04 571.255 3351.35 575.419C3353.68 579.554 3354.85 584.379 3354.85 589.894C3354.85 595.436 3353.67 600.248 3351.3 604.327C3348.97 608.379 3345.52 611.516 3340.96 613.738C3336.41 615.933 3330.81 617.03 3324.17 617.03H3301.08V604.032H3322.06C3325.94 604.032 3329.12 603.497 3331.6 602.428C3334.07 601.331 3335.9 599.741 3337.08 597.659C3338.29 595.549 3338.9 592.961 3338.9 589.894C3338.9 586.827 3338.29 584.211 3337.08 582.044C3335.87 579.85 3334.03 578.19 3331.55 577.064C3329.08 575.911 3325.88 575.334 3321.97 575.334H3307.63V648.682H3291.97ZM3336.62 609.518L3358.01 648.682H3340.54L3319.53 609.518H3336.62ZM3368.42 648.682V637.371L3398.42 607.956C3401.29 605.059 3403.68 602.484 3405.6 600.233C3407.51 597.983 3408.95 595.802 3409.9 593.692C3410.86 591.582 3411.34 589.331 3411.34 586.94C3411.34 584.211 3410.72 581.875 3409.48 579.934C3408.24 577.965 3406.54 576.445 3404.37 575.376C3402.21 574.307 3399.75 573.773 3396.99 573.773C3394.15 573.773 3391.66 574.363 3389.52 575.545C3387.38 576.699 3385.72 578.345 3384.54 580.483C3383.39 582.621 3382.81 585.167 3382.81 588.121H3367.91C3367.91 582.635 3369.16 577.866 3371.67 573.815C3374.17 569.763 3377.62 566.626 3382.01 564.404C3386.42 562.181 3391.49 561.07 3397.2 561.07C3403 561.07 3408.09 562.153 3412.48 564.319C3416.87 566.486 3420.27 569.454 3422.69 573.224C3425.14 576.994 3426.36 581.299 3426.36 586.138C3426.36 589.373 3425.74 592.553 3424.5 595.676C3423.27 598.799 3421.09 602.259 3417.96 606.057C3414.87 609.856 3410.52 614.456 3404.92 619.858L3390.03 635.008V635.599H3427.67V648.682H3368.42Z" fill="white"/>
<path id="R1" d="M3289.97 864.082V777.652H3322.38C3329.02 777.652 3334.59 778.805 3339.09 781.112C3343.62 783.419 3347.04 786.655 3349.35 790.819C3351.68 794.955 3352.85 799.78 3352.85 805.294C3352.85 810.837 3351.67 815.648 3349.3 819.727C3346.97 823.779 3343.52 826.916 3338.96 829.139C3334.41 831.333 3328.81 832.43 3322.17 832.43H3299.08V819.432H3320.06C3323.94 819.432 3327.12 818.898 3329.6 817.828C3332.07 816.731 3333.9 815.142 3335.08 813.06C3336.29 810.949 3336.9 808.361 3336.9 805.294C3336.9 802.228 3336.29 799.611 3335.08 797.445C3333.87 795.25 3332.03 793.59 3329.55 792.465C3327.08 791.311 3323.88 790.735 3319.97 790.735H3305.62V864.082H3289.97ZM3334.62 824.918L3356.01 864.082H3338.54L3317.53 824.918H3334.62ZM3401.57 777.652V864.082H3385.91V792.887H3385.41L3365.19 805.801V791.452L3386.67 777.652H3401.57Z" fill="white"/>
<path id="Vector_2" d="M3357.28 1039.1C3449.34 1039.1 3524.26 1114.02 3524.26 1206.07C3524.26 1298.13 3449.34 1373.04 3357.28 1373.04C3265.25 1373.04 3190.33 1298.13 3190.33 1206.07C3190.33 1114.02 3265.25 1039.1 3357.28 1039.1ZM2836.25 1057.33C2836.25 1012.8 2872.46 976.6 2916.98 976.6C2961.51 976.6 2997.72 1012.81 2997.72 1057.33V1155.95C2997.72 1200.48 2961.51 1236.68 2916.98 1236.68C2872.46 1236.68 2836.25 1200.48 2836.25 1155.95V1057.33ZM1135.81 1057.33C1135.81 1012.8 1172.02 976.6 1216.54 976.6C1261.07 976.6 1297.27 1012.81 1297.27 1057.33V1155.95C1297.27 1200.48 1261.07 1236.68 1216.54 1236.68C1172.02 1236.68 1135.81 1200.48 1135.81 1155.95V1057.33ZM633.271 1220.12C638.023 1152.9 728.673 1152.78 767.55 1152.73C767.597 1152.73 767.644 1152.73 767.691 1152.73C767.724 1152.73 767.757 1152.73 767.79 1152.73C806.908 1152.78 897.538 1152.88 902.42 1220.12C904.666 1252.01 893.741 1359.39 878.988 1388.94C866.171 1414.58 803.581 1460.46 782.221 1475.62C781.077 1476.59 779.803 1477.51 778.436 1478.26C775.133 1480.02 771.52 1480.95 767.914 1480.95C764.302 1480.87 760.689 1480.07 757.429 1478.3C755.932 1477.51 754.608 1476.59 753.334 1475.53C731.794 1460.2 669.564 1414.53 656.747 1389.03C641.857 1359.3 630.983 1251.97 633.271 1220.12ZM478.946 1643.6C411.657 1638.76 411.556 1548.09 411.513 1509.28C411.513 1509.25 411.512 1509.22 411.512 1509.18C411.512 1509.15 411.513 1509.12 411.513 1509.09C411.556 1469.92 411.656 1379.25 478.946 1374.45C482.249 1374.23 486.164 1374.1 490.619 1374.1C528.185 1374.1 620.281 1384.15 647.722 1397.84C673.314 1410.66 719.25 1473.29 734.399 1494.65C735.414 1495.8 736.292 1497.12 737.041 1498.48C739.07 1502.27 739.905 1506.54 739.639 1510.68C739.372 1514.16 738.314 1517.55 736.465 1520.63C735.803 1521.6 735.191 1522.57 734.392 1523.4C719.2 1544.76 673.393 1607.27 647.758 1620.09C620.274 1633.82 528.005 1643.87 490.482 1643.87C486.077 1643.96 482.198 1643.82 478.946 1643.6ZM902.377 1797.89C897.539 1865.15 806.955 1865.27 768.086 1865.32C768.043 1865.32 768 1865.32 767.958 1865.32H767.785C767.752 1865.32 767.718 1865.32 767.685 1865.32C728.696 1865.28 638.031 1865.18 633.228 1797.89C630.94 1766.13 641.814 1658.8 656.617 1629.15C669.478 1603.43 732.197 1557.49 753.471 1542.38C755.14 1540.93 757.076 1539.74 759.192 1538.86C759.588 1538.73 760.027 1538.55 760.379 1538.42C766.151 1536.21 772.714 1536.7 778.306 1539.7C779.933 1540.58 781.43 1541.63 782.797 1542.86C804.776 1558.46 866.214 1603.69 878.902 1629.1C893.705 1658.71 904.623 1766.04 902.377 1797.89ZM1056.71 1643.6C1053.41 1643.82 1049.53 1643.96 1045.17 1643.96C1007.6 1643.96 915.418 1633.87 887.934 1620.17C862.256 1607.35 816.319 1544.72 801.17 1523.4C800.069 1522.13 799.098 1520.68 798.349 1519.04C797.867 1518.12 797.428 1517.15 797.162 1516.19C795.132 1510.46 795.578 1504.07 798.486 1498.57C799.407 1496.9 800.465 1495.4 801.703 1494.04C817.334 1472.01 862.572 1410.52 887.941 1397.89C915.382 1384.14 1007.52 1374.15 1045 1374.15C1049.45 1374.15 1053.33 1374.28 1056.72 1374.5C1123.96 1379.25 1124.06 1469.96 1124.11 1508.82C1124.11 1508.86 1124.11 1508.89 1124.11 1508.93C1124.09 1547.98 1124.05 1638.75 1056.71 1643.6ZM1373.87 2326.51C1241.38 2326.51 1133.66 2218.77 1133.66 2086.34C1133.66 1953.85 1241.38 1846.12 1373.87 1846.12C1506.31 1846.12 1614.04 1953.85 1614.04 2086.34C1614.04 2218.77 1506.26 2326.51 1373.87 2326.51ZM2723.85 2326.51C2591.41 2326.51 2483.69 2218.77 2483.69 2086.34C2483.69 1953.85 2591.41 1846.12 2723.85 1846.12C2856.34 1846.12 2964.06 1953.85 2964.06 2086.34C2964.06 2218.77 2856.34 2326.51 2723.85 2326.51ZM3068.8 1661.57C2976.76 1661.57 2901.84 1586.66 2901.84 1494.6C2901.84 1402.55 2976.76 1327.63 3068.8 1327.63C3160.85 1327.63 3235.77 1402.55 3235.77 1494.6C3235.77 1586.66 3160.85 1661.57 3068.8 1661.57ZM3357.28 1950.06C3265.25 1950.06 3190.33 1875.14 3190.33 1783.09C3190.33 1691.04 3265.25 1616.12 3357.28 1616.12C3449.34 1616.12 3524.26 1691.04 3524.26 1783.09C3524.26 1875.14 3449.34 1950.06 3357.28 1950.06ZM3645.83 1661.57C3553.78 1661.57 3478.86 1586.66 3478.86 1494.6C3478.86 1402.55 3553.78 1327.63 3645.83 1327.63C3737.88 1327.63 3812.8 1402.55 3812.8 1494.6C3812.8 1586.66 3737.88 1661.57 3645.83 1661.57Z" fill="#3D3D3D"/>
<path id="Button_Home" d="M1886.61 2017.35C1886.61 2116.68 1967.4 2197.46 2066.73 2197.46C2166.06 2197.46 2246.85 2116.68 2246.85 2017.35C2246.85 1918.01 2166.06 1837.23 2066.73 1837.23C1967.4 1837.23 1886.61 1918.01 1886.61 2017.35Z" fill="#3D3D3D"/>
<path id="Dpad_Up" d="M767.827 1431.66C800.723 1407.48 834.728 1379.03 839.571 1369.25C848.423 1351.59 860.758 1256.05 858.462 1223.29C857.232 1205.76 826.754 1196.82 768 1196.78C708.893 1196.82 678.502 1205.71 677.228 1223.29C674.846 1256.05 687.224 1351.54 696.076 1369.25C700.963 1378.99 734.924 1407.48 767.827 1431.66Z" fill="#636363"/>
<path id="Dpad_Left" d="M628.032 1437.3C612.35 1429.42 531.445 1418.19 490.618 1418.19C487.401 1418.19 484.494 1418.28 482.119 1418.46C464.544 1419.69 455.606 1450.12 455.563 1508.93C455.606 1567.99 464.508 1598.42 482.119 1599.7C484.501 1599.87 487.272 1599.96 490.445 1599.96C531.315 1599.96 612.314 1588.69 628.039 1580.81C637.819 1575.91 666.268 1541.96 690.449 1509.05C664.195 1473.24 636.97 1441.75 628.032 1437.3Z" fill="#636363"/>
<path id="Analog_Stick" d="M1194.41 2086.33C1194.41 1987.39 1274.93 1906.87 1373.87 1906.87C1472.76 1906.87 1553.28 1987.38 1553.28 2086.33C1553.28 2185.23 1472.76 2265.75 1373.87 2265.75C1274.93 2265.75 1194.41 2185.23 1194.41 2086.33Z" fill="#232323" stroke="#6E6E6E" stroke-width="33.4242" stroke-linejoin="round"/>
<path id="Analog_C_Stick" d="M2544.43 2086.33C2544.43 1987.39 2624.96 1906.87 2723.85 1906.87C2822.8 1906.87 2903.32 1987.38 2903.32 2086.33C2903.32 2185.22 2822.79 2265.75 2723.85 2265.75C2624.96 2265.75 2544.43 2185.23 2544.43 2086.33Z" fill="#232323" stroke="#6E6E6E" stroke-width="33.4242" stroke-linejoin="round"/>
<g id="Button_A">
<path id="Vector_3" d="M3357.28 1906.02C3425.17 1906.02 3480.21 1850.99 3480.21 1783.09C3480.21 1715.2 3425.17 1660.17 3357.28 1660.17C3289.39 1660.17 3234.36 1715.2 3234.36 1783.09C3234.36 1850.99 3289.39 1906.02 3357.28 1906.02Z" fill="black"/>
<path id="Vector 18" d="M3299.71 1723.96L3416.69 1840.94M3416.69 1723.96L3299.71 1840.94" stroke="#5AA1E3" stroke-width="20.4259"/>
</g>
<path id="Dpad_Right" d="M1053.58 1418.45C1051.11 1418.28 1048.25 1418.18 1045.03 1418.18C1004.25 1418.18 923.334 1429.42 907.66 1437.3C898.722 1441.79 871.453 1473.24 845.207 1509.04C869.388 1541.95 897.836 1575.9 907.66 1580.79C923.385 1588.67 1004.38 1599.95 1045.21 1599.95C1048.38 1599.95 1051.21 1599.86 1053.58 1599.68C1071.11 1598.45 1080.05 1567.97 1080.09 1509.21C1080.05 1450.12 1071.15 1419.69 1053.58 1418.45Z" fill="#636363"/>
<path id="Dpad_Down" d="M767.827 1586.39C734.967 1610.58 700.963 1639.07 696.076 1648.85C687.224 1666.59 674.889 1762.04 677.228 1794.72C678.459 1812.3 708.893 1821.24 767.69 1821.28L768 1843.3V1821.28C826.754 1821.24 857.189 1812.34 858.462 1794.72C860.794 1762 848.416 1666.52 839.571 1648.85C834.641 1639.07 800.723 1610.57 767.827 1586.39Z" fill="#636363"/>
<path id="Button_Select" d="M1216.54 1192.64C1236.76 1192.64 1253.23 1176.17 1253.23 1155.95V1057.34C1253.23 1037.12 1236.76 1020.65 1216.54 1020.65C1196.33 1020.65 1179.85 1037.12 1179.85 1057.34V1155.95C1179.85 1176.17 1196.33 1192.64 1216.54 1192.64Z" fill="#636363"/>
<path id="Button_Start" d="M2916.98 1192.64C2937.21 1192.64 2953.68 1176.17 2953.68 1155.95V1057.34C2953.68 1037.12 2937.21 1020.65 2916.98 1020.65C2896.76 1020.65 2880.29 1037.12 2880.29 1057.34V1155.95C2880.3 1176.17 2896.77 1192.64 2916.98 1192.64Z" fill="#636363"/>
<path id="Button_Touchpad" d="M1403.02 958.329V1552.92C1403.02 1592.56 1435.26 1624.84 1474.95 1624.84H2658.67C2698.31 1624.84 2730.6 1592.61 2730.6 1552.92V958.329C2730.6 939.394 2723.06 922.209 2711.04 909.355H1422.54C1410.51 922.209 1403.02 939.344 1403.02 958.329Z" fill="#636363"/>
<g id="Button_Y">
<path id="Vector_4" d="M3357.28 1329C3425.17 1329 3480.21 1273.97 3480.21 1206.08C3480.21 1138.18 3425.17 1083.15 3357.28 1083.15C3289.39 1083.15 3234.36 1138.18 3234.36 1206.08C3234.36 1273.97 3289.39 1329 3357.28 1329Z" fill="black"/>
<path id="Vector 19" d="M3416.69 1263.44L3353.56 1146.46L3299.71 1263.44H3416.69Z" stroke="#5AE360" stroke-width="20.4259"/>
</g>
<g id="Button_X">
<path id="Vector_5" d="M3068.8 1617.54C3136.69 1617.54 3191.72 1562.5 3191.72 1494.61C3191.72 1426.72 3136.69 1371.68 3068.8 1371.68C3000.91 1371.68 2945.87 1426.72 2945.87 1494.61C2945.87 1562.5 3000.91 1617.54 3068.8 1617.54Z" fill="black"/>
<path id="Vector 20" d="M3011.89 1550.33V1437.99H3128.87V1550.33H3011.89Z" stroke="#AF5AE3" stroke-width="20.4259"/>
</g>
<g id="Button_B">
<path id="Vector_6" d="M3645.83 1617.54C3713.72 1617.54 3768.75 1562.5 3768.75 1494.61C3768.75 1426.72 3713.72 1371.68 3645.83 1371.68C3577.94 1371.68 3522.9 1426.72 3522.9 1494.61C3522.9 1562.5 3577.94 1617.54 3645.83 1617.54Z" fill="black"/>
<circle id="Ellipse 60" cx="3645.09" cy="1493.7" r="63.1346" stroke="#E35A5A" stroke-width="20.4259"/>
</g>
</g>
</g>
<path id="PS4" d="M1961.98 2058.07V1971.64H1994.39C2001.03 1971.64 2006.6 1972.87 2011.11 1975.35C2015.63 1977.83 2019.05 1981.23 2021.36 1985.56C2023.7 1989.87 2024.86 1994.76 2024.86 2000.25C2024.86 2005.79 2023.7 2010.72 2021.36 2015.02C2019.03 2019.32 2015.58 2022.71 2011.02 2025.19C2006.46 2027.64 2000.85 2028.86 1994.18 2028.86H1972.7V2015.99H1992.07C1995.95 2015.99 1999.13 2015.32 2001.61 2013.97C2004.09 2012.61 2005.91 2010.76 2007.1 2008.39C2008.31 2006.03 2008.91 2003.32 2008.91 2000.25C2008.91 1997.18 2008.31 1994.48 2007.1 1992.15C2005.91 1989.81 2004.07 1988 2001.57 1986.7C1999.09 1985.38 1995.9 1984.72 1991.99 1984.72H1977.64V2058.07H1961.98ZM2085.43 1995.4C2085.04 1991.71 2083.38 1988.84 2080.45 1986.79C2077.56 1984.73 2073.79 1983.71 2069.14 1983.71C2065.88 1983.71 2063.08 1984.2 2060.75 1985.18C2058.41 1986.17 2056.62 1987.5 2055.39 1989.19C2054.15 1990.88 2053.52 1992.81 2053.49 1994.97C2053.49 1996.77 2053.89 1998.34 2054.71 1999.66C2055.55 2000.98 2056.69 2002.11 2058.13 2003.03C2059.56 2003.94 2061.15 2004.69 2062.9 2005.31C2064.64 2005.93 2066.4 2006.45 2068.17 2006.88L2076.28 2008.9C2079.54 2009.66 2082.68 2010.69 2085.69 2011.98C2088.73 2013.28 2091.44 2014.91 2093.83 2016.88C2096.25 2018.85 2098.16 2021.22 2099.57 2024.01C2100.98 2026.79 2101.68 2030.06 2101.68 2033.8C2101.68 2038.86 2100.39 2043.32 2097.8 2047.18C2095.21 2051 2091.47 2054 2086.57 2056.17C2081.71 2058.31 2075.81 2059.37 2068.89 2059.37C2062.17 2059.37 2056.33 2058.33 2051.38 2056.25C2046.45 2054.17 2042.6 2051.13 2039.81 2047.14C2037.06 2043.14 2035.56 2038.27 2035.34 2032.53H2050.74C2050.97 2035.54 2051.9 2038.05 2053.53 2040.05C2055.16 2042.04 2057.29 2043.53 2059.9 2044.52C2062.55 2045.5 2065.5 2046 2068.76 2046C2072.17 2046 2075.15 2045.49 2077.71 2044.48C2080.3 2043.44 2082.33 2042 2083.79 2040.17C2085.25 2038.32 2086 2036.15 2086.02 2033.67C2086 2031.42 2085.34 2029.57 2084.04 2028.1C2082.75 2026.61 2080.93 2025.37 2078.6 2024.39C2076.29 2023.38 2073.59 2022.48 2070.49 2021.69L2060.66 2019.16C2053.54 2017.33 2047.92 2014.56 2043.78 2010.84C2039.67 2007.1 2037.62 2002.13 2037.62 1995.94C2037.62 1990.85 2039 1986.39 2041.75 1982.57C2044.54 1978.74 2048.32 1975.77 2053.11 1973.66C2057.89 1971.52 2063.31 1970.45 2069.35 1970.45C2075.49 1970.45 2080.86 1971.52 2085.48 1973.66C2090.12 1975.77 2093.76 1978.71 2096.41 1982.48C2099.05 1986.22 2100.42 1990.53 2100.5 1995.4H2085.43ZM2113.23 2042.03V2029.58L2149.91 1971.64H2160.29V1989.36H2153.96L2129.27 2028.48V2029.16H2180.46V2042.03H2113.23ZM2154.47 2058.07V2038.23L2154.64 2032.66V1971.64H2169.41V2058.07H2154.47Z" fill="white"/>
</g>
</svg>
