<svg width="645" height="404" viewBox="0 0 645 404" fill="none" xmlns="http://www.w3.org/2000/svg">
<g id="Button_R">
<path id="Subtract" fill-rule="evenodd" clip-rule="evenodd" d="M644.737 403.59C628.153 390.371 610.659 377.585 592.231 365.274C544.918 333.668 496.679 308.939 448.207 290.384C361.972 249.75 202.594 179.692 0 113.27C68.4677 43.0884 161.17 0 263.231 0C471.883 0 641.417 180.085 644.737 403.59Z" fill="#EEEEEE"/>
<g id="R">
<g id="R_2">
<path id="R_3" d="M286.367 138.274V35.0166H325.089C333.021 35.0166 339.677 36.3947 345.055 39.151C350.466 41.9072 354.55 45.7726 357.307 50.7473C360.096 55.6883 361.491 61.4529 361.491 68.041C361.491 74.6626 360.08 80.4104 357.256 85.2842C354.466 90.1244 350.349 93.8722 344.904 96.5276C339.458 99.1494 332.769 100.46 324.837 100.46H297.258V84.9313H322.316C326.954 84.9313 330.753 84.2926 333.711 83.0154C336.668 81.7045 338.853 79.8054 340.265 77.318C341.71 74.7971 342.433 71.7047 342.433 68.041C342.433 64.3772 341.71 61.2512 340.265 58.6631C338.82 56.0413 336.618 54.0581 333.66 52.7136C330.702 51.3355 326.887 50.6465 322.215 50.6465H305.073V138.274H286.367ZM339.71 91.4857L365.273 138.274H344.399L319.291 91.4857H339.71Z" fill="black"/>
</g>
</g>
</g>
</svg>
