<svg width="806" height="335" viewBox="0 0 806 335" fill="none" xmlns="http://www.w3.org/2000/svg">
<g id="Button_Z">
<g id="Shape_14_copy_1_">
<g id="Shape_14_copy">
<g id="Group">
<path id="Vector" d="M804.319 224.443C795.166 204.148 663.022 114.68 491.36 68.2996C319.697 21.9186 45.3113 -7.61042 20.8863 1.72058C-3.53967 11.0516 0.206401 97.7876 0.206401 97.7876L755.262 334.15C755.262 334.15 813.471 244.738 804.319 224.443Z" fill="#21359E"/>
</g>
</g>
</g>
<path id="Subtract" d="M769.221 298.059C748.221 280.382 725.668 263.426 701.512 247.289C654.199 215.683 605.96 190.954 557.488 172.398C487.227 139.292 368.413 86.6533 217.231 32.3623C305.261 44.0322 408.418 61.875 488.481 83.5068C654.572 128.382 782.427 214.945 791.282 234.582C795.897 244.815 782.811 273.211 769.221 298.059Z" fill="#3348AD"/>
<path id="Z" d="M347.732 192.289V180.642L400.671 104.712H347.429V89.0313H423.864V100.678L370.975 176.609H424.167V192.289H347.732Z" fill="white"/>
</g>
</svg>
