<svg width="597" height="597" viewBox="0 0 597 597" fill="none" xmlns="http://www.w3.org/2000/svg">
<g id="C_Stick">
<g id="Shape_3_copy_5">
<g id="Group">
<path id="Vector" d="M509.427 88.2639C492.909 71.7469 337.441 0 298.644 0C259.846 0 108.774 67.706 88.4062 88.074C67.0452 109.435 1.01714 268.292 0.011138 299.318C-0.970862 329.619 63.2481 486.045 87.0561 509.852C113.233 536.029 258.77 595.348 297.567 596.318C336.365 597.289 482.467 532.183 507.334 510.219C532.563 487.935 596.65 329.071 596.65 298.94C596.649 268.873 527.819 106.658 509.427 88.2639Z" fill="black"/>
</g>
</g>
<g id="Shape_3_copy_6">
<g id="Group_2">
<path id="Vector_2" d="M502.983 94.6705C486.969 78.6565 336.247 9.10059 298.633 9.10059C261.019 9.10059 114.559 74.7406 94.8123 94.4866C74.1033 115.196 10.0903 269.205 9.11627 299.284C8.16427 328.66 70.4232 480.31 93.5052 503.391C118.882 528.768 259.977 586.278 297.59 587.219C335.203 588.158 476.847 525.039 500.953 503.746C525.413 482.142 587.544 328.128 587.544 298.917C587.544 269.767 520.815 112.502 502.983 94.6705Z" fill="#FFE400"/>
</g>
</g>
<g id="Analog_C_Stick">
<g id="Shape_9">
<g id="Group_3">
<path id="Vector_3" d="M297.95 447.721C377.479 447.721 441.95 383.25 441.95 303.721C441.95 224.192 377.479 159.721 297.95 159.721C218.421 159.721 153.95 224.192 153.95 303.721C153.95 383.25 218.421 447.721 297.95 447.721Z" fill="#5F5500"/>
</g>
</g>
<g id="C_Stick_2">
<g id="Shape_9_copy">
<g id="Group_4">
<path id="Vector_4" d="M297.889 431.894C368.581 431.894 425.889 374.586 425.889 303.894C425.889 233.201 368.581 175.894 297.889 175.894C227.196 175.894 169.889 233.201 169.889 303.894C169.889 374.586 227.196 431.894 297.889 431.894Z" fill="#FFE400"/>
</g>
</g>
<g id="C">
<path id="C_2" d="M344.431 287.187H325.771C325.239 284.127 324.258 281.416 322.827 279.055C321.397 276.66 319.617 274.631 317.489 272.968C315.36 271.305 312.932 270.057 310.204 269.226C307.51 268.361 304.599 267.928 301.473 267.928C295.918 267.928 290.995 269.325 286.704 272.119C282.413 274.88 279.054 278.938 276.625 284.294C274.197 289.616 272.983 296.118 272.983 303.802C272.983 311.619 274.197 318.205 276.625 323.56C279.087 328.882 282.446 332.907 286.704 335.634C290.995 338.329 295.901 339.676 301.423 339.676C304.483 339.676 307.344 339.277 310.005 338.478C312.699 337.647 315.11 336.433 317.239 334.836C319.401 333.24 321.214 331.277 322.678 328.949C324.174 326.62 325.206 323.959 325.771 320.966L344.431 321.065C343.733 325.922 342.219 330.479 339.891 334.736C337.596 338.994 334.586 342.753 330.86 346.012C327.135 349.239 322.777 351.767 317.788 353.596C312.799 355.392 307.26 356.291 301.173 356.291C292.192 356.291 284.176 354.212 277.124 350.054C270.073 345.896 264.518 339.892 260.46 332.042C256.402 324.192 254.373 314.779 254.373 303.802C254.373 292.792 256.418 283.379 260.51 275.562C264.601 267.712 270.173 261.708 277.224 257.55C284.276 253.393 292.259 251.314 301.173 251.314C306.861 251.314 312.15 252.112 317.04 253.709C321.929 255.305 326.287 257.65 330.112 260.744C333.937 263.804 337.08 267.563 339.542 272.02C342.036 276.444 343.666 281.5 344.431 287.187Z" fill="black"/>
</g>
</g>
</g>
</g>
</svg>
