<svg width="641" height="635" viewBox="0 0 641 635" fill="none" xmlns="http://www.w3.org/2000/svg">
<g id="D-Pad">
<g id="Shape_2_copy_4">
<g id="Group">
<path id="Vector" d="M320.406 634.272C497.361 634.272 640.812 492.285 640.812 317.136C640.812 141.987 497.361 0 320.406 0C143.451 0 0 141.987 0 317.136C0 492.285 143.451 634.272 320.406 634.272Z" fill="#1F1F1F"/>
</g>
</g>
<g id="Shape_2_copy_5">
<g id="Group_2">
<path id="Vector_2" d="M320.406 626.197C492.856 626.197 632.654 487.826 632.654 317.136C632.654 146.447 492.856 8.0752 320.406 8.0752C147.956 8.0752 8.1582 146.447 8.1582 317.136C8.1582 487.826 147.956 626.197 320.406 626.197Z" fill="#0C0C0C"/>
</g>
</g>
<g id="Shape_4">
<g id="Group_3">
<path id="Vector_3" d="M403.493 242.196V77.3477H239.746L239.833 239.772H81.2197V396.136L238.709 397.348L238.797 562.196H401.22L402.432 394.923L564.553 393.712V242.196H403.493Z" fill="black"/>
</g>
</g>
<g id="Dpad">
<g id="Group_4">
<path id="Vector_4" d="M394.77 251.249V87.8486H248.142L248.304 248.975H90.0029V387.784L248.064 388.921L248.227 551.701H392.122L393.593 386.648L554.101 385.51V251.249H394.77Z" fill="#EAEAEA"/>
</g>
</g>
<rect id="Dpad_Right" x="394.948" y="251.257" width="159" height="134" fill="#EAEAEA"/>
<rect id="Dpad_Left" x="89.9482" y="247.257" width="159" height="143" fill="#EAEAEA"/>
<rect id="Dpad_Up" x="248.948" y="88.2568" width="146" height="159" fill="#EAEAEA"/>
<rect id="Dpad_Down" x="248.948" y="392.257" width="146" height="159" fill="#EAEAEA"/>
<g id="Shape_5">
<g id="Group_5">
<path id="Vector_5" d="M321.245 120.328L272.599 202.257H368.183L321.245 120.328Z" fill="#C7C7C7"/>
</g>
</g>
<g id="Shape_5_copy">
<g id="Group_6">
<path id="Vector_6" d="M272.599 443.257L321.245 525.185L368.183 443.257H272.599Z" fill="#C7C7C7"/>
</g>
</g>
<g id="Shape_5_copy_2">
<g id="Group_7">
<path id="Vector_7" d="M117.972 321.913L199.901 370.559V274.975L117.972 321.913Z" fill="#C7C7C7"/>
</g>
</g>
<g id="Shape_5_copy_3">
<g id="Group_8">
<path id="Vector_8" d="M440.901 274.975V370.559L522.829 321.913L440.901 274.975Z" fill="#C7C7C7"/>
</g>
</g>
<g id="Shape_17">
<g id="Group_9">
<path id="Vector_9" d="M320.851 368.321C347.718 368.321 369.498 346.541 369.498 319.674C369.498 292.807 347.718 271.027 320.851 271.027C293.984 271.027 272.204 292.807 272.204 319.674C272.204 346.541 293.984 368.321 320.851 368.321Z" fill="#C7C7C7"/>
</g>
</g>
</g>
</svg>
