<svg width="1117" height="995" viewBox="0 0 1117 995" fill="none" xmlns="http://www.w3.org/2000/svg">
<g id="Face_Buttons">
<g id="Shape_2_copy_2">
<g id="Group">
<path id="Vector" d="M583.429 994.17C845.912 994.17 1058.7 783.558 1058.7 523.755C1058.7 263.952 845.912 53.3398 583.429 53.3398C320.946 53.3398 108.162 263.952 108.162 523.755C108.162 783.558 320.946 994.17 583.429 994.17Z" fill="#1F1F1F"/>
</g>
</g>
<g id="Shape_2_copy_3">
<g id="Group_2">
<path id="Vector_2" d="M583.428 982.191C839.226 982.191 1046.59 776.942 1046.59 523.754C1046.59 270.567 839.226 65.3174 583.428 65.3174C327.63 65.3174 120.264 270.567 120.264 523.754C120.264 776.942 327.63 982.191 583.428 982.191Z" fill="#0C0C0C"/>
</g>
</g>
<g id="Shape_7_copy">
<g id="Group_3">
<path id="Vector_3" d="M588 755.773C720.548 755.773 828 648.322 828 515.773C828 383.225 720.548 275.773 588 275.773C455.452 275.773 348 383.225 348 515.773C348 648.322 455.452 755.773 588 755.773Z" fill="black"/>
</g>
</g>
<g id="Button_A">
<path id="Vector_4" d="M588 739.946C711.712 739.946 812 639.658 812 515.946C812 392.235 711.712 291.946 588 291.946C464.288 291.946 364 392.235 364 515.946C364 639.658 464.288 739.946 588 739.946Z" fill="#00BC8E"/>
<g id="A">
<path id="A_2" d="M551.541 582.946H525.532L572.886 448.436H602.967L650.387 582.946H624.378L588.452 476.021H587.401L551.541 582.946ZM552.394 530.206H623.328V549.779H552.394V530.206Z" fill="black"/>
</g>
</g>
<g id="Shape_8">
<g id="Group_4">
<path id="Vector_5" d="M148 895.773C229.738 895.773 296 829.512 296 747.773C296 666.035 229.738 599.773 148 599.773C66.2619 599.773 0 666.035 0 747.773C0 829.512 66.2619 895.773 148 895.773Z" fill="black"/>
</g>
</g>
<g id="Button_B">
<g id="Shape_8_copy">
<g id="Group_5">
<path id="Vector_6" d="M148 877.946C219.797 877.946 278 819.743 278 747.946C278 676.149 219.797 617.946 148 617.946C76.203 617.946 18 676.149 18 747.946C18 819.743 76.203 877.946 148 877.946Z" fill="#FF0000"/>
</g>
</g>
<g id="B">
<path id="B_2" d="M111.185 799.946V696.688H150.713C158.175 696.688 164.376 697.865 169.318 700.218C174.292 702.537 178.006 705.713 180.46 709.747C182.947 713.78 184.191 718.352 184.191 723.461C184.191 727.662 183.384 731.259 181.771 734.251C180.158 737.208 177.99 739.612 175.267 741.46C172.544 743.309 169.502 744.637 166.141 745.444V746.452C169.805 746.654 173.317 747.78 176.679 749.83C180.074 751.847 182.847 754.704 184.998 758.401C187.149 762.099 188.225 766.569 188.225 771.813C188.225 777.157 186.931 781.964 184.342 786.232C181.754 790.468 177.855 793.812 172.645 796.266C167.435 798.719 160.881 799.946 152.982 799.946H111.185ZM129.89 784.316H150.007C156.797 784.316 161.687 783.022 164.679 780.434C167.704 777.812 169.217 774.451 169.217 770.35C169.217 767.292 168.46 764.535 166.948 762.082C165.435 759.594 163.284 757.645 160.494 756.233C157.704 754.788 154.377 754.065 150.511 754.065H129.89V784.316ZM129.89 740.603H148.394C151.621 740.603 154.528 740.015 157.116 738.839C159.704 737.629 161.738 735.931 163.217 733.746C164.729 731.528 165.486 728.906 165.486 725.881C165.486 721.881 164.074 718.587 161.251 715.999C158.461 713.411 154.31 712.117 148.797 712.117H129.89V740.603Z" fill="black"/>
</g>
</g>
<g id="Shape_10">
<g id="Group_6">
<path id="Vector_7" d="M386 25.7734C346 43.7734 170 133.773 246 241.773C340 341.773 392 239.773 472 201.773C576 161.773 682 219.773 682 83.7734C674 -44.2266 426 7.77335 386 25.7734Z" fill="black"/>
</g>
</g>
<g id="Shape_10_copy_3">
<g id="Group_7">
<path id="Vector_8" d="M1090.45 317.492C1072.45 277.492 982.453 101.492 874.453 177.492C774.453 271.492 876.453 323.492 914.453 403.492C954.453 507.492 896.453 613.492 1032.45 613.492C1160.45 605.492 1108.45 357.492 1090.45 317.492Z" fill="black"/>
</g>
</g>
<g id="Button_Y">
<g id="Shape_10_copy">
<g id="Group_8">
<path id="Vector_9" d="M667.349 84.4541C658.46 -27.9419 430.704 22.1461 393.44 38.9691C356.176 55.7921 186.367 135.867 258.771 233.13C341.973 319.155 395.407 221.952 469.911 186.489C566.873 148.93 670.786 202.273 667.349 84.4541Z" fill="#EAEAEA"/>
</g>
</g>
<g id="Y">
<path id="Y_2" d="M410.126 60.6885H431.251L456.511 106.368H457.52L482.78 60.6885H503.905L466.343 125.426V163.946H447.688V125.426L410.126 60.6885Z" fill="black"/>
</g>
</g>
<g id="Button_X">
<g id="Shape_10_copy_4">
<g id="Group_9">
<path id="Vector_10" d="M1077.26 324.387C1060.43 287.123 980.36 117.313 883.096 189.716C797.071 272.918 894.274 326.353 929.737 400.858C967.297 497.82 913.954 601.734 1031.77 598.296C1144.17 589.408 1094.08 361.651 1077.26 324.387Z" fill="#EAEAEA"/>
</g>
</g>
<g id="X">
<path id="X_2" d="M989.515 334.688L1012.25 372.503H1013.06L1035.9 334.688H1057.23L1025.41 386.317L1057.73 437.946H1036.05L1013.06 400.384H1012.25L989.263 437.946H967.683L1000.3 386.317L968.087 334.688H989.515Z" fill="black"/>
</g>
</g>
</g>
</svg>
