<svg width="579" height="579" viewBox="0 0 579 579" fill="none" xmlns="http://www.w3.org/2000/svg">
<g id="L_Stick">
<g id="Shape_3_copy_4">
<g id="Group">
<path id="Vector" d="M493.878 85.57C477.864 69.556 327.142 0 289.528 0C251.914 0 105.454 65.64 85.7068 85.386C64.9978 106.095 0.984797 260.104 0.0107974 290.183C-0.941203 319.559 61.3178 471.21 84.3998 494.291C109.777 519.668 250.872 577.177 288.485 578.118C326.098 579.057 467.741 515.939 491.848 494.646C516.308 473.042 578.439 319.027 578.439 289.816C578.439 260.666 511.71 103.401 493.878 85.57Z" fill="#D1D1D1"/>
</g>
</g>
<g id="Analog_Stick">
<g id="Shape_1">
<g id="Group_2">
<path id="Vector_2" d="M288.493 531.278C425.7 531.278 536.929 424.376 536.929 292.506C536.929 160.636 425.7 53.7344 288.493 53.7344C151.285 53.7344 40.0566 160.636 40.0566 292.506C40.0566 424.376 151.285 531.278 288.493 531.278Z" fill="black"/>
</g>
</g>
<g id="Shape_1_copy">
<g id="Group_3">
<path id="Vector_3" d="M288.493 517.68C417.886 517.68 522.78 416.866 522.78 292.506C522.78 168.146 417.886 67.332 288.493 67.332C159.099 67.332 54.2056 168.146 54.2056 292.506C54.2056 416.866 159.099 517.68 288.493 517.68Z" fill="#EEEEEE"/>
</g>
</g>
<g id="Shape_1_copy_2">
<g id="Group_4">
<path id="Vector_4" d="M286.91 493.156C403.703 493.156 498.383 403.753 498.383 293.469C498.383 183.185 403.703 93.7822 286.91 93.7822C170.118 93.7822 75.4385 183.185 75.4385 293.469C75.4385 403.753 170.118 493.156 286.91 493.156Z" fill="#ACACAC"/>
</g>
</g>
<g id="Shape_1_copy_3">
<g id="Group_5">
<path id="Vector_5" d="M286.91 481.784C397.052 481.784 486.34 397.473 486.34 293.469C486.34 189.466 397.052 105.154 286.91 105.154C176.769 105.154 87.4814 189.466 87.4814 293.469C87.4814 397.473 176.769 481.784 286.91 481.784Z" fill="#EEEEEE"/>
</g>
</g>
<g id="Shape_1_copy_4">
<g id="Group_6">
<path id="Vector_6" d="M286.739 426.834C361.663 426.834 422.402 369.48 422.402 298.73C422.402 227.98 361.663 170.626 286.739 170.626C211.814 170.626 151.076 227.98 151.076 298.73C151.076 369.48 211.814 426.834 286.739 426.834Z" fill="#ACACAC"/>
</g>
</g>
<g id="Shape_1_copy_5">
<g id="Group_7">
<path id="Vector_7" d="M286.738 415.772C355.193 415.772 410.687 363.371 410.687 298.73C410.687 234.09 355.193 181.688 286.738 181.688C218.283 181.688 162.789 234.09 162.789 298.73C162.789 363.371 218.283 415.772 286.738 415.772Z" fill="#EEEEEE"/>
</g>
</g>
<g id="Shape_1_copy_6">
<g id="Group_8">
<path id="Vector_8" d="M288.89 349.608C318.7 349.608 342.865 326.789 342.865 298.642C342.865 270.494 318.7 247.676 288.89 247.676C259.081 247.676 234.916 270.494 234.916 298.642C234.916 326.789 259.081 349.608 288.89 349.608Z" fill="#ACACAC"/>
</g>
</g>
<g id="Shape_1_copy_7">
<g id="Group_9">
<path id="Vector_9" d="M288.887 338.417C312.149 338.417 331.005 320.611 331.005 298.646C331.005 276.681 312.149 258.875 288.887 258.875C265.626 258.875 246.77 276.681 246.77 298.646C246.77 320.611 265.626 338.417 288.887 338.417Z" fill="#EEEEEE"/>
</g>
</g>
</g>
</g>
</svg>
