<svg width="2584" height="2584" viewBox="0 0 2584 2584" fill="none" xmlns="http://www.w3.org/2000/svg">
<g id="n64_black" clip-path="url(#clip0_2824_972)">
<g id="Group">
<g id="Group_2">
<path id="Vector" d="M708.903 848.683C708.903 870.639 691.041 888.529 669.062 888.529H572.676V984.889C572.676 1006.85 554.813 1024.73 532.835 1024.73H462.551C440.594 1024.73 422.71 1006.87 422.71 984.889V888.529H326.314C304.358 888.529 286.469 870.639 286.469 848.683V778.399C286.469 756.443 304.331 738.554 326.314 738.554H422.705V642.194C422.705 620.237 440.564 602.353 462.546 602.353H532.83C554.786 602.353 572.671 620.211 572.671 642.194V738.554H669.058C691.014 738.554 708.899 756.417 708.899 778.399V848.683H708.903ZM2135.87 504.967C2184.5 504.967 2224.04 544.513 2224.04 593.109C2224.04 641.709 2184.5 681.255 2135.87 681.255C2087.27 681.255 2047.73 641.709 2047.73 593.109C2047.73 544.513 2087.24 504.967 2135.87 504.967ZM1986.47 654.342C2035.09 654.342 2074.64 693.889 2074.64 742.485C2074.64 791.081 2035.09 830.658 1986.47 830.658C1937.87 830.658 1898.33 791.085 1898.33 742.485C1898.33 693.884 1937.87 654.342 1986.47 654.342ZM1177.49 929.232C1177.49 866.088 1228.86 814.714 1292 814.714C1355.15 814.714 1406.52 866.088 1406.52 929.232C1406.52 992.407 1355.15 1043.78 1292 1043.78C1228.86 1043.78 1177.49 992.403 1177.49 929.232ZM1636.77 375.711C1627.5 408.333 1599.78 431.421 1563.95 436.219C1560.64 436.65 1557.29 436.945 1553.95 437.324C1379.36 437.324 1204.8 437.324 1030.21 437.324C1030.17 437.32 1030.13 437.316 1030.1 437.312C1027.95 437.074 1025.81 436.836 1023.66 436.624C1011.19 435.383 999.279 432.099 988.287 426.037C963.694 412.462 949.173 391.743 944.89 363.914C944.432 360.899 944.19 357.827 943.838 354.781C943.838 352.681 943.838 350.608 943.838 348.504C944.19 345.405 944.458 342.279 944.89 339.211C948.041 317.634 957.928 299.718 974.818 285.927C992.112 271.784 1012.32 265.749 1034.38 265.749C1206.17 265.697 1377.93 265.723 1549.72 265.723C1558.75 265.723 1567.64 266.828 1576.37 269.196C1625.35 282.419 1649.64 330.346 1636.77 375.711ZM1656.65 907.276C1656.65 844.132 1708.03 792.758 1771.17 792.758C1834.32 792.758 1885.69 844.132 1885.69 907.276C1885.69 970.451 1834.32 1021.82 1771.17 1021.82C1708.03 1021.82 1656.65 970.42 1656.65 907.276ZM1938.14 1206.33C1874.99 1206.33 1823.62 1154.95 1823.62 1091.81C1823.62 1028.67 1874.99 977.291 1938.14 977.291C2001.28 977.291 2052.66 1028.67 2052.66 1091.81C2052.66 1154.95 2001.28 1206.33 1938.14 1206.33ZM2135.87 980.064C2087.27 980.064 2047.73 940.518 2047.73 891.922C2047.73 843.326 2087.27 803.776 2135.87 803.776C2184.5 803.776 2224.04 843.322 2224.04 891.922C2224.04 940.523 2184.47 980.064 2135.87 980.064ZM2285.25 830.688C2236.65 830.688 2197.11 791.116 2197.11 742.516C2197.11 693.915 2236.65 654.369 2285.25 654.369C2333.88 654.369 2373.42 693.915 2373.42 742.516C2373.42 791.116 2333.88 830.688 2285.25 830.688Z" fill="#101010"/>
<circle id="R" cx="2136.5" cy="742.5" r="236.5" fill="#616161"/>
<circle id="Analog_C_Stick" cx="2136.5" cy="742.5" r="236.5" fill="black"/>
<path id="Vector_2" fill-rule="evenodd" clip-rule="evenodd" d="M1805.84 171.326C1579.47 34.2042 1297.23 43.7122 1292.01 43.9015C1286.81 43.7122 1004.54 34.2042 778.194 171.321L758.421 202.085V312L228.96 415.204C228.96 415.204 48.0892 574.845 48.0892 774.032C48.0892 973.219 -86.6595 1603.01 94.9642 1948.63C276.562 2294.24 437.66 1679.11 455.249 1564.88C472.843 1450.66 534.341 1310.04 572.408 1289.54C572.408 1289.54 909.254 1266.1 923.912 1529.72C938.539 1793.19 1033.64 2527.63 1291.77 2540.24V2540.3C1291.85 2540.3 1291.93 2540.27 1292.01 2540.27C1292.09 2540.27 1292.17 2540.3 1292.26 2540.3V2540.24C1550.38 2527.61 1645.48 1793.16 1660.11 1529.72C1674.76 1266.1 2011.61 1289.54 2011.61 1289.54C2049.7 1310.04 2111.21 1450.63 2128.77 1564.88C2146.33 1679.13 2307.46 2294.26 2489.06 1948.61C2670.65 1602.95 2535.93 973.193 2535.93 774.006C2535.95 574.819 2348.46 408.59 2348.46 408.59L1823.62 312V199L1805.84 171.326ZM669.064 888.528C691.042 888.528 708.905 870.639 708.905 848.683H708.9V778.399C708.9 756.416 691.016 738.554 669.059 738.554H572.673V642.193C572.673 620.211 554.788 602.352 532.832 602.352H462.548C440.565 602.352 422.707 620.237 422.707 642.193V738.554H326.315C304.333 738.554 286.47 756.443 286.47 778.399V848.683C286.47 870.639 304.359 888.528 326.315 888.528H422.711V984.889C422.711 1006.87 440.596 1024.73 462.552 1024.73H532.836C554.814 1024.73 572.677 1006.84 572.677 984.889V888.528H669.064ZM2224.04 593.109C2224.04 544.512 2184.5 504.966 2135.87 504.966C2087.24 504.966 2047.73 544.512 2047.73 593.109C2047.73 641.709 2087.28 681.255 2135.87 681.255C2184.5 681.255 2224.04 641.709 2224.04 593.109ZM2074.64 742.484C2074.64 693.888 2035.1 654.342 1986.47 654.342C1937.87 654.342 1898.33 693.884 1898.33 742.484C1898.33 791.085 1937.87 830.657 1986.47 830.657C2035.1 830.657 2074.64 791.081 2074.64 742.484ZM1292.01 814.714C1228.86 814.714 1177.49 866.088 1177.49 929.232C1177.49 992.403 1228.86 1043.78 1292.01 1043.78C1355.15 1043.78 1406.52 992.407 1406.52 929.232C1406.52 866.088 1355.15 814.714 1292.01 814.714ZM1563.95 436.219C1599.78 431.421 1627.5 408.333 1636.77 375.711C1649.65 330.346 1625.35 282.419 1576.37 269.196C1567.64 266.828 1558.75 265.723 1549.72 265.723C1377.93 265.723 1206.17 265.696 1034.38 265.749C1012.32 265.749 992.114 271.784 974.819 285.927C957.929 299.718 948.043 317.633 944.891 339.211C944.46 342.279 944.191 345.405 943.839 348.503V354.78C944.191 357.827 944.433 360.899 944.891 363.914C949.174 391.743 963.696 412.462 988.289 426.037C999.28 432.099 1011.19 435.382 1023.66 436.624C1025.81 436.836 1027.95 437.073 1030.1 437.311L1030.21 437.323H1553.95C1557.3 436.945 1560.64 436.65 1563.95 436.219ZM1771.17 792.758C1708.03 792.758 1656.65 844.131 1656.65 907.276C1656.65 970.42 1708.03 1021.82 1771.17 1021.82C1834.32 1021.82 1885.69 970.451 1885.69 907.276C1885.69 844.131 1834.32 792.758 1771.17 792.758ZM1823.62 1091.81C1823.62 1154.95 1874.99 1206.33 1938.14 1206.33C2001.29 1206.33 2052.66 1154.95 2052.66 1091.81C2052.66 1028.66 2001.29 977.291 1938.14 977.291C1874.99 977.291 1823.62 1028.66 1823.62 1091.81ZM2047.73 891.922C2047.73 940.518 2087.28 980.064 2135.87 980.064C2184.47 980.064 2224.04 940.523 2224.04 891.922C2224.04 843.322 2184.5 803.776 2135.87 803.776C2087.28 803.776 2047.73 843.326 2047.73 891.922ZM2197.11 742.515C2197.11 791.116 2236.66 830.688 2285.25 830.688C2333.88 830.688 2373.42 791.116 2373.42 742.515C2373.42 693.915 2333.88 654.369 2285.25 654.369C2236.66 654.369 2197.11 693.915 2197.11 742.515Z" fill="black"/>
<path id="Vector_3" d="M1015.39 1431.59C1015.39 1584.12 1139.48 1708.2 1292.01 1708.2C1444.53 1708.2 1568.62 1584.12 1568.61 1431.59C1568.61 1279.03 1444.53 1154.95 1292.01 1154.95C1139.47 1154.95 1015.39 1279.06 1015.39 1431.59Z" fill="#101010"/>
<path id="Button_B" d="M1771.17 819.697C1722.87 819.697 1683.59 858.974 1683.59 907.276C1683.59 955.577 1722.87 994.881 1771.17 994.881C1819.45 994.881 1858.75 955.577 1858.75 907.276C1858.75 858.974 1819.47 819.697 1771.17 819.697Z" fill="#FF0000"/>
<path id="Button_A" d="M1938.14 1004.23C1889.84 1004.23 1850.56 1043.51 1850.56 1091.81C1850.56 1140.11 1889.84 1179.39 1938.14 1179.39C1986.42 1179.39 2025.72 1140.11 2025.72 1091.81C2025.72 1043.51 1986.44 1004.23 1938.14 1004.23Z" fill="#00BC8E"/>
<path id="Button_L" d="M229 336.022C391.577 208.603 758.461 202 758.461 202V311.915L229 415.119V336.022Z" fill="#939393"/>
<path id="Button_CD" d="M2135.87 953.099C2169.68 953.099 2197.08 925.695 2197.08 891.891C2197.08 858.088 2169.68 830.684 2135.87 830.684C2102.07 830.684 2074.66 858.088 2074.66 891.891C2074.66 925.695 2102.07 953.099 2135.87 953.099Z" fill="#FFF500"/>
<path id="Button_CR" d="M2285.25 803.749C2319.07 803.749 2346.49 776.334 2346.49 742.516C2346.49 708.697 2319.07 681.282 2285.25 681.282C2251.43 681.282 2224.02 708.697 2224.02 742.516C2224.02 776.334 2251.43 803.749 2285.25 803.749Z" fill="#FFF500"/>
<path id="Vector_4" d="M1292.01 1181.92C1154.35 1181.92 1042.33 1293.93 1042.33 1431.62C1042.33 1569.3 1154.35 1681.29 1292.01 1681.29C1429.66 1681.29 1541.68 1569.31 1541.68 1431.62C1541.68 1293.93 1429.69 1181.92 1292.01 1181.92ZM1292.01 1566.15C1217.82 1566.15 1157.47 1505.81 1157.47 1431.62C1157.47 1357.43 1217.81 1297.09 1292.01 1297.09C1366.19 1297.09 1426.54 1357.43 1426.54 1431.62C1426.54 1505.81 1366.19 1566.15 1292.01 1566.15Z" fill="#2C2C2C"/>
<path id="Button_CL" d="M1986.47 803.749C2020.29 803.749 2047.7 776.334 2047.7 742.516C2047.7 708.697 2020.29 681.282 1986.47 681.282C1952.65 681.282 1925.23 708.697 1925.23 742.516C1925.23 776.334 1952.65 803.749 1986.47 803.749Z" fill="#FFF500"/>
<path id="Analog_Stick" d="M1292.01 1310.5C1225.23 1310.5 1170.91 1364.82 1170.91 1431.59C1170.91 1498.37 1225.23 1552.68 1292.01 1552.68C1358.78 1552.68 1413.1 1498.37 1413.1 1431.59C1413.1 1364.82 1358.78 1310.5 1292.01 1310.5Z" fill="#939393" stroke="#101010" stroke-width="27"/>
<path id="Button_CU" d="M2135.87 654.347C2169.68 654.347 2197.08 626.943 2197.08 593.14C2197.08 559.336 2169.68 531.932 2135.87 531.932C2102.07 531.932 2074.66 559.336 2074.66 593.14C2074.66 626.943 2102.07 654.347 2135.87 654.347Z" fill="#FFF500"/>
<path id="Vector_5" d="M669.065 765.493H545.734V642.193C545.734 635.08 539.941 629.287 532.832 629.287H462.548C455.435 629.287 449.642 635.08 449.642 642.193V765.493H326.316C319.203 765.493 313.41 771.286 313.41 778.399V848.683C313.41 855.823 319.203 861.589 326.316 861.589H449.642V984.889C449.642 992.002 455.435 997.79 462.548 997.79H532.832C539.941 997.79 545.734 992.002 545.734 984.889V861.589H669.065C676.178 861.589 681.966 855.796 681.966 848.683V778.399C681.966 771.286 676.178 765.493 669.065 765.493Z" fill="#939393"/>
<path id="Button_Start" d="M1379.61 929.232C1379.61 880.931 1340.33 841.653 1292.03 841.653C1243.73 841.653 1204.45 880.931 1204.45 929.232C1204.45 977.533 1243.73 1016.84 1292.03 1016.84C1340.33 1016.84 1379.61 977.533 1379.61 929.232Z" fill="#939393"/>
</g>
</g>
<path id="Button_R" d="M2355.43 336.086V415.178L1824 312V199C1824 199 2192.85 208.662 2355.43 336.086Z" fill="#939393"/>
<path id="-&#62;" d="M2098.48 895.294L2105.43 888.271L2126.47 909.305L2126.47 858.203L2136.62 858.203L2136.62 909.305L2157.62 888.271L2164.61 895.294L2131.55 928.362L2098.48 895.294Z" fill="#101010"/>
<path id="-&#62;_2" d="M2098.48 589.706L2105.43 596.729L2126.47 575.695L2126.47 626.797L2136.62 626.797L2136.62 575.695L2157.62 596.729L2164.61 589.706L2131.55 556.638L2098.48 589.706Z" fill="#101010"/>
<path id="-&#62;_3" d="M1982.71 783.523L1989.73 776.568L1968.69 755.534L2019.8 755.534L2019.8 745.375L1968.69 745.375L1989.73 724.375L1982.71 717.386L1949.64 750.455L1982.71 783.523Z" fill="#101010"/>
<path id="R_2" d="M2065.17 342L2065.17 272.182L2091.35 272.182C2096.71 272.182 2101.21 273.114 2104.85 274.977C2108.51 276.841 2111.27 279.455 2113.13 282.818C2115.02 286.159 2115.96 290.057 2115.96 294.511C2115.96 298.989 2115.01 302.875 2113.1 306.17C2111.21 309.443 2108.43 311.977 2104.75 313.773C2101.07 315.545 2096.54 316.432 2091.18 316.432L2072.53 316.432L2072.53 305.932L2089.47 305.932C2092.61 305.932 2095.18 305.5 2097.18 304.636C2099.18 303.75 2100.66 302.466 2101.61 300.784C2102.59 299.08 2103.08 296.989 2103.08 294.511C2103.08 292.034 2102.59 289.92 2101.61 288.17C2100.63 286.398 2099.14 285.057 2097.14 284.148C2095.14 283.216 2092.57 282.75 2089.41 282.75L2077.82 282.75L2077.82 342L2065.17 342ZM2101.24 310.364L2118.52 342L2104.41 342L2087.43 310.364L2101.24 310.364Z" fill="#101010"/>
<path id="L" d="M473.199 344L473.199 274.182L485.847 274.182L485.847 333.398L516.597 333.398L516.597 344L473.199 344Z" fill="#101010"/>
<path id="-&#62;_4" d="M2288.29 778.523L2281.27 771.568L2302.31 750.534L2251.2 750.534L2251.2 740.375L2302.31 740.375L2281.27 719.375L2288.29 712.386L2321.36 745.455L2288.29 778.523Z" fill="#101010"/>
<path id="START" d="M1166.59 756.608L1155.75 752.864C1144.03 748.64 1138.66 743.168 1138.66 732.512C1138.66 720.896 1148.26 711.296 1164.1 711.296C1177.25 711.296 1185.99 716 1190.11 726.176L1179.65 733.664C1177.06 726.656 1171.59 723.104 1164.58 723.104C1156.51 723.104 1152.39 727.04 1152.39 731.84C1152.39 735.872 1155.17 738.56 1161.89 740.768L1173.41 744.512C1185.22 748.544 1192.23 755.072 1192.23 766.592C1192.23 781.184 1182.34 789.824 1164.67 789.824C1149.7 789.824 1139.62 782.336 1135.59 770.336L1146.34 763.136C1149.51 771.968 1156.9 777.632 1164.67 777.632C1173.12 777.632 1177.73 773.792 1177.73 768.032C1177.73 762.656 1174.47 759.488 1166.59 756.608ZM1235.45 788H1220.95V725.12H1199.93V713.12H1256.57V725.12H1235.45V788ZM1323.21 788H1308.72L1302 768.512H1274.54L1267.73 788H1253.33L1279.34 713.12H1297.39L1323.21 788ZM1278.57 756.512H1297.87C1297.87 756.512 1289.52 733.952 1288.46 727.136H1287.69C1286.73 733.952 1278.57 756.512 1278.57 756.512ZM1391.14 788H1374.34L1359.46 757.952H1345.92V788H1331.91V713.12H1362.15C1376.26 713.12 1386.24 721.28 1386.24 734.72C1386.24 746.72 1380.77 753.056 1372.8 755.552L1391.14 788ZM1345.92 746.72H1359.75C1366.95 746.72 1371.75 742.784 1371.75 735.392C1371.75 728.672 1366.56 725.024 1359.56 725.024H1345.92V746.72ZM1429.98 788H1415.48V725.12H1394.46V713.12H1451.1V725.12H1429.98V788Z" fill="white"/>
<path id="A" d="M1972.92 1128H1958.42L1951.7 1108.51H1924.25L1917.43 1128H1903.03L1929.05 1053.12H1947.09L1972.92 1128ZM1928.28 1096.51H1947.57C1947.57 1096.51 1939.22 1073.95 1938.17 1067.14H1937.4C1936.44 1073.95 1928.28 1096.51 1928.28 1096.51Z" fill="white"/>
<path id="B" d="M1776.49 943H1745.1V868.12H1774.66C1788.49 868.12 1797.7 875.896 1797.7 886.84C1797.7 895.672 1793.19 901.336 1785.99 902.776L1786.09 902.968C1794.15 903.832 1802.02 910.456 1802.02 922.072C1802.02 934.744 1792.14 943 1776.49 943ZM1759.3 898.552H1773.22C1779.46 898.552 1783.59 895.48 1783.59 889.432C1783.59 882.808 1778.02 879.64 1772.26 879.64H1759.3V898.552ZM1759.3 931.096H1774.57C1782.34 931.096 1787.72 927.256 1787.72 920.152C1787.72 913.048 1781.19 909.592 1774.18 909.592H1759.3V931.096Z" fill="white"/>
<g id="Button_Z">
<g id="Shape_14_copy_1_">
<g id="Shape_14_copy">
<g id="Group_3">
<path id="Vector_6" d="M2479.32 2190.44C2470.17 2170.15 2338.02 2080.68 2166.36 2034.3C1994.7 1987.92 1720.31 1958.39 1695.89 1967.72C1671.46 1977.05 1675.21 2063.79 1675.21 2063.79L2430.26 2300.15C2430.26 2300.15 2488.47 2210.74 2479.32 2190.44Z" fill="black"/>
</g>
</g>
</g>
<path id="Z" d="M2022.73 2158.29V2146.64L2075.67 2070.71H2022.43V2055.03H2098.86V2066.68L2045.97 2142.61H2099.17V2158.29H2022.73Z" fill="white"/>
</g>
<rect id="Dpad_Up" x="448" y="629" width="98" height="135" rx="11" fill="#939393"/>
<rect id="Dpad_Down" x="448" y="864" width="98" height="134" rx="11" fill="#939393"/>
<rect id="Dpad_Left" x="313" y="764" width="135" height="100" rx="11" fill="#939393"/>
<rect id="Dpad_Right" x="547" y="764" width="135" height="100" rx="11" fill="#939393"/>
<path id="N64" d="M1246.12 308.909V402H1231.12L1187.26 338.591H1186.48V402H1169.62V308.909H1184.71L1228.53 372.364H1229.35V308.909H1246.12ZM1297.68 403.273C1293.22 403.242 1288.87 402.47 1284.63 400.955C1280.39 399.409 1276.57 396.909 1273.18 393.455C1269.78 389.97 1267.09 385.348 1265.09 379.591C1263.09 373.803 1262.1 366.636 1262.13 358.091C1262.13 350.121 1262.98 343.015 1264.68 336.773C1266.37 330.53 1268.81 325.258 1271.99 320.955C1275.18 316.621 1279.01 313.318 1283.49 311.045C1288.01 308.773 1293.05 307.636 1298.63 307.636C1304.48 307.636 1309.66 308.788 1314.18 311.091C1318.72 313.394 1322.39 316.545 1325.18 320.545C1327.96 324.515 1329.69 329 1330.36 334H1313.77C1312.92 330.424 1311.18 327.576 1308.54 325.455C1305.93 323.303 1302.63 322.227 1298.63 322.227C1292.18 322.227 1287.21 325.03 1283.72 330.636C1280.27 336.242 1278.52 343.939 1278.49 353.727H1279.13C1280.62 351.061 1282.54 348.773 1284.9 346.864C1287.27 344.955 1289.93 343.485 1292.9 342.455C1295.9 341.394 1299.07 340.864 1302.4 340.864C1307.86 340.864 1312.75 342.167 1317.09 344.773C1321.45 347.379 1324.9 350.97 1327.45 355.545C1329.99 360.091 1331.25 365.303 1331.22 371.182C1331.25 377.303 1329.86 382.803 1327.04 387.682C1324.22 392.53 1320.3 396.348 1315.27 399.136C1310.24 401.924 1304.37 403.303 1297.68 403.273ZM1297.59 389.636C1300.89 389.636 1303.84 388.833 1306.45 387.227C1309.05 385.621 1311.12 383.455 1312.63 380.727C1314.15 378 1314.89 374.939 1314.86 371.545C1314.89 368.212 1314.16 365.197 1312.68 362.5C1311.22 359.803 1309.21 357.667 1306.63 356.091C1304.05 354.515 1301.12 353.727 1297.81 353.727C1295.36 353.727 1293.07 354.197 1290.95 355.136C1288.83 356.076 1286.98 357.379 1285.4 359.045C1283.83 360.682 1282.59 362.591 1281.68 364.773C1280.8 366.924 1280.34 369.227 1280.31 371.682C1280.34 374.924 1281.1 377.909 1282.59 380.636C1284.07 383.364 1286.12 385.545 1288.72 387.182C1291.33 388.818 1294.28 389.636 1297.59 389.636ZM1344.9 384.727V371.318L1384.4 308.909H1395.59V328H1388.77L1362.18 370.136V370.864H1417.31V384.727H1344.9ZM1389.31 402V380.636L1389.49 374.636V308.909H1405.4V402H1389.31Z" fill="white"/>
</g>
<defs>
<clipPath id="clip0_2824_972">
<rect width="2584" height="2584" fill="white"/>
</clipPath>
</defs>
</svg>
