<svg width="1920" height="1080" viewBox="0 0 1920 1080" fill="none" xmlns="http://www.w3.org/2000/svg">
<g clip-path="url(#clip0_2826_1096)">
<g opacity="0.4" clip-path="url(#clip1_2826_1096)" filter="url(#filter0_f_2826_1096)">
<rect width="1920" height="1080" fill="white"/>
<path fill-rule="evenodd" clip-rule="evenodd" d="M178.606 -141.668C97.5124 -122.584 49.9986 -49.2721 -5.76166 12.6206C-56.8743 69.3545 -111.216 122.158 -126.485 196.977C-145.895 292.083 -156.33 396.601 -100.303 475.868C-36.7022 565.851 70.5187 650.072 178.606 628.621C283.306 607.842 292.522 461.728 365.137 383.496C432.079 311.376 557.216 292.874 579.258 196.977C603.716 90.5688 559.857 -30.384 476.468 -100.867C396.905 -168.117 280.015 -165.534 178.606 -141.668Z" fill="#EF4975"/>
<path fill-rule="evenodd" clip-rule="evenodd" d="M1638.15 -156.961C1705.85 -155.682 1762.46 -118.578 1817.24 -78.7778C1887.45 -27.7728 1990.47 13.5535 1992.29 100.314C1994.11 187.2 1892.13 231.996 1824.91 287.075C1767.69 333.959 1712.04 386.913 1638.15 390.485C1561.18 394.206 1491.46 355.568 1432.42 306.048C1366.31 250.604 1287.83 186.485 1292.17 100.314C1296.45 15.4091 1383.94 -34.9474 1452.16 -85.6763C1507.54 -126.863 1569.14 -158.265 1638.15 -156.961Z" fill="#4950EF"/>
<path fill-rule="evenodd" clip-rule="evenodd" d="M1124.69 -68.2911C1240.52 -85.2069 1353.62 -20.6344 1436.25 62.2469C1518.72 144.973 1556.53 257.162 1565.22 373.613C1574.76 501.473 1579.08 646.439 1486.44 735.144C1394.68 823.015 1249.54 819.19 1124.69 795.46C1021.68 775.883 952.015 694.357 878.543 619.604C806.113 545.911 707.038 476.865 710.068 373.613C713.067 271.403 822.583 216.233 892.569 141.641C966.772 62.5558 1017.35 -52.6159 1124.69 -68.2911Z" fill="#6A49EF"/>
<path fill-rule="evenodd" clip-rule="evenodd" d="M1718.03 117.141C1811.1 119.869 1902.01 168.213 1954.2 245.325C2000.12 313.165 1981.09 401.245 1964.65 481.498C1952.11 542.728 1915.11 590.381 1873.9 637.371C1828.2 689.481 1785.53 746.972 1718.03 762.712C1632.81 782.585 1526.22 796.92 1467.35 732.174C1408.9 667.891 1462.3 568.38 1462.34 481.498C1462.39 394.698 1417.73 302.115 1467.59 231.064C1522.36 153.024 1622.73 114.348 1718.03 117.141Z" fill="#4995EF"/>
<path fill-rule="evenodd" clip-rule="evenodd" d="M150.891 1095.33C57.8147 1092.61 -33.0861 1044.26 -85.2816 967.149C-131.201 899.31 -112.172 811.23 -95.7344 730.977C-83.1932 669.746 -46.1928 622.094 -4.98212 575.103C40.7181 522.994 83.3917 465.503 150.891 449.762C236.112 429.89 342.699 415.554 401.567 480.3C460.015 544.584 406.617 644.094 406.575 730.977C406.533 817.777 451.185 910.359 401.325 981.411C346.561 1059.45 246.188 1098.13 150.891 1095.33Z" fill="#4995EF"/>
<path fill-rule="evenodd" clip-rule="evenodd" d="M1606.14 526.596C1739.86 537.729 1884.46 483.406 1991.52 564.298C2108.5 652.686 2192.49 805.478 2166.14 949.717C2141.45 1084.87 1965.16 1114.67 1872.47 1216.08C1770.34 1327.82 1754.78 1533.72 1606.14 1562.4C1452.86 1591.97 1297.56 1474.3 1212.45 1343.44C1138.06 1229.06 1217.55 1085.8 1207.67 949.717C1196.14 791.097 1041.73 610.077 1150.76 494.302C1259.22 379.133 1448.49 513.471 1606.14 526.596Z" fill="#EF4975"/>
<path fill-rule="evenodd" clip-rule="evenodd" d="M490.72 573.879C619.407 555.801 763.833 624.366 828.308 737.213C887.015 839.967 797.752 958.353 776.951 1074.86C762.287 1156.99 780.828 1247.29 726.009 1310.19C668.395 1376.29 578.172 1396.98 490.72 1403.25C394.807 1410.13 300.409 1397.85 219.074 1346.55C111.068 1278.42 -34.0873 1202.5 -29.9119 1074.86C-25.7394 947.302 144.331 908.864 236.285 820.381C324.742 735.263 369.164 590.955 490.72 573.879Z" fill="#EF7B49"/>
<path fill-rule="evenodd" clip-rule="evenodd" d="M540.666 236.553C635.205 231.973 742.614 255.143 796.134 333.208C846.266 406.332 802.683 502.445 782.073 588.676C767.716 648.738 734.057 695.757 697.569 745.578C649.792 810.814 621.367 913.242 540.666 918.298C459.804 923.365 406.442 834.808 362.787 766.554C329.011 713.745 338.032 650.826 329.844 588.676C319.307 508.693 267.366 426.033 308.807 356.817C355.3 279.162 450.263 240.932 540.666 236.553Z" fill="#49EFA9"/>
<path fill-rule="evenodd" clip-rule="evenodd" d="M934.461 369.339C1032.15 362.497 1101.21 460.703 1160.97 538.249C1211.64 603.998 1224.51 682.962 1239.11 764.663C1258.97 875.724 1329.94 1001.42 1259.53 1089.6C1188.2 1178.93 1047.64 1162.39 934.461 1146.19C838.411 1132.43 759.548 1076.67 690.857 1008.17C622.058 939.557 541.631 861.264 551.89 764.663C561.79 671.445 672.412 635.274 737.615 567.898C804.991 498.275 837.792 376.109 934.461 369.339Z" fill="#9C49EF"/>
<path fill-rule="evenodd" clip-rule="evenodd" d="M687.001 449.975C765.668 451.647 811.213 368.737 876.832 325.284C975.871 259.701 1148.64 253.387 1162.17 135.316C1175.44 19.5592 1026.09 -44.312 926.022 -103.876C853.661 -146.948 771.156 -144.991 687.001 -147.523C598.516 -150.185 497.324 -179.738 433.164 -118.702C368.484 -57.1722 375.155 47.2027 389.683 135.316C401.837 209.027 453.775 263.098 505.066 317.381C558.651 374.09 609.027 448.317 687.001 449.975Z" fill="#4995EF"/>
</g>
</g>
<defs>
<filter id="filter0_f_2826_1096" x="-500" y="-500" width="2920" height="2080" filterUnits="userSpaceOnUse" color-interpolation-filters="sRGB">
<feFlood flood-opacity="0" result="BackgroundImageFix"/>
<feBlend mode="normal" in="SourceGraphic" in2="BackgroundImageFix" result="shape"/>
<feGaussianBlur stdDeviation="250" result="effect1_foregroundBlur_2826_1096"/>
</filter>
<clipPath id="clip0_2826_1096">
<rect width="1920" height="1080" fill="white"/>
</clipPath>
<clipPath id="clip1_2826_1096">
<rect width="1920" height="1080" fill="white"/>
</clipPath>
</defs>
</svg>
