<svg width="1991" height="1992" viewBox="0 0 1991 1992" fill="none" xmlns="http://www.w3.org/2000/svg">
<g id="xbox_one_black">
<g id="Vector">
<path d="M1503.63 511.242C1550.75 511.242 1589.06 549.58 1589.06 596.679C1589.06 643.777 1550.75 682.115 1503.63 682.115C1456.5 682.115 1418.19 643.798 1418.19 596.679C1418.19 549.56 1456.5 511.242 1503.63 511.242ZM1372.79 642.016C1419.89 642.016 1458.23 680.334 1458.23 727.453C1458.23 774.572 1419.92 812.889 1372.79 812.889C1325.67 812.889 1287.35 774.551 1287.35 727.453C1287.35 680.354 1325.67 642.016 1372.79 642.016ZM1140.11 672.789C1170.26 672.789 1194.77 697.325 1194.77 727.47C1194.77 757.615 1170.26 782.13 1140.11 782.13C1109.97 782.13 1085.45 757.615 1085.45 727.47C1085.45 697.325 1109.97 672.789 1140.11 672.789ZM487.901 892.528C395.009 892.528 319.42 816.943 319.42 724.047C319.42 631.155 395.005 555.591 487.901 555.591C580.797 555.591 656.358 631.155 656.358 724.047C656.358 816.943 580.793 892.528 487.901 892.528ZM880.106 1089.53C880.106 1095.33 875.4 1100.04 869.603 1100.04H792.549V1177.12C792.549 1182.91 787.842 1187.62 782.045 1187.62H698.857C693.059 1187.62 688.353 1182.92 688.353 1177.12V1100.04H611.299C605.501 1100.04 600.795 1095.33 600.795 1089.53V1006.35C600.795 1000.55 605.501 995.842 611.299 995.842H688.353V918.767C688.353 912.969 693.059 908.263 698.857 908.263H782.045C787.842 908.263 792.549 912.969 792.549 918.767V995.842H869.603C875.4 995.842 880.106 1000.55 880.106 1006.35V1089.53ZM854.774 782.113C824.629 782.113 800.114 757.597 800.114 727.453C800.114 697.308 824.629 672.768 854.774 672.768C884.919 672.768 909.434 697.304 909.434 727.453C909.434 757.601 884.895 782.113 854.774 782.113ZM995.52 610.567C939.03 610.567 893.088 564.601 893.088 508.135C893.088 451.67 939.054 405.704 995.52 405.704C1051.99 405.704 1097.95 451.67 1097.95 508.135C1097.95 564.601 1052.01 610.567 995.52 610.567ZM1253.91 1199.95C1161.02 1199.95 1085.45 1124.36 1085.45 1031.47C1085.45 938.576 1161.02 863.012 1253.91 863.012C1346.81 863.012 1422.37 938.576 1422.37 1031.47C1422.37 1124.36 1346.81 1199.95 1253.91 1199.95ZM1503.63 950.529C1456.5 950.529 1418.19 912.19 1418.19 865.092C1418.19 817.994 1456.5 779.655 1503.63 779.655C1550.75 779.655 1589.06 817.973 1589.06 865.092C1589.06 912.211 1550.74 950.529 1503.63 950.529ZM1644.56 812.889C1597.44 812.889 1559.12 774.551 1559.12 727.453C1559.12 680.354 1597.44 642.016 1644.56 642.016C1691.66 642.016 1730 680.334 1730 727.453C1730 774.572 1691.66 812.889 1644.56 812.889Z" fill="#1C1C1C"/>
<path fill-rule="evenodd" clip-rule="evenodd" d="M1243.26 375.875H995.733H995.314H747.764C747.764 375.875 729.387 373.156 705.561 362.543L656.358 470.874C641.968 410.882 541.542 336.77 254.953 520.256C199.157 555.927 53.0907 1048.47 53.0907 1048.47C53.0907 1048.47 -137.132 1597.07 202.558 1663.31C202.558 1663.31 285.767 1610.66 357.11 1525.73C384.859 1492.69 551.009 1317.17 591.53 1282.44H1394.66L1577.84 1465.75C1598.87 1486.38 1618.12 1506.93 1633.89 1525.75C1705.23 1610.68 1788.44 1663.33 1788.44 1663.33C2128.13 1597.09 1937.91 1048.49 1937.91 1048.49C1937.91 1048.49 1791.87 555.907 1736.07 520.256C1449.5 371.612 1345.87 391.519 1329.88 420.052L1287.35 469.629L1243.26 375.875ZM1589.06 596.679C1589.06 549.58 1550.75 511.242 1503.63 511.242C1456.5 511.242 1418.19 549.56 1418.19 596.679C1418.19 643.798 1456.5 682.115 1503.63 682.115C1550.75 682.115 1589.06 643.777 1589.06 596.679ZM1458.23 727.453C1458.23 680.334 1419.89 642.016 1372.79 642.016C1325.67 642.016 1287.35 680.354 1287.35 727.453C1287.35 774.551 1325.67 812.889 1372.79 812.889C1419.92 812.889 1458.23 774.572 1458.23 727.453ZM1194.77 727.47C1194.77 697.325 1170.26 672.789 1140.11 672.789C1109.97 672.789 1085.45 697.325 1085.45 727.47C1085.45 757.615 1109.97 782.13 1140.11 782.13C1170.26 782.13 1194.77 757.615 1194.77 727.47ZM319.42 724.047C319.42 816.943 395.009 892.528 487.901 892.528C580.793 892.528 656.358 816.943 656.358 724.047C656.358 631.155 580.797 555.591 487.901 555.591C395.005 555.591 319.42 631.155 319.42 724.047ZM869.603 1100.04C875.4 1100.04 880.106 1095.33 880.106 1089.53V1006.35C880.106 1000.55 875.4 995.842 869.603 995.842H792.549V918.767C792.549 912.969 787.842 908.263 782.045 908.263H698.857C693.059 908.263 688.353 912.969 688.353 918.767V995.842H611.299C605.501 995.842 600.795 1000.55 600.795 1006.35V1089.53C600.795 1095.33 605.501 1100.04 611.299 1100.04H688.353V1177.12C688.353 1182.92 693.059 1187.62 698.857 1187.62H782.045C787.842 1187.62 792.549 1182.91 792.549 1177.12V1100.04H869.603ZM800.114 727.453C800.114 757.597 824.629 782.113 854.774 782.113C884.895 782.113 909.434 757.601 909.434 727.453C909.434 697.304 884.919 672.768 854.774 672.768C824.629 672.768 800.114 697.308 800.114 727.453ZM893.088 508.135C893.088 564.601 939.03 610.567 995.52 610.567C1052.01 610.567 1097.95 564.601 1097.95 508.135C1097.95 451.67 1051.99 405.704 995.52 405.704C939.054 405.704 893.088 451.67 893.088 508.135ZM1085.45 1031.47C1085.45 1124.36 1161.02 1199.95 1253.91 1199.95C1346.81 1199.95 1422.37 1124.36 1422.37 1031.47C1422.37 938.576 1346.81 863.012 1253.91 863.012C1161.02 863.012 1085.45 938.576 1085.45 1031.47ZM1418.19 865.092C1418.19 912.19 1456.5 950.529 1503.63 950.529C1550.74 950.529 1589.06 912.211 1589.06 865.092C1589.06 817.973 1550.75 779.655 1503.63 779.655C1456.5 779.655 1418.19 817.994 1418.19 865.092ZM1559.12 727.453C1559.12 774.551 1597.44 812.889 1644.56 812.889C1691.66 812.889 1730 774.572 1730 727.453C1730 680.334 1691.66 642.016 1644.56 642.016C1597.44 642.016 1559.12 680.354 1559.12 727.453Z" fill="#1C1C1C"/>
</g>
<g id="Vector_2">
<path d="M880.106 1089.53C880.106 1095.33 875.4 1100.04 869.603 1100.04H792.548V1177.11C792.548 1182.91 787.842 1187.62 782.045 1187.62H698.856C693.059 1187.62 688.353 1182.91 688.353 1177.11V1100.04H611.298C605.501 1100.04 600.795 1095.33 600.795 1089.53V1006.34C600.795 1000.55 605.501 995.839 611.298 995.839H688.353V918.764C688.353 912.966 693.059 908.26 698.856 908.26H782.045C787.842 908.26 792.548 912.966 792.548 918.764V995.839H869.603C875.4 995.839 880.106 1000.54 880.106 1006.34V1089.53Z" fill="#323232"/>
<path d="M487.901 892.526C395.009 892.526 319.42 816.94 319.42 724.045C319.42 631.152 395.005 555.588 487.901 555.588C580.797 555.588 656.358 631.152 656.358 724.045C656.358 816.94 580.793 892.526 487.901 892.526Z" fill="#323232"/>
<path d="M854.774 782.11C824.629 782.11 800.114 757.595 800.114 727.45C800.114 697.305 824.629 672.766 854.774 672.766C884.919 672.766 909.434 697.302 909.434 727.45C909.434 757.598 884.895 782.11 854.774 782.11Z" fill="#323232"/>
<path d="M995.52 610.564C939.03 610.564 893.088 564.598 893.088 508.133C893.088 451.667 939.054 405.701 995.52 405.701C1051.99 405.701 1097.95 451.667 1097.95 508.133C1097.95 564.598 1052.01 610.564 995.52 610.564Z" fill="#323232"/>
<path d="M1140.11 672.786C1170.26 672.786 1194.77 697.322 1194.77 727.467C1194.77 757.612 1170.26 782.127 1140.11 782.127C1109.97 782.127 1085.45 757.612 1085.45 727.467C1085.45 697.322 1109.97 672.786 1140.11 672.786Z" fill="#323232"/>
<path d="M1253.91 1199.95C1161.02 1199.95 1085.45 1124.36 1085.45 1031.47C1085.45 938.573 1161.02 863.009 1253.91 863.009C1346.81 863.009 1422.37 938.573 1422.37 1031.47C1422.37 1124.36 1346.81 1199.95 1253.91 1199.95Z" fill="#323232"/>
<path d="M1503.63 950.526C1456.5 950.526 1418.19 912.187 1418.19 865.089C1418.19 817.991 1456.5 779.652 1503.63 779.652C1550.75 779.652 1589.06 817.97 1589.06 865.089C1589.06 912.208 1550.74 950.526 1503.63 950.526Z" fill="#323232"/>
<path d="M1372.79 642.013C1419.89 642.013 1458.23 680.331 1458.23 727.45C1458.23 774.569 1419.92 812.886 1372.79 812.886C1325.67 812.886 1287.35 774.548 1287.35 727.45C1287.35 680.352 1325.67 642.013 1372.79 642.013Z" fill="#323232"/>
<path d="M1503.63 511.239C1550.75 511.239 1589.06 549.578 1589.06 596.676C1589.06 643.774 1550.75 682.112 1503.63 682.112C1456.5 682.112 1418.19 643.795 1418.19 596.676C1418.19 549.557 1456.5 511.239 1503.63 511.239Z" fill="#323232"/>
<path d="M1644.56 812.886C1597.44 812.886 1559.12 774.548 1559.12 727.45C1559.12 680.352 1597.44 642.013 1644.56 642.013C1691.66 642.013 1730 680.331 1730 727.45C1730 774.569 1691.66 812.886 1644.56 812.886Z" fill="#323232"/>
</g>
<g id="Button_Home">
<path id="Vector_3" d="M1041.81 453.664C1032.22 458.22 1017.32 465.539 1015.85 473.654C1015.85 473.654 1056.47 513.247 1054.71 549.74C1063 538.067 1068 523.887 1068 508.505C1068 486.36 1057.67 466.793 1041.81 453.664Z" fill="white"/>
<path id="Vector_4" d="M995.838 491.711C959.658 519.649 947.726 543.122 943.761 556.326C956.853 570.748 975.553 579.986 996.519 579.986C1016.92 579.986 1035.23 571.302 1048.27 557.544C1044.69 544.602 1033.16 520.535 995.838 491.711Z" fill="white"/>
<path id="Vector_5" d="M1026.54 443.874C1017.38 439.595 1007.27 437.031 996.52 437.031C985.66 437.031 975.479 439.65 966.24 444.001C982.487 445.257 993.218 452.152 995.836 454.035C998.53 452.118 1009.63 444.89 1026.54 443.874Z" fill="white"/>
<path id="Vector_6" d="M950.734 454.09C935.153 467.203 925.028 486.602 925.028 508.527C925.028 523.077 929.455 536.592 936.94 547.879C936.608 511.92 975.831 473.673 975.831 473.673C974.412 465.799 960.34 458.664 950.734 454.09Z" fill="white"/>
</g>
<path id="Vector_7" d="M771.54 1004.77V927.691H709.359V1004.77C709.359 1010.56 704.653 1015.27 698.855 1015.27H621.801V1077.45H698.855C704.653 1077.45 709.359 1082.16 709.359 1087.96V1165.03H771.54V1087.96C771.54 1082.16 776.246 1077.45 782.043 1077.45H859.098V1015.27H782.043C776.246 1015.27 771.54 1010.57 771.54 1004.77Z" fill="#656565"/>
<path id="Button_ZL" d="M328.249 420.049C385.995 375.872 620.395 301.149 661.15 335.117C676.105 347.583 691.749 356.388 705.561 362.54L656.358 470.871C641.971 410.892 541.584 336.798 255.133 520.138C310.663 484.541 270.561 464.159 328.249 420.049Z" fill="#464646"/>
<path id="Button_ZR" d="M1662.78 420.048C1720.53 464.204 1680.28 484.58 1736.07 520.251C1449.5 371.608 1345.87 391.514 1329.88 420.048L1287.35 469.625L1243.26 375.871C1243.26 375.871 1289.1 369.085 1329.88 335.116C1370.65 301.147 1605.02 375.891 1662.78 420.048Z" fill="#464646"/>
<path id="Vector_8" d="M1253.91 882.457C1172.61 882.457 1106.46 948.589 1106.46 1029.91C1106.46 1111.23 1172.61 1177.38 1253.91 1177.38C1335.21 1177.38 1401.36 1111.23 1401.36 1029.91C1401.36 948.589 1335.21 882.457 1253.91 882.457ZM1253.91 1144.02C1190.99 1144.02 1139.8 1092.8 1139.8 1029.89C1139.8 966.97 1190.99 915.777 1253.91 915.777C1316.83 915.777 1368.02 966.974 1368.02 1029.89C1368.02 1092.8 1316.83 1144.02 1253.91 1144.02Z" fill="#202020"/>
<path id="Button_B" d="M1644.56 791.363C1680.15 791.363 1708.99 762.517 1708.99 726.933C1708.99 691.35 1680.15 662.504 1644.56 662.504C1608.98 662.504 1580.13 691.35 1580.13 726.933C1580.13 762.517 1608.98 791.363 1644.56 791.363Z" fill="#5B5B5B"/>
<path id="Button_A" d="M1502.93 928.245C1538.51 928.245 1567.36 899.399 1567.36 863.816C1567.36 828.233 1538.51 799.387 1502.93 799.387C1467.34 799.387 1438.5 828.233 1438.5 863.816C1438.5 899.399 1467.34 928.245 1502.93 928.245Z" fill="#5B5B5B"/>
<path id="Analog_C_Stick" d="M1358.21 1029.91V1029.9C1358.19 972.383 1311.44 925.601 1253.91 925.601C1196.38 925.601 1149.61 972.38 1149.61 1029.91C1149.61 1087.43 1196.38 1134.23 1253.91 1134.23C1311.44 1134.23 1358.21 1087.45 1358.21 1029.91Z" fill="#737373" stroke="#484848" stroke-width="22.3988"/>
<path id="Button_Start" d="M1140.11 759.528C1158.7 759.528 1173.77 744.462 1173.77 725.876C1173.77 707.29 1158.7 692.223 1140.11 692.223C1121.53 692.223 1106.46 707.29 1106.46 725.876C1106.46 744.462 1121.53 759.528 1140.11 759.528Z" fill="#676767"/>
<path id="Button_Y" d="M1503.63 659.46C1539.21 659.46 1568.06 630.614 1568.06 595.031C1568.06 559.448 1539.21 530.602 1503.63 530.602C1468.04 530.602 1439.2 559.448 1439.2 595.031C1439.2 630.614 1468.04 659.46 1503.63 659.46Z" fill="#5B5B5B"/>
<path id="Vector_9" d="M487.902 575.039C406.584 575.039 340.432 641.171 340.432 722.492C340.432 803.813 406.584 869.962 487.902 869.962C569.202 869.962 635.355 803.81 635.355 722.492C635.355 641.174 569.219 575.039 487.902 575.039ZM487.902 836.58C424.986 836.58 373.789 785.383 373.789 722.468C373.789 659.552 424.986 608.356 487.902 608.356C550.821 608.356 602.014 659.552 602.014 722.468C602.014 785.387 550.838 836.58 487.902 836.58Z" fill="#202020"/>
<path id="Button_Select" d="M854.775 759.528C873.361 759.528 888.428 744.462 888.428 725.876C888.428 707.29 873.361 692.223 854.775 692.223C836.189 692.223 821.122 707.29 821.122 725.876C821.122 744.462 836.189 759.528 854.775 759.528Z" fill="#676767"/>
<path id="Button_X" d="M1373.51 791.363C1409.09 791.363 1437.94 762.517 1437.94 726.933C1437.94 691.35 1409.09 662.504 1373.51 662.504C1337.93 662.504 1309.08 691.35 1309.08 726.933C1309.08 762.517 1337.93 791.363 1373.51 791.363Z" fill="#5B5B5B"/>
<path id="A" d="M1486.68 891.32H1475.48L1495.87 833.4H1508.82L1529.24 891.32H1518.04L1502.57 845.278H1502.12L1486.68 891.32ZM1487.04 868.61H1517.59V877.038H1487.04V868.61Z" fill="#50D04D"/>
<path id="B" d="M1623.73 754.438V696.517H1645.9C1650.09 696.517 1653.57 697.177 1656.34 698.497C1659.13 699.798 1661.21 701.58 1662.59 703.842C1663.98 706.105 1664.68 708.669 1664.68 711.535C1664.68 713.892 1664.23 715.909 1663.32 717.587C1662.42 719.246 1661.2 720.594 1659.68 721.631C1658.15 722.668 1656.44 723.413 1654.56 723.865V724.431C1656.61 724.544 1658.58 725.176 1660.47 726.326C1662.37 727.457 1663.93 729.06 1665.13 731.134C1666.34 733.208 1666.94 735.715 1666.94 738.657C1666.94 741.654 1666.22 744.351 1664.77 746.745C1663.31 749.121 1661.13 750.997 1658.2 752.373C1655.28 753.749 1651.61 754.438 1647.17 754.438H1623.73ZM1634.22 745.67H1645.51C1649.31 745.67 1652.06 744.944 1653.74 743.493C1655.43 742.022 1656.28 740.137 1656.28 737.836C1656.28 736.121 1655.86 734.575 1655.01 733.198C1654.16 731.803 1652.95 730.71 1651.39 729.918C1649.82 729.107 1647.96 728.702 1645.79 728.702H1634.22V745.67ZM1634.22 721.15H1644.6C1646.41 721.15 1648.04 720.821 1649.49 720.161C1650.95 719.482 1652.09 718.53 1652.92 717.304C1653.76 716.06 1654.19 714.589 1654.19 712.892C1654.19 710.649 1653.4 708.801 1651.81 707.349C1650.25 705.897 1647.92 705.172 1644.83 705.172H1634.22V721.15Z" fill="#D04D4D"/>
<path id="X" d="M1358.41 696.517L1371.17 717.728H1371.62L1384.43 696.517H1396.39L1378.55 725.477L1396.68 754.438H1384.52L1371.62 733.368H1371.17L1358.27 754.438H1346.17L1364.46 725.477L1346.39 696.517H1358.41Z" fill="#4D88D0"/>
<path id="Y" d="M1478.05 564.615H1489.9L1504.06 590.238H1504.63L1518.8 564.615H1530.65L1509.58 600.928V622.535H1499.11V600.928L1478.05 564.615Z" fill="#D0C34D"/>
<path id="Analog_Stick" d="M487.9 618.183C430.374 618.183 383.596 664.962 383.596 722.488C383.596 780.014 430.374 826.792 487.9 826.792C545.43 826.792 592.204 780.014 592.204 722.488C592.204 664.962 545.426 618.183 487.9 618.183Z" fill="#737373" stroke="#484848" stroke-width="22.3988"/>
<rect id="Dpad_Up" x="701.827" y="923.828" width="77.1513" height="92.0837" fill="#656565"/>
<rect id="Dpad_Down" x="701.827" y="1075.64" width="77.1513" height="92.0837" fill="#656565"/>
<rect id="Dpad_Left" x="701.827" y="1015.91" width="62.2188" height="79.64" transform="rotate(90 701.827 1015.91)" fill="#656565"/>
<rect id="Dpad_Right" x="858.619" y="1015.91" width="62.2188" height="79.64" transform="rotate(90 858.619 1015.91)" fill="#656565"/>
<path id="-" d="M865.773 721.123V729.551H839.697V721.123H865.773Z" fill="white"/>
<path id="+" d="M1135.02 746.039V706.898H1143.9V746.039H1135.02ZM1119.89 730.908V722.028H1159.03V730.908H1119.89Z" fill="white"/>
<path id="Button_R" d="M1428.6 253.653V310.976H1608.65V253.653V222.648C1608.65 210.14 1598.51 200 1586 200H1451.24C1438.74 200 1428.6 210.14 1428.6 222.648V253.653Z" fill="#464646"/>
<path id="Button_L" d="M397.597 253.653V310.976H577.65V253.653V222.648C577.65 210.14 567.51 200 555.002 200H420.245C407.737 200 397.597 210.14 397.597 222.648V253.653Z" fill="#464646"/>
<path id="RT" d="M1482.41 281.324V228.616H1502.18C1506.23 228.616 1509.62 229.319 1512.37 230.726C1515.13 232.133 1517.22 234.106 1518.62 236.646C1520.05 239.168 1520.76 242.11 1520.76 245.473C1520.76 248.853 1520.04 251.787 1518.6 254.275C1517.17 256.746 1515.07 258.659 1512.29 260.014C1509.51 261.353 1506.1 262.022 1502.05 262.022H1487.97V254.095H1500.76C1503.13 254.095 1505.07 253.769 1506.58 253.117C1508.09 252.448 1509.2 251.478 1509.92 250.209C1510.66 248.922 1511.03 247.343 1511.03 245.473C1511.03 243.603 1510.66 242.007 1509.92 240.686C1509.19 239.348 1508.06 238.336 1506.55 237.649C1505.04 236.946 1503.1 236.594 1500.71 236.594H1491.96V281.324H1482.41ZM1509.64 257.441L1522.69 281.324H1512.03L1499.22 257.441H1509.64ZM1527.23 236.62V228.616H1569.29V236.62H1552.99V281.324H1543.52V236.62H1527.23Z" fill="white"/>
<path id="RB" d="M1487.53 408.354L1496.57 374.634L1509.21 378.023C1511.8 378.717 1513.86 379.749 1515.37 381.12C1516.9 382.493 1517.89 384.113 1518.36 385.979C1518.84 387.836 1518.79 389.841 1518.21 391.992C1517.63 394.155 1516.67 395.908 1515.32 397.253C1513.98 398.589 1512.31 399.453 1510.3 399.843C1508.29 400.223 1506 400.066 1503.4 399.372L1494.4 396.959L1495.76 391.887L1503.94 394.08C1505.45 394.486 1506.75 394.61 1507.83 394.451C1508.91 394.282 1509.79 393.853 1510.47 393.164C1511.16 392.468 1511.67 391.521 1511.99 390.325C1512.31 389.128 1512.35 388.044 1512.1 387.072C1511.86 386.09 1511.31 385.25 1510.46 384.552C1509.62 383.843 1508.43 383.284 1506.91 382.875L1501.31 381.375L1493.64 409.991L1487.53 408.354ZM1509.05 397.742L1513.3 415.258L1506.48 413.432L1502.38 395.956L1509.05 397.742ZM1517.69 416.434L1526.72 382.714L1539.63 386.173C1542.07 386.826 1543.99 387.753 1545.4 388.954C1546.82 390.146 1547.75 391.509 1548.2 393.04C1548.66 394.575 1548.67 396.177 1548.22 397.845C1547.85 399.217 1547.28 400.321 1546.49 401.157C1545.7 401.982 1544.78 402.577 1543.73 402.942C1542.68 403.308 1541.57 403.475 1540.4 403.445L1540.32 403.774C1541.49 404.16 1542.54 404.835 1543.46 405.799C1544.39 406.755 1545.05 407.93 1545.43 409.326C1545.81 410.722 1545.77 412.276 1545.31 413.988C1544.84 415.733 1544 417.19 1542.78 418.357C1541.56 419.514 1540 420.265 1538.08 420.61C1536.16 420.955 1533.92 420.783 1531.34 420.091L1517.69 416.434ZM1525.16 412.967L1531.73 414.727C1533.95 415.321 1535.66 415.326 1536.86 414.743C1538.08 414.152 1538.87 413.186 1539.23 411.847C1539.5 410.848 1539.49 409.882 1539.21 408.948C1538.94 408.004 1538.4 407.179 1537.62 406.474C1536.83 405.758 1535.81 405.231 1534.55 404.892L1527.81 403.088L1525.16 412.967ZM1528.99 398.692L1535.03 400.311C1536.09 400.593 1537.09 400.656 1538.03 400.498C1538.99 400.329 1539.8 399.953 1540.47 399.369C1541.16 398.777 1541.64 397.987 1541.9 396.999C1542.25 395.693 1542.08 394.493 1541.38 393.401C1540.7 392.312 1539.46 391.526 1537.66 391.044L1531.48 389.389L1528.99 398.692Z" fill="white"/>
<path id="LB" d="M467.291 406.777L458.256 373.057L464.365 371.42L472.028 400.019L486.879 396.04L488.251 401.161L467.291 406.777ZM493.553 399.74L484.517 366.02L497.426 362.562C499.862 361.909 501.991 361.75 503.81 362.086C505.637 362.408 507.128 363.121 508.282 364.223C509.448 365.323 510.254 366.707 510.701 368.375C511.068 369.747 511.12 370.992 510.855 372.11C510.587 373.217 510.089 374.192 509.362 375.034C508.634 375.876 507.757 376.575 506.73 377.133L506.818 377.462C508.032 377.207 509.278 377.268 510.555 377.643C511.84 378.005 512.996 378.695 514.022 379.714C515.048 380.734 515.79 382.099 516.249 383.812C516.716 385.557 516.714 387.24 516.243 388.86C515.768 390.47 514.788 391.903 513.301 393.16C511.814 394.417 509.781 395.391 507.202 396.083L493.553 399.74ZM498.293 392.999L504.863 391.239C507.08 390.645 508.564 389.794 509.314 388.687C510.073 387.566 510.273 386.336 509.914 384.997C509.646 383.998 509.158 383.165 508.449 382.496C507.738 381.816 506.865 381.367 505.83 381.15C504.793 380.923 503.643 380.978 502.38 381.316L495.646 383.12L498.293 392.999ZM494.468 378.724L500.511 377.105C501.565 376.823 502.463 376.376 503.205 375.766C503.944 375.144 504.46 374.412 504.752 373.569C505.051 372.712 505.069 371.79 504.804 370.802C504.454 369.496 503.705 368.544 502.557 367.945C501.419 367.344 499.95 367.285 498.15 367.767L491.976 369.422L494.468 378.724Z" fill="white"/>
<path id="LT" d="M458.526 281.324V228.616H468.074V273.32H491.288V281.324H458.526ZM490.536 236.62V228.616H532.589V236.62H516.298V281.324H506.827V236.62H490.536Z" fill="white"/>
</g>
</svg>
